<svg width="100%" height="100%" viewBox="0 0 496 526" fill="none" xmlns="http://www.w3.org/2000/svg">
<path d="M82.6164 38.44C81.3258 38.44 80.2111 38.0587 79.2724 37.296C78.3338 36.5333 77.8644 35.4627 77.8644 34.084V20.268H74.2564V20.004L77.9964 18.2L81.1204 13.36H81.3844V18.2H87.1924V20.268H81.3844V33.336C81.3844 34.0987 81.7218 34.656 82.3964 35.008C83.0711 35.36 83.8631 35.536 84.7724 35.536C85.3298 35.536 85.8431 35.5067 86.3124 35.448C86.8111 35.3893 87.2364 35.316 87.5884 35.228H87.7204V35.668C87.4271 36.3427 86.8404 36.9733 85.9604 37.56C85.1098 38.1467 83.9951 38.44 82.6164 38.44ZM88.9311 38V37.296L91.7031 35.888V10.016L89.0631 7.728V7.42L94.9591 5H95.2231V21.016H95.3991C96.5138 19.9013 97.5845 19.08 98.6111 18.552C99.6671 18.024 100.826 17.76 102.087 17.76C103.818 17.76 105.226 18.2 106.311 19.08C107.426 19.9307 107.983 21.2067 107.983 22.908V35.888L110.755 37.296V38H101.339V37.296L104.463 36.02V24.976C104.463 23.6853 104.052 22.7027 103.231 22.028C102.439 21.3533 101.398 21.016 100.107 21.016C99.3151 21.016 98.4351 21.148 97.4671 21.412C96.5285 21.676 95.7805 22.0573 95.2231 22.556V36.02L98.3471 37.296V38H88.9311ZM121.625 38.44C118.779 38.44 116.535 37.5747 114.893 35.844C113.25 34.1133 112.429 31.8253 112.429 28.98C112.429 26.78 112.854 24.844 113.705 23.172C114.585 21.4707 115.729 20.1507 117.137 19.212C118.574 18.244 120.129 17.76 121.801 17.76C124.118 17.76 125.937 18.5667 127.257 20.18C128.606 21.7933 129.281 24.1107 129.281 27.132L129.061 27.352H115.905C115.934 28.7013 116.198 29.9773 116.697 31.18C117.195 32.3533 117.987 33.3067 119.073 34.04C120.187 34.7733 121.669 35.14 123.517 35.14C125.13 35.14 127.022 34.5533 129.193 33.38H129.325V33.82C128.65 35.0813 127.638 36.1667 126.289 37.076C124.969 37.9853 123.414 38.44 121.625 38.44ZM121.097 19.696C119.689 19.696 118.53 20.1947 117.621 21.192C116.741 22.16 116.198 23.5387 115.993 25.328H125.937C125.614 23.3333 125.042 21.896 124.221 21.016C123.429 20.136 122.387 19.696 121.097 19.696ZM131.629 38V37.296L134.401 35.888V22.776L131.761 20.488V20.18L137.217 17.76H137.481L137.877 21.5H138.053C138.728 20.4147 139.344 19.608 139.901 19.08C140.488 18.5227 141.03 18.1707 141.529 18.024C142.028 17.848 142.526 17.76 143.025 17.76C143.26 17.76 143.524 17.804 143.817 17.892C144.14 17.98 144.404 18.068 144.609 18.156C144.932 18.3027 145.225 18.4787 145.489 18.684C145.782 18.8893 145.929 19.124 145.929 19.388C145.929 19.652 145.87 19.916 145.753 20.18L144.873 22.336H144.565L142.893 21.676C142.57 21.5293 142.248 21.4413 141.925 21.412C141.632 21.3827 141.338 21.368 141.045 21.368C139.813 21.368 138.772 21.9987 137.921 23.26V35.888L141.045 37.296V38H131.629ZM156.025 38.44C153.18 38.44 150.936 37.5747 149.293 35.844C147.651 34.1133 146.829 31.8253 146.829 28.98C146.829 26.78 147.255 24.844 148.105 23.172C148.985 21.4707 150.129 20.1507 151.537 19.212C152.975 18.244 154.529 17.76 156.201 17.76C158.519 17.76 160.337 18.5667 161.657 20.18C163.007 21.7933 163.681 24.1107 163.681 27.132L163.461 27.352H150.305C150.335 28.7013 150.599 29.9773 151.097 31.18C151.596 32.3533 152.388 33.3067 153.473 34.04C154.588 34.7733 156.069 35.14 157.917 35.14C159.531 35.14 161.423 34.5533 163.593 33.38H163.725V33.82C163.051 35.0813 162.039 36.1667 160.689 37.076C159.369 37.9853 157.815 38.44 156.025 38.44ZM155.497 19.696C154.089 19.696 152.931 20.1947 152.021 21.192C151.141 22.16 150.599 23.5387 150.393 25.328H160.337C160.015 23.3333 159.443 21.896 158.621 21.016C157.829 20.136 156.788 19.696 155.497 19.696ZM165.17 16.792V15.868C166.138 15.6627 167.018 15.252 167.81 14.636C168.632 14.02 169.042 13.2573 169.042 12.348C169.042 11.8493 168.91 11.3653 168.646 10.896C168.382 10.3973 167.766 9.89867 166.798 9.4L165.17 8.564V8.036L166.006 5.968C166.241 5.32266 166.608 5 167.106 5C167.253 5 167.429 5.01466 167.634 5.044C167.84 5.07333 168.074 5.16133 168.338 5.308C169.424 5.95333 170.23 6.672 170.758 7.464C171.316 8.256 171.594 9.224 171.594 10.368C171.594 11.072 171.36 11.8787 170.89 12.788C170.45 13.668 169.746 14.4893 168.778 15.252C167.84 15.9853 166.637 16.4987 165.17 16.792ZM179.293 38.44C177.914 38.44 176.726 38.3227 175.729 38.088C174.731 37.8533 173.719 37.472 172.693 36.944V32.016H173.309L174.717 34.436C175.626 36.0493 177.107 36.856 179.161 36.856C180.334 36.856 181.243 36.5773 181.889 36.02C182.563 35.4627 182.901 34.7 182.901 33.732C182.901 32.8813 182.695 32.2213 182.285 31.752C181.874 31.2827 181.287 30.872 180.525 30.52C179.791 30.1387 178.911 29.7133 177.885 29.244C176.389 28.5693 175.23 27.836 174.409 27.044C173.617 26.2227 173.221 25.0787 173.221 23.612C173.221 22.5267 173.529 21.544 174.145 20.664C174.761 19.784 175.538 19.08 176.477 18.552C177.445 18.024 178.442 17.76 179.469 17.76C180.554 17.76 181.551 17.892 182.461 18.156C183.37 18.42 184.294 18.7867 185.233 19.256V24.052H184.617L183.165 21.72C182.666 20.928 182.123 20.356 181.537 20.004C180.95 19.652 180.319 19.476 179.645 19.476C178.647 19.476 177.841 19.7253 177.225 20.224C176.638 20.7227 176.345 21.412 176.345 22.292C176.345 23.2893 176.697 24.052 177.401 24.58C178.134 25.0787 179.19 25.6507 180.569 26.296C181.39 26.7067 182.211 27.1173 183.033 27.528C183.883 27.9387 184.573 28.5253 185.101 29.288C185.658 30.0213 185.937 31.0773 185.937 32.456C185.937 33.7467 185.585 34.8467 184.881 35.756C184.177 36.636 183.311 37.3107 182.285 37.78C181.258 38.22 180.261 38.44 179.293 38.44ZM197.625 38V37.296L200.397 35.888V22.776L197.757 20.488V20.18L203.213 17.76H203.477L203.873 21.016H204.093C205.208 19.9013 206.278 19.08 207.305 18.552C208.361 18.024 209.52 17.76 210.781 17.76C212.512 17.76 213.92 18.2 215.005 19.08C216.12 19.9307 216.677 21.2067 216.677 22.908V35.888L219.449 37.296V38H210.033V37.296L213.157 35.888V24.976C213.157 23.6853 212.746 22.7027 211.925 22.028C211.133 21.3533 210.092 21.016 208.801 21.016C208.009 21.016 207.129 21.148 206.161 21.412C205.222 21.676 204.474 22.0573 203.917 22.556V35.888L207.041 37.296V38H197.625ZM230.802 38.44C228.866 38.44 227.165 37.9853 225.698 37.076C224.261 36.1667 223.132 34.9347 222.31 33.38C221.518 31.8253 221.122 30.0653 221.122 28.1C221.122 26.1347 221.518 24.3747 222.31 22.82C223.132 21.2653 224.261 20.0333 225.698 19.124C227.165 18.2147 228.866 17.76 230.802 17.76C232.738 17.76 234.425 18.2147 235.862 19.124C237.329 20.0333 238.458 21.2653 239.25 22.82C240.072 24.3747 240.482 26.1347 240.482 28.1C240.482 30.0653 240.072 31.8253 239.25 33.38C238.458 34.9347 237.329 36.1667 235.862 37.076C234.425 37.9853 232.738 38.44 230.802 38.44ZM231.418 36.548C232.592 36.548 233.56 36.1813 234.322 35.448C235.085 34.7147 235.642 33.776 235.994 32.632C236.346 31.4587 236.522 30.2413 236.522 28.98C236.522 27.4253 236.302 25.9293 235.862 24.492C235.452 23.0547 234.777 21.8813 233.838 20.972C232.929 20.0627 231.741 19.608 230.274 19.608C229.072 19.608 228.089 19.9747 227.326 20.708C226.564 21.4413 225.992 22.38 225.61 23.524C225.258 24.668 225.082 25.8853 225.082 27.176C225.082 28.7307 225.302 30.2267 225.742 31.664C226.182 33.1013 226.872 34.2747 227.81 35.184C228.749 36.0933 229.952 36.548 231.418 36.548ZM244.801 38.44V10.016L242.161 7.728V7.42L248.057 5H248.321V20.488H248.497C249.612 19.5493 250.682 18.86 251.709 18.42C252.765 17.98 253.894 17.76 255.097 17.76C256.593 17.76 257.913 18.1413 259.057 18.904C260.201 19.6667 261.096 20.752 261.741 22.16C262.416 23.5387 262.753 25.196 262.753 27.132C262.753 29.5373 262.298 31.5907 261.389 33.292C260.48 34.964 259.248 36.24 257.693 37.12C256.138 38 254.393 38.44 252.457 38.44C251.254 38.44 250.125 38.3227 249.069 38.088C248.042 37.8827 247.074 37.6187 246.165 37.296L245.065 38.44H244.801ZM252.677 20.796C251.973 20.796 251.24 20.9133 250.477 21.148C249.744 21.3533 249.025 21.676 248.321 22.116V34.524C249.142 35.1693 249.964 35.6387 250.785 35.932C251.636 36.196 252.574 36.328 253.601 36.328C254.628 36.328 255.566 36.064 256.417 35.536C257.268 34.9787 257.942 34.0987 258.441 32.896C258.969 31.6933 259.233 30.1093 259.233 28.144C259.233 25.592 258.588 23.7293 257.297 22.556C256.036 21.3827 254.496 20.796 252.677 20.796ZM274.785 38.44C272.849 38.44 271.148 37.9853 269.681 37.076C268.244 36.1667 267.114 34.9347 266.293 33.38C265.501 31.8253 265.105 30.0653 265.105 28.1C265.105 26.1347 265.501 24.3747 266.293 22.82C267.114 21.2653 268.244 20.0333 269.681 19.124C271.148 18.2147 272.849 17.76 274.785 17.76C276.721 17.76 278.408 18.2147 279.845 19.124C281.312 20.0333 282.441 21.2653 283.233 22.82C284.054 24.3747 284.465 26.1347 284.465 28.1C284.465 30.0653 284.054 31.8253 283.233 33.38C282.441 34.9347 281.312 36.1667 279.845 37.076C278.408 37.9853 276.721 38.44 274.785 38.44ZM275.401 36.548C276.574 36.548 277.542 36.1813 278.305 35.448C279.068 34.7147 279.625 33.776 279.977 32.632C280.329 31.4587 280.505 30.2413 280.505 28.98C280.505 27.4253 280.285 25.9293 279.845 24.492C279.434 23.0547 278.76 21.8813 277.821 20.972C276.912 20.0627 275.724 19.608 274.257 19.608C273.054 19.608 272.072 19.9747 271.309 20.708C270.546 21.4413 269.974 22.38 269.593 23.524C269.241 24.668 269.065 25.8853 269.065 27.176C269.065 28.7307 269.285 30.2267 269.725 31.664C270.165 33.1013 270.854 34.2747 271.793 35.184C272.732 36.0933 273.934 36.548 275.401 36.548ZM294.274 38.44C292.807 38.44 291.487 38.0733 290.314 37.34C289.17 36.6067 288.26 35.58 287.586 34.26C286.94 32.9107 286.618 31.312 286.618 29.464C286.618 26.9707 287.102 24.8587 288.07 23.128C289.038 21.368 290.328 20.0333 291.942 19.124C293.555 18.2147 295.315 17.76 297.222 17.76C298.043 17.76 298.762 17.804 299.378 17.892C299.994 17.9507 300.551 18.0387 301.05 18.156V10.016L298.19 7.728V7.42L304.306 5H304.57V36.02L307.694 37.296V38H301.49L301.138 35.756H300.83C299.715 36.6947 298.63 37.384 297.574 37.824C296.547 38.2347 295.447 38.44 294.274 38.44ZM290.138 28.452C290.138 30.8867 290.783 32.6613 292.074 33.776C293.364 34.8613 294.904 35.404 296.694 35.404C297.398 35.404 298.116 35.3013 298.85 35.096C299.612 34.8613 300.346 34.524 301.05 34.084V21.764C300.346 21.148 299.642 20.6933 298.938 20.4C298.263 20.0773 297.5 19.916 296.65 19.916C295.476 19.916 294.391 20.2093 293.394 20.796C292.426 21.3533 291.634 22.2627 291.018 23.524C290.431 24.756 290.138 26.3987 290.138 28.452ZM310.712 48.604C310.037 48.604 309.612 48.5013 309.436 48.296C309.289 48.12 309.216 47.7973 309.216 47.328V45.128L309.392 44.952H311.416C312.149 44.952 312.706 44.8787 313.088 44.732C313.469 44.6147 313.821 44.2773 314.144 43.72C314.466 43.192 314.921 42.312 315.508 41.08L317.048 37.648L308.996 20.268L306.048 18.904V18.2H316.564V18.904L312.956 20.268V20.488L318.808 33.248H318.94L323.868 20.752V20.488L320.568 18.904V18.2H329.192V18.904L325.892 20.4L317.224 41.476C316.96 42.1507 316.725 42.708 316.52 43.148C316.344 43.6173 316.138 44.0573 315.904 44.468C315.669 44.908 315.332 45.436 314.892 46.052C314.305 46.9027 313.645 47.5333 312.912 47.944C312.178 48.384 311.445 48.604 310.712 48.604ZM336.912 38V37.296L339.684 35.888V10.016L337.044 7.728V7.42L342.94 5H343.204V21.016H343.38C344.495 19.9013 345.566 19.08 346.592 18.552C347.648 18.024 348.807 17.76 350.068 17.76C351.799 17.76 353.207 18.2 354.292 19.08C355.407 19.9307 355.964 21.2067 355.964 22.908V35.888L358.736 37.296V38H349.32V37.296L352.444 36.02V24.976C352.444 23.6853 352.034 22.7027 351.212 22.028C350.42 21.3533 349.379 21.016 348.088 21.016C347.296 21.016 346.416 21.148 345.448 21.412C344.51 21.676 343.762 22.0573 343.204 22.556V36.02L346.328 37.296V38H336.912ZM369.606 38.44C366.76 38.44 364.516 37.5747 362.874 35.844C361.231 34.1133 360.41 31.8253 360.41 28.98C360.41 26.78 360.835 24.844 361.686 23.172C362.566 21.4707 363.71 20.1507 365.118 19.212C366.555 18.244 368.11 17.76 369.782 17.76C372.099 17.76 373.918 18.5667 375.238 20.18C376.587 21.7933 377.262 24.1107 377.262 27.132L377.042 27.352H363.886C363.915 28.7013 364.179 29.9773 364.678 31.18C365.176 32.3533 365.968 33.3067 367.054 34.04C368.168 34.7733 369.65 35.14 371.498 35.14C373.111 35.14 375.003 34.5533 377.174 33.38H377.306V33.82C376.631 35.0813 375.619 36.1667 374.27 37.076C372.95 37.9853 371.395 38.44 369.606 38.44ZM369.078 19.696C367.67 19.696 366.511 20.1947 365.602 21.192C364.722 22.16 364.179 23.5387 363.974 25.328H373.918C373.595 23.3333 373.023 21.896 372.202 21.016C371.41 20.136 370.368 19.696 369.078 19.696ZM379.61 38V37.296L382.382 35.888V22.776L379.742 20.488V20.18L385.198 17.76H385.462L385.858 21.5H386.034C386.709 20.4147 387.325 19.608 387.882 19.08C388.469 18.5227 389.012 18.1707 389.51 18.024C390.009 17.848 390.508 17.76 391.006 17.76C391.241 17.76 391.505 17.804 391.798 17.892C392.121 17.98 392.385 18.068 392.59 18.156C392.913 18.3027 393.206 18.4787 393.47 18.684C393.764 18.8893 393.91 19.124 393.91 19.388C393.91 19.652 393.852 19.916 393.734 20.18L392.854 22.336H392.546L390.874 21.676C390.552 21.5293 390.229 21.4413 389.906 21.412C389.613 21.3827 389.32 21.368 389.026 21.368C387.794 21.368 386.753 21.9987 385.902 23.26V35.888L389.026 37.296V38H379.61ZM404.007 38.44C401.161 38.44 398.917 37.5747 397.275 35.844C395.632 34.1133 394.811 31.8253 394.811 28.98C394.811 26.78 395.236 24.844 396.087 23.172C396.967 21.4707 398.111 20.1507 399.519 19.212C400.956 18.244 402.511 17.76 404.183 17.76C406.5 17.76 408.319 18.5667 409.639 20.18C410.988 21.7933 411.663 24.1107 411.663 27.132L411.443 27.352H398.287C398.316 28.7013 398.58 29.9773 399.079 31.18C399.577 32.3533 400.369 33.3067 401.455 34.04C402.569 34.7733 404.051 35.14 405.899 35.14C407.512 35.14 409.404 34.5533 411.575 33.38H411.707V33.82C411.032 35.0813 410.02 36.1667 408.671 37.076C407.351 37.9853 405.796 38.44 404.007 38.44ZM403.479 19.696C402.071 19.696 400.912 20.1947 400.003 21.192C399.123 22.16 398.58 23.5387 398.375 25.328H408.319C407.996 23.3333 407.424 21.896 406.603 21.016C405.811 20.136 404.769 19.696 403.479 19.696ZM414.407 47.02V46.096C415.639 45.4507 416.534 44.7173 417.091 43.896C417.648 43.0747 417.927 42.2093 417.927 41.3C417.927 40.4787 417.736 39.7893 417.355 39.232C417.003 38.704 416.46 38.2493 415.727 37.868L414.231 37.076L414.099 36.636L415.375 34.436C415.58 34.1133 415.756 33.8787 415.903 33.732C416.05 33.556 416.24 33.468 416.475 33.468C416.71 33.468 417.076 33.6 417.575 33.864C418.484 34.392 419.188 35.1253 419.687 36.064C420.215 37.0027 420.479 38.0147 420.479 39.1C420.479 40.6547 420.01 42.1067 419.071 43.456C418.132 44.8053 416.578 45.9933 414.407 47.02ZM113.422 88.44C110.576 88.44 108.332 87.5747 106.69 85.844C105.047 84.1133 104.226 81.8253 104.226 78.98C104.226 76.78 104.666 74.844 105.546 73.172C106.455 71.4707 107.672 70.1507 109.198 69.212C110.723 68.244 112.439 67.76 114.346 67.76C115.519 67.76 116.663 67.9653 117.778 68.376C118.892 68.7573 119.743 69.2707 120.33 69.916C120.799 70.4733 121.034 70.9133 121.034 71.236C121.034 71.6467 120.843 71.9987 120.462 72.292L118.79 73.7H118.482L116.986 71.676C116.546 71.0893 115.988 70.62 115.314 70.268C114.668 69.8867 113.862 69.696 112.894 69.696C111.28 69.696 110.004 70.3413 109.066 71.632C108.156 72.8933 107.702 74.668 107.702 76.956C107.702 78.364 107.936 79.6987 108.406 80.96C108.875 82.192 109.652 83.204 110.738 83.996C111.852 84.7587 113.378 85.14 115.314 85.14C116.927 85.14 118.819 84.5533 120.99 83.38H121.122V83.82C120.447 85.0813 119.435 86.1667 118.086 87.076C116.766 87.9853 115.211 88.44 113.422 88.44ZM127.744 88.44C126.366 88.44 125.222 88.044 124.312 87.252C123.403 86.4307 122.948 85.3013 122.948 83.864C122.948 82.4267 123.476 81.18 124.532 80.124C125.618 79.068 127.422 78.2467 129.944 77.66L134.124 76.692V73.48C134.124 72.4827 133.714 71.632 132.892 70.928C132.1 70.1947 131.191 69.828 130.164 69.828C129.05 69.828 128.272 70.136 127.832 70.752C127.392 71.3387 127.172 72.1307 127.172 73.128V74.36L126.952 74.58H124.664C124.224 74.58 123.916 74.5067 123.74 74.36C123.594 74.2133 123.52 73.876 123.52 73.348C123.52 72.7027 123.711 72.0427 124.092 71.368C124.474 70.6933 125.06 70.1067 125.852 69.608C126.674 69.08 127.524 68.64 128.404 68.288C129.314 67.936 130.282 67.76 131.308 67.76C132.335 67.76 133.332 67.9067 134.3 68.2C135.298 68.4933 136.104 68.992 136.72 69.696C137.336 70.3707 137.644 71.324 137.644 72.556V85.052C137.85 85.2573 138.143 85.4333 138.524 85.58C138.906 85.7267 139.434 85.8 140.108 85.8H141.78L141.912 85.888V86.02C141.56 86.6653 141.032 87.2373 140.328 87.736C139.654 88.2053 138.818 88.44 137.82 88.44C136.911 88.44 136.163 88.2053 135.576 87.736C135.019 87.2373 134.623 86.592 134.388 85.8H134.124C133.362 86.5627 132.408 87.1933 131.264 87.692C130.15 88.1907 128.976 88.44 127.744 88.44ZM126.38 82.984C126.38 84.8027 127.48 85.712 129.68 85.712C130.384 85.712 131.074 85.6387 131.748 85.492C132.452 85.3453 133.244 85.0813 134.124 84.7V78.188C131.778 78.628 130.062 79.0973 128.976 79.596C127.891 80.0653 127.187 80.5787 126.864 81.136C126.542 81.6933 126.38 82.3093 126.38 82.984ZM142.496 88V87.296L145.268 85.888V72.776L142.628 70.488V70.18L148.084 67.76H148.348L148.744 71.5H148.92C149.594 70.4147 150.21 69.608 150.768 69.08C151.354 68.5227 151.897 68.1707 152.396 68.024C152.894 67.848 153.393 67.76 153.892 67.76C154.126 67.76 154.39 67.804 154.684 67.892C155.006 67.98 155.27 68.068 155.476 68.156C155.798 68.3027 156.092 68.4787 156.356 68.684C156.649 68.8893 156.796 69.124 156.796 69.388C156.796 69.652 156.737 69.916 156.62 70.18L155.74 72.336H155.432L153.76 71.676C153.437 71.5293 153.114 71.4413 152.792 71.412C152.498 71.3827 152.205 71.368 151.912 71.368C150.68 71.368 149.638 71.9987 148.788 73.26V85.888L151.912 87.296V88H142.496ZM166.892 88.44C164.047 88.44 161.803 87.5747 160.16 85.844C158.517 84.1133 157.696 81.8253 157.696 78.98C157.696 76.78 158.121 74.844 158.972 73.172C159.852 71.4707 160.996 70.1507 162.404 69.212C163.841 68.244 165.396 67.76 167.068 67.76C169.385 67.76 171.204 68.5667 172.524 70.18C173.873 71.7933 174.548 74.1107 174.548 77.132L174.328 77.352H161.172C161.201 78.7013 161.465 79.9773 161.964 81.18C162.463 82.3533 163.255 83.3067 164.34 84.04C165.455 84.7733 166.936 85.14 168.784 85.14C170.397 85.14 172.289 84.5533 174.46 83.38H174.592V83.82C173.917 85.0813 172.905 86.1667 171.556 87.076C170.236 87.9853 168.681 88.44 166.892 88.44ZM166.364 69.696C164.956 69.696 163.797 70.1947 162.888 71.192C162.008 72.16 161.465 73.5387 161.26 75.328H171.204C170.881 73.3333 170.309 71.896 169.488 71.016C168.696 70.136 167.655 69.696 166.364 69.696ZM185.785 88V87.296L188.557 85.888V70.268H185.125V68.2H188.557V66.44C188.557 65.8533 188.703 65.0907 188.997 64.152C189.29 63.2133 189.715 62.2307 190.273 61.204C190.859 60.148 191.563 59.1507 192.385 58.212C193.206 57.2733 194.13 56.5107 195.157 55.924C196.213 55.308 197.371 55 198.633 55C198.897 55 199.175 55.044 199.469 55.132C199.762 55.22 200.011 55.308 200.217 55.396C200.657 55.6013 200.979 55.792 201.185 55.968C201.419 56.144 201.537 56.364 201.537 56.628C201.537 56.892 201.478 57.156 201.361 57.42L200.481 59.576H200.173L198.985 59.092C198.163 58.7693 197.21 58.608 196.125 58.608C194.511 58.608 193.426 59.1213 192.869 60.148C192.341 61.1453 192.077 62.656 192.077 64.68V68.2H197.885V70.268H192.077V85.976L195.201 87.296V88H185.785ZM208.128 88.44C206.192 88.44 204.49 87.9853 203.024 87.076C201.586 86.1667 200.457 84.9347 199.636 83.38C198.844 81.8253 198.448 80.0653 198.448 78.1C198.448 76.1347 198.844 74.3747 199.636 72.82C200.457 71.2653 201.586 70.0333 203.024 69.124C204.49 68.2147 206.192 67.76 208.128 67.76C210.064 67.76 211.75 68.2147 213.188 69.124C214.654 70.0333 215.784 71.2653 216.576 72.82C217.397 74.3747 217.808 76.1347 217.808 78.1C217.808 80.0653 217.397 81.8253 216.576 83.38C215.784 84.9347 214.654 86.1667 213.188 87.076C211.75 87.9853 210.064 88.44 208.128 88.44ZM208.744 86.548C209.917 86.548 210.885 86.1813 211.648 85.448C212.41 84.7147 212.968 83.776 213.32 82.632C213.672 81.4587 213.848 80.2413 213.848 78.98C213.848 77.4253 213.628 75.9293 213.188 74.492C212.777 73.0547 212.102 71.8813 211.164 70.972C210.254 70.0627 209.066 69.608 207.6 69.608C206.397 69.608 205.414 69.9747 204.652 70.708C203.889 71.4413 203.317 72.38 202.936 73.524C202.584 74.668 202.408 75.8853 202.408 77.176C202.408 78.7307 202.628 80.2267 203.068 81.664C203.508 83.1013 204.197 84.2747 205.136 85.184C206.074 86.0933 207.277 86.548 208.744 86.548ZM220.097 88V87.296L222.869 85.888V72.776L220.229 70.488V70.18L225.685 67.76H225.949L226.345 71.5H226.521C227.196 70.4147 227.812 69.608 228.369 69.08C228.956 68.5227 229.499 68.1707 229.997 68.024C230.496 67.848 230.995 67.76 231.493 67.76C231.728 67.76 231.992 67.804 232.285 67.892C232.608 67.98 232.872 68.068 233.077 68.156C233.4 68.3027 233.693 68.4787 233.957 68.684C234.251 68.8893 234.397 69.124 234.397 69.388C234.397 69.652 234.339 69.916 234.221 70.18L233.341 72.336H233.033L231.361 71.676C231.039 71.5293 230.716 71.4413 230.393 71.412C230.1 71.3827 229.807 71.368 229.513 71.368C228.281 71.368 227.24 71.9987 226.389 73.26V85.888L229.513 87.296V88H220.097ZM248.762 88.44C247.383 88.44 246.239 88.044 245.33 87.252C244.42 86.4307 243.966 85.3013 243.966 83.864C243.966 82.4267 244.494 81.18 245.55 80.124C246.635 79.068 248.439 78.2467 250.962 77.66L255.142 76.692V73.48C255.142 72.4827 254.731 71.632 253.91 70.928C253.118 70.1947 252.208 69.828 251.182 69.828C250.067 69.828 249.29 70.136 248.85 70.752C248.41 71.3387 248.19 72.1307 248.19 73.128V74.36L247.97 74.58H245.682C245.242 74.58 244.934 74.5067 244.758 74.36C244.611 74.2133 244.538 73.876 244.538 73.348C244.538 72.7027 244.728 72.0427 245.11 71.368C245.491 70.6933 246.078 70.1067 246.87 69.608C247.691 69.08 248.542 68.64 249.422 68.288C250.331 67.936 251.299 67.76 252.326 67.76C253.352 67.76 254.35 67.9067 255.318 68.2C256.315 68.4933 257.122 68.992 257.738 69.696C258.354 70.3707 258.662 71.324 258.662 72.556V85.052C258.867 85.2573 259.16 85.4333 259.542 85.58C259.923 85.7267 260.451 85.8 261.126 85.8H262.798L262.93 85.888V86.02C262.578 86.6653 262.05 87.2373 261.346 87.736C260.671 88.2053 259.835 88.44 258.838 88.44C257.928 88.44 257.18 88.2053 256.594 87.736C256.036 87.2373 255.64 86.592 255.406 85.8H255.142C254.379 86.5627 253.426 87.1933 252.282 87.692C251.167 88.1907 249.994 88.44 248.762 88.44ZM247.398 82.984C247.398 84.8027 248.498 85.712 250.698 85.712C251.402 85.712 252.091 85.6387 252.766 85.492C253.47 85.3453 254.262 85.0813 255.142 84.7V78.188C252.795 78.628 251.079 79.0973 249.994 79.596C248.908 80.0653 248.204 80.5787 247.882 81.136C247.559 81.6933 247.398 82.3093 247.398 82.984ZM279.617 88.44C278.15 88.44 276.83 88.0733 275.657 87.34C274.513 86.6067 273.604 85.58 272.929 84.26C272.284 82.9107 271.961 81.312 271.961 79.464C271.961 76.9707 272.445 74.8587 273.413 73.128C274.381 71.368 275.672 70.0333 277.285 69.124C278.898 68.2147 280.658 67.76 282.565 67.76C283.386 67.76 284.105 67.804 284.721 67.892C285.337 67.9507 285.894 68.0387 286.393 68.156V60.016L283.533 57.728V57.42L289.649 55H289.913V86.02L293.037 87.296V88H286.833L286.481 85.756H286.173C285.058 86.6947 283.973 87.384 282.917 87.824C281.89 88.2347 280.79 88.44 279.617 88.44ZM275.481 78.452C275.481 80.8867 276.126 82.6613 277.417 83.776C278.708 84.8613 280.248 85.404 282.037 85.404C282.741 85.404 283.46 85.3013 284.193 85.096C284.956 84.8613 285.689 84.524 286.393 84.084V71.764C285.689 71.148 284.985 70.6933 284.281 70.4C283.606 70.0773 282.844 69.916 281.993 69.916C280.82 69.916 279.734 70.2093 278.737 70.796C277.769 71.3533 276.977 72.2627 276.361 73.524C275.774 74.756 275.481 76.3987 275.481 78.452ZM299.267 88.44C297.888 88.44 296.744 88.044 295.835 87.252C294.926 86.4307 294.471 85.3013 294.471 83.864C294.471 82.4267 294.999 81.18 296.055 80.124C297.14 79.068 298.944 78.2467 301.467 77.66L305.647 76.692V73.48C305.647 72.4827 305.236 71.632 304.415 70.928C303.623 70.1947 302.714 69.828 301.687 69.828C300.572 69.828 299.795 70.136 299.355 70.752C298.915 71.3387 298.695 72.1307 298.695 73.128V74.36L298.475 74.58H296.187C295.747 74.58 295.439 74.5067 295.263 74.36C295.116 74.2133 295.043 73.876 295.043 73.348C295.043 72.7027 295.234 72.0427 295.615 71.368C295.996 70.6933 296.583 70.1067 297.375 69.608C298.196 69.08 299.047 68.64 299.927 68.288C300.836 67.936 301.804 67.76 302.831 67.76C303.858 67.76 304.855 67.9067 305.823 68.2C306.82 68.4933 307.627 68.992 308.243 69.696C308.859 70.3707 309.167 71.324 309.167 72.556V85.052C309.372 85.2573 309.666 85.4333 310.047 85.58C310.428 85.7267 310.956 85.8 311.631 85.8H313.303L313.435 85.888V86.02C313.083 86.6653 312.555 87.2373 311.851 87.736C311.176 88.2053 310.34 88.44 309.343 88.44C308.434 88.44 307.686 88.2053 307.099 87.736C306.542 87.2373 306.146 86.592 305.911 85.8H305.647C304.884 86.5627 303.931 87.1933 302.787 87.692C301.672 88.1907 300.499 88.44 299.267 88.44ZM297.903 82.984C297.903 84.8027 299.003 85.712 301.203 85.712C301.907 85.712 302.596 85.6387 303.271 85.492C303.975 85.3453 304.767 85.0813 305.647 84.7V78.188C303.3 78.628 301.584 79.0973 300.499 79.596C299.414 80.0653 298.71 80.5787 298.387 81.136C298.064 81.6933 297.903 82.3093 297.903 82.984ZM313.842 88V87.296L316.614 85.888V72.776L313.974 70.488V70.18L319.43 67.76H319.694L320.09 71.016H320.31C321.425 69.9013 322.496 69.08 323.522 68.552C324.578 68.024 325.737 67.76 326.998 67.76C328.729 67.76 330.137 68.2 331.222 69.08C332.337 69.9307 332.894 71.2067 332.894 72.908V85.888L335.666 87.296V88H326.25V87.296L329.374 85.888V74.976C329.374 73.6853 328.964 72.7027 328.142 72.028C327.35 71.3533 326.309 71.016 325.018 71.016C324.226 71.016 323.346 71.148 322.378 71.412C321.44 71.676 320.692 72.0573 320.134 72.556V85.888L323.258 87.296V88H313.842ZM346.536 88.44C343.69 88.44 341.446 87.5747 339.804 85.844C338.161 84.1133 337.34 81.8253 337.34 78.98C337.34 76.78 337.78 74.844 338.66 73.172C339.569 71.4707 340.786 70.1507 342.312 69.212C343.837 68.244 345.553 67.76 347.46 67.76C348.633 67.76 349.777 67.9653 350.892 68.376C352.006 68.7573 352.857 69.2707 353.444 69.916C353.913 70.4733 354.148 70.9133 354.148 71.236C354.148 71.6467 353.957 71.9987 353.576 72.292L351.904 73.7H351.596L350.1 71.676C349.66 71.0893 349.102 70.62 348.428 70.268C347.782 69.8867 346.976 69.696 346.008 69.696C344.394 69.696 343.118 70.3413 342.18 71.632C341.27 72.8933 340.816 74.668 340.816 76.956C340.816 78.364 341.05 79.6987 341.52 80.96C341.989 82.192 342.766 83.204 343.852 83.996C344.966 84.7587 346.492 85.14 348.428 85.14C350.041 85.14 351.933 84.5533 354.104 83.38H354.236V83.82C353.561 85.0813 352.549 86.1667 351.2 87.076C349.88 87.9853 348.325 88.44 346.536 88.44ZM365.391 88.44C362.545 88.44 360.301 87.5747 358.659 85.844C357.016 84.1133 356.195 81.8253 356.195 78.98C356.195 76.78 356.62 74.844 357.471 73.172C358.351 71.4707 359.495 70.1507 360.903 69.212C362.34 68.244 363.895 67.76 365.567 67.76C367.884 67.76 369.703 68.5667 371.023 70.18C372.372 71.7933 373.047 74.1107 373.047 77.132L372.827 77.352H359.671C359.7 78.7013 359.964 79.9773 360.463 81.18C360.961 82.3533 361.753 83.3067 362.839 84.04C363.953 84.7733 365.435 85.14 367.283 85.14C368.896 85.14 370.788 84.5533 372.959 83.38H373.091V83.82C372.416 85.0813 371.404 86.1667 370.055 87.076C368.735 87.9853 367.18 88.44 365.391 88.44ZM364.863 69.696C363.455 69.696 362.296 70.1947 361.387 71.192C360.507 72.16 359.964 73.5387 359.759 75.328H369.703C369.38 73.3333 368.808 71.896 367.987 71.016C367.195 70.136 366.153 69.696 364.863 69.696ZM381.907 79.2L380.763 72.82C382.934 72.0573 384.62 71.1627 385.823 70.136C387.055 69.08 387.671 67.8333 387.671 66.396C387.671 64.3133 387.172 62.8173 386.175 61.908C385.207 60.9693 384.019 60.5 382.611 60.5C381.379 60.5 380.426 60.896 379.751 61.688C379.076 62.48 378.739 63.6533 378.739 65.208V66.968L378.387 67.408H376.583C376.026 67.408 375.6 67.3053 375.307 67.1C375.043 66.8947 374.911 66.4107 374.911 65.648C374.911 64.856 375.116 64.064 375.527 63.272C375.967 62.4507 376.642 61.732 377.551 61.116C378.578 60.3827 379.531 59.7667 380.411 59.268C381.291 58.7693 382.464 58.52 383.931 58.52C385.427 58.52 386.762 58.872 387.935 59.576C389.108 60.28 390.032 61.2187 390.707 62.392C391.382 63.5653 391.719 64.8707 391.719 66.308C391.719 68.1853 391.059 69.9013 389.739 71.456C388.448 72.9813 386.248 74.4333 383.139 75.812L382.787 79.2H381.907ZM382.347 88.22C381.614 88.22 380.983 87.956 380.455 87.428C379.927 86.8707 379.663 86.24 379.663 85.536C379.663 84.8027 379.927 84.172 380.455 83.644C380.983 83.116 381.614 82.852 382.347 82.852C383.051 82.852 383.667 83.116 384.195 83.644C384.752 84.172 385.031 84.8027 385.031 85.536C385.031 86.24 384.752 86.8707 384.195 87.428C383.667 87.956 383.051 88.22 382.347 88.22Z" fill="black"/>
<path fill-rule="evenodd" clip-rule="evenodd" d="M316.297 457.18C299.121 461.115 281.944 465.051 264.767 468.987C262.349 469.54 259.931 470.094 257.513 470.648C258.232 447.412 258.952 424.176 259.671 400.939C259.775 397.584 259.879 394.227 259.983 390.871C256.003 394.524 251.826 398.025 248.017 401.871C243.143 406.795 238.455 411.891 233.438 416.668C224.806 424.885 215.739 432.854 205.744 439.199C194.884 446.093 182.356 450.528 169.746 452.059C165.101 452.623 160.895 452.485 156.294 451.983C152.289 451.545 148.286 451.108 144.281 450.671C142.669 450.494 141.055 450.318 139.443 450.142C139.053 450.1 137.785 450.195 137.474 449.92C136.909 449.422 136.615 447.157 136.393 446.437C135.466 443.441 134.545 440.445 133.63 437.446C131.144 429.295 128.692 421.132 126.324 412.943C124.297 405.932 122.165 398.891 120.651 391.733C120.473 390.894 120.084 389.796 120.15 388.928C120.245 387.661 119.673 387.927 121.267 387.909C125.013 387.866 128.974 388.821 132.724 389.1C136.585 389.387 140.455 389.558 144.326 389.599C164.826 389.817 188.42 387.488 205.027 373.573C210.595 368.908 216.188 363.515 220.503 357.517C226.587 349.06 229.903 337.799 230.711 327.363C231.619 315.637 229.733 303.543 226.986 292.192C226.43 289.895 226.555 289.036 227.033 286.632C227.429 284.637 227.825 282.641 228.222 280.646C228.332 280.092 228.451 277.764 228.888 277.422C229.652 276.826 233.339 277.481 234.234 277.493L245.342 277.638C252.495 277.732 259.648 277.826 266.801 277.92C270.516 277.968 274.227 278.577 277.919 278.98C285.832 279.842 293.746 280.704 301.659 281.566C303.245 281.739 304.831 281.912 306.417 282.085C305.401 291.527 304.385 300.969 303.367 310.41C302.61 317.451 305.253 324.432 306.661 331.314C309.835 346.82 312.926 362.551 314.103 378.385C315.21 393.294 315.198 408.363 315.559 423.308C315.832 434.598 316.08 445.888 316.297 457.18Z" fill="#FF6161"/>
<path fill-rule="evenodd" clip-rule="evenodd" d="M205.862 172.216C205.862 171.349 206.108 170.742 206.572 170.023C207.644 171 209.323 175.84 211.109 172.715C211.464 172.094 211.481 169.779 212.699 170.501C213.272 170.84 213.115 172.474 213.075 173.028C212.93 174.999 212.076 177.75 209.65 177.637C207.174 177.523 205.795 174.372 205.862 172.216Z" fill="black"/>
<path fill-rule="evenodd" clip-rule="evenodd" d="M207.356 167.885C203.238 168.681 204.881 164.798 207.897 164.476C209.015 164.356 210.943 164.419 210.678 166.149C210.444 167.68 208.444 167.674 207.356 167.885Z" fill="black"/>
<path fill-rule="evenodd" clip-rule="evenodd" d="M195.948 180.681C194.652 180.81 192.516 178.894 194.668 178.661C195.662 178.553 197.75 180.501 195.948 180.681Z" fill="black"/>
<path fill-rule="evenodd" clip-rule="evenodd" d="M422.005 203.387C421.013 204.183 418.04 201.622 417.068 201.17C413.284 199.407 408.934 198.433 404.868 197.673C396.817 196.169 388.566 195.322 380.393 195.052C375.407 194.888 370.687 195.07 365.756 195.627C364.528 195.766 356.223 197.219 356.02 194.832C355.663 190.641 377.633 190.84 379.725 190.847C389.237 190.881 397.828 191.988 407.067 194.161C409.567 194.749 424.936 201.033 422.005 203.387Z" fill="black"/>
<path fill-rule="evenodd" clip-rule="evenodd" d="M159.35 272.634C154.347 274.186 148.64 273.974 143.946 271.474C143.14 271.045 141.18 270.132 142.218 269.06C143.335 267.907 146.464 269.863 147.682 270.114C153.594 271.33 161.091 268.92 165.279 264.4C167.357 262.157 168.53 259.323 169.025 256.27C169.307 254.529 169.452 252.687 169.351 250.921C169.244 249.051 168.514 247.041 169.002 245.18C171.183 246.535 171.209 250.106 171.364 252.411C171.56 255.318 171.543 258.113 170.764 260.945C169.161 266.776 164.859 270.926 159.35 272.634Z" fill="black"/>
<path fill-rule="evenodd" clip-rule="evenodd" d="M69.9658 427.96C70.1248 428.405 70.2743 428.821 70.4491 429.311C71.1235 428.012 71.1235 428.012 69.9658 427.96ZM76.2538 461.887C78.7562 463.099 81.544 459.843 82.8759 458.03C85.0965 455.006 86.0844 451.521 86.9596 447.88C87.9282 443.853 89.0469 439.872 89.9469 435.825C90.3473 434.021 90.7303 432.212 91.1801 430.42C91.5528 428.937 92.941 426.295 92.3565 424.755C91.3687 422.152 86.5158 421.435 86.8466 417.943C87.1502 414.735 92.4903 418.161 93.7724 418.842C96.7014 420.398 95.1784 418.434 93.7635 417.297C92.6912 416.435 87.7041 412.702 90.3147 410.82C92.009 409.598 95.6943 413.319 97.0983 414.004C98.5729 414.724 99.11 414.535 100.305 413.267C101.156 412.364 102.42 411.222 103.077 410.187C104.701 407.627 102.526 402.611 102.192 399.679C102.117 399.027 102.586 395.451 102.151 395.027C101.579 394.471 99.1313 394.862 98.2318 394.721C95.0061 394.212 91.8238 393.829 88.5932 393.406C86.4591 393.126 80.1114 391.442 78.8549 393.762C77.8577 395.602 78.1771 399.134 78.1766 401.101C78.1751 405.243 78.1628 409.296 77.7891 413.45C76.9726 422.523 76.3599 431.591 75.573 440.665C75.1909 445.069 74.4005 449.422 74.0041 453.825C73.7582 456.555 73.3697 460.491 76.2538 461.887ZM124.844 394.883C127.214 401.095 129.173 407.495 131.223 413.827C132.171 416.754 133.045 419.711 134.007 422.632C134.928 425.432 136.41 427.953 137.17 430.816C138.605 436.222 139.812 441.591 141.511 446.905C141.756 447.67 141.612 449.364 142.051 449.905C142.591 450.57 144.98 450.471 145.826 450.583C149.286 451.04 152.782 451.391 156.274 451.238C153.007 446.92 149.342 442.955 145.586 439.093C142.296 435.712 137.854 431.872 137.318 426.719C136.606 419.872 143.42 421.248 147.66 421.663C153.574 422.242 160.278 424.755 166.197 423.362C162.094 417.546 155.876 413.209 150.726 408.474C148.717 406.627 146.604 404.598 145.578 401.941C145.056 400.587 144.796 399.026 145.151 397.588C145.581 395.843 146.537 395.525 147.923 394.7C139.706 394.7 131.396 394.393 123.569 391.435C123.258 392.81 124.404 393.728 124.844 394.883ZM161.58 449.753C163.015 451.799 165.6 451.242 167.728 451.113C170.852 450.923 173.967 450.525 177.034 449.869C180.13 449.206 183.236 448.318 186.189 447.129C186.81 446.879 188.744 446.308 188.971 445.524C189.177 444.815 187.985 443.36 187.725 442.818C186.897 441.088 186.486 438.006 188.357 436.772C189.902 435.753 192.183 436.774 193.742 437.255C196.049 437.968 198.803 439.408 201.146 438.313C204.137 436.915 207.098 434.905 209.91 433.144C204.831 428.306 199.842 423.372 194.634 418.682C189.863 414.387 184.116 409.443 181.134 403.525C180.011 401.297 179.284 398.138 180.661 395.817C181.896 393.735 184.386 393.662 186.485 393.853C192.72 394.42 198.863 396.043 204.997 397.255C207.061 397.663 220.346 400.893 220.381 397.379C220.389 396.621 219.013 394.894 218.661 394.292C217.863 392.925 217.048 391.573 216.186 390.249C214.176 387.164 211.992 384.212 209.826 381.249C208.733 379.754 207.336 376.638 205.244 376.97C204.29 377.121 203.334 378.235 202.565 378.811C201.238 379.804 199.863 380.723 198.451 381.577C192.744 385.028 186.442 386.78 180.093 388.408C178.653 388.777 171.777 389.519 171.102 391.008C170.765 391.751 171.541 393.508 171.562 394.312C171.592 395.523 171.337 396.78 170.703 397.806C168.86 400.783 164.832 400.627 161.865 400.538C158.097 400.426 154.238 400.231 150.487 400.714C154.219 404.334 158.091 407.79 161.987 411.212C164.732 413.624 167.791 415.909 169.949 418.946C171.796 421.544 173.17 425.968 170.811 428.768C168.287 431.765 162.595 430.437 159.393 429.927C155.66 429.331 151.96 428.602 148.26 427.825C147.006 427.562 145.711 427.258 144.429 427.187C142.896 427.103 142.334 427.012 143.396 428.503C146.035 432.208 150.003 434.871 152.781 438.489C154.089 440.193 155.614 441.55 156.99 443.185C158.704 445.222 160.049 447.57 161.58 449.753ZM212.933 429.508C214.737 431.43 216.772 428.697 218.234 427.444C220.425 425.565 222.564 423.62 224.788 421.783C229.001 418.303 233.386 415.075 237.346 411.268C238.595 410.068 240.646 408.725 241.025 406.886C241.509 404.541 240.347 402.444 241.534 400.086C243.785 395.62 248.437 399.274 251.472 396.703C253.031 395.382 254.129 393.466 255.358 391.831C256.82 389.885 258.687 387.997 259.529 385.653C260.405 383.216 260.52 382.049 258.89 379.988C257.133 377.769 255.002 375.741 253.593 373.243C252.622 371.522 251.83 368.992 253.355 367.327C254.588 365.981 256.721 366.344 258.316 366.447C260.638 366.598 262.948 366.825 265.23 367.308C267.034 367.69 270.479 368.689 272.211 367.651C276.295 365.203 268.952 358.898 267.325 357.027C263.691 352.846 259.88 348.84 256.1 344.806C252.606 341.075 249.077 337.34 245.795 333.399C243.353 330.466 240.49 326.326 241.8 322.185C242.862 318.828 246.436 318.722 249.28 318.955C253.446 319.298 257.591 320.013 261.738 320.532C264.83 320.919 270.779 322.136 273.417 319.56C276.143 316.898 270.323 308.988 268.818 306.619C265.639 301.612 261.976 296.965 258.181 292.463C256.338 290.277 254.459 288.124 252.579 285.972C250.948 284.103 249.452 281.748 247.577 280.143C245.526 278.388 242.464 278.594 239.951 278.33C237.308 278.051 234.498 277.641 231.841 277.651C229.421 277.66 230.019 280.103 229.917 282.22C229.893 282.728 229.241 287.228 229.975 287.299C230.055 286.297 230.135 285.295 230.216 284.292C232.282 285.182 233.815 287.095 235.417 288.651C237.016 290.202 239.186 291.782 239.861 294.064C241.765 300.506 234.167 298.221 230.984 297.567C231.7 304.883 233.485 311.995 234.468 319.262C234.881 322.308 234.713 325.064 234.391 328.092C234.208 329.818 234.229 331.56 234.029 333.285C233.87 334.654 233.262 336.218 233.505 337.594C233.949 340.111 236.98 342.754 238.327 344.884C240.115 347.71 241.692 350.773 242.518 354.072C244.012 360.027 241.468 364.309 235.525 364.882C232.845 365.14 229.879 364.706 227.223 364.309C224.941 363.968 222.026 362.193 219.944 363.798C219.091 364.455 218.504 365.619 217.757 366.422C216.673 367.585 215.455 368.624 214.258 369.655C213.13 370.628 210.044 372.357 210.348 373.847C210.577 374.971 212.437 376.576 213.067 377.408C213.894 378.498 214.714 379.593 215.512 380.707C217.537 383.536 219.469 386.458 221.216 389.485C223.331 393.147 226.3 399.691 222.723 403.486C220.651 405.684 217.211 405.297 214.57 404.864C210.969 404.274 207.392 403.515 203.855 402.601C200.314 401.686 196.744 401.048 193.16 400.35C190.1 399.756 186.54 398.619 183.48 399.796C192.42 410.708 203.346 419.283 212.933 429.508ZM265.088 379.035C266.237 377.626 267.414 376.061 268.432 374.537C269.369 373.134 269.292 372.522 267.713 372.085C266.729 371.813 265.637 372.079 264.634 371.956C263.589 371.828 262.547 371.476 261.524 371.234C260.375 370.963 259.086 370.551 257.9 370.554C256.564 370.557 256.433 370.43 257.104 371.69C258.025 373.416 259.807 374.925 261.077 376.364C261.876 377.269 263.788 380.629 265.088 379.035ZM263.61 398.822C264.215 400.216 268.573 399.194 269.274 398.234C270.806 396.136 266.885 391.251 265.855 389.483C264.3 390.564 263.762 391.992 263.669 393.878C263.605 395.184 263.094 397.634 263.61 398.822ZM261.969 468.125C264.573 468.394 267.984 466.82 270.369 465.955C273.672 464.758 277.106 463.904 280.514 463.107C287.358 461.505 294.432 461.282 301.296 459.745C296.934 453.795 291.66 448.669 287.228 442.782C285.62 440.648 283.257 437.588 284.003 434.66C284.734 431.789 287.562 432.424 289.662 433.086C292.48 433.973 295.202 435.209 297.956 436.285C299.259 436.794 305.076 439.723 306.152 437.824C306.878 436.542 302.748 431.767 302.146 430.941C299.896 427.858 297.455 424.936 294.995 422.036C290.405 416.627 285.195 411.092 281.645 404.85C278.984 400.171 278.093 392.786 285.279 393.081C288.246 393.204 291.269 394.168 294.163 394.802C296.838 395.388 300.79 396.683 303.519 395.96C306.392 395.198 303.088 390.702 302.183 389.218C300.272 386.083 298.028 383.155 295.923 380.161C293.658 376.941 291.243 373.79 289.125 370.462C287.808 368.391 285.671 364.778 286.868 362.16C288.242 359.155 292.961 361.013 295.272 361.468C299.649 362.332 303.942 363.77 308.438 363.77C308.393 361.404 306.081 359.324 304.751 357.646C302.754 355.126 300.698 352.685 298.515 350.34C296.979 348.691 295.3 346.004 293.504 344.733C291.666 343.434 290.58 347.543 289.857 349.071C284.59 360.213 278.834 371.136 271.732 381.131C270.302 383.143 268.204 384.768 269.403 387.337C270.651 390.009 272.297 392.347 272.777 395.363C273.131 397.59 272.945 400.687 271.31 402.379C269.724 404.019 267.396 403.647 265.438 404.288C263.358 404.97 263.945 406.902 263.927 408.837C263.895 412.221 263.855 415.603 263.875 418.986C263.892 421.994 263.932 425.001 263.966 428.008C264.002 431.188 264.741 433.441 265.569 436.436C266 437.995 266.148 439.607 265.671 441.174C265.262 442.521 264.589 442.779 263.799 443.732C262.261 445.586 262.753 449.111 262.564 451.469C262.429 453.159 260.177 467.939 261.969 468.125ZM268.376 504.281C269.031 505.143 271.381 504.868 272.298 504.931C274.04 505.051 275.784 505.051 277.526 505.15C281.243 505.361 284.912 505.904 288.641 505.972C291.705 506.029 294.88 506.185 297.824 506.404C299.276 506.513 300.906 505.853 302.318 506.162C303.709 506.468 304.24 506.893 305.746 506.767C309.498 506.452 313.336 506.848 317.094 506.945C320.57 507.035 324.076 506.759 327.558 506.71C331.475 506.656 335.401 506.806 339.318 506.848C343.509 506.893 347.787 506.632 351.925 507.467C351.542 505.621 351.568 503.446 350.146 502.066C348.689 500.652 346.274 500.33 344.399 500.1C341.669 499.764 338.962 499.687 336.238 499.566C334.536 499.49 332.898 498.885 331.206 498.683C328.78 498.393 326.168 498.561 323.723 498.519C322.884 498.505 322.327 498.18 321.558 498.057C320.655 497.912 319.772 498.155 318.787 497.903C316.745 497.38 314.662 496.833 312.681 496.134C311.471 495.708 311.521 495.347 310.529 496.336C309.908 496.956 309.527 498.129 309.002 498.859C308.136 500.063 306.586 501.503 305.251 500.054C303.835 498.518 305.352 496.795 305.038 495.201C304.795 493.97 302.564 492.889 301.451 493.353C299.909 493.996 299.452 497.334 297.802 497.712C295.726 498.187 296.286 494.894 296.568 493.668C297.304 490.459 297.04 490.354 294.597 488.218C292.734 486.589 292.213 485.953 289.902 487.171C287.573 488.397 285.029 488.931 282.433 489.224C279.366 489.571 276.506 489.208 273.505 488.565C272.093 488.262 269.34 487.126 268.418 488.681C267.377 490.433 268.447 494.725 268.485 496.753C268.514 498.265 268.601 499.82 268.464 501.328C268.393 502.107 267.847 503.584 268.376 504.281ZM305.992 458.507C308.148 458.31 310.26 457.711 312.41 457.438C313.193 457.339 314.875 457.369 315.523 456.788C316.315 456.077 315.944 456.147 315.782 455.113C315.013 450.198 314.72 445.439 314.833 440.444C314.918 436.706 315.614 430.891 313.489 427.641C310.986 423.81 307.182 420.976 304.643 417.133C303.27 415.055 301.354 409.475 305.701 409.625C307.431 409.684 309.279 410.834 310.958 411.259C313.334 411.862 313.479 411.257 313.269 408.999C312.776 403.699 312.923 398.376 312.407 393.074C311.876 387.623 311.308 382.168 310.724 376.722C310.44 374.077 310.311 371.275 309.821 368.668C309.344 366.134 306.997 367.498 304.944 367.395C299.505 367.121 294.219 363.625 288.754 364.172C293.31 373.136 301.081 379.945 305.502 389.027C307.03 392.166 308.452 397.076 304.685 399.172C300.486 401.507 294.077 398.548 289.757 397.796C288.245 397.533 282.239 395.693 281.96 398.145C281.81 399.465 284.254 402.553 284.865 403.507C286.258 405.682 287.861 407.699 289.367 409.786C292.376 413.953 295.954 417.58 299.074 421.659C301.796 425.217 305.135 428.704 307.328 432.651C309.387 436.355 309.783 443.031 303.995 442.301C298.069 441.554 292.915 436.707 286.875 436.565C289.962 440.831 293.486 444.715 296.912 448.675C298.561 450.581 300.179 452.513 301.742 454.498C302.743 455.768 304.117 458.678 305.992 458.507ZM314.079 419.845C313.948 418.071 314.358 417.08 312.822 416.108C311.832 415.481 309.493 414.508 308.407 414.939C308.817 415.438 313.508 421.318 314.009 420.844C314.134 420.524 314.157 420.191 314.079 419.845ZM305.903 338.247C305.621 334.835 304.965 331.46 304.824 328.036C304.729 325.72 305.044 322.639 303.548 320.708C301.738 324.259 300.521 328.099 298.713 331.652C297.939 333.172 297.077 334.64 296.276 336.144C295.729 337.172 294.126 339.38 294.252 340.606C294.467 342.699 298.435 345.698 299.72 347.193C302.458 350.377 305.139 353.618 307.936 356.746C307.558 350.546 306.413 344.433 305.903 338.247ZM305.981 282.801C305.225 281.688 299.954 282.214 298.816 282.108C295.236 281.776 291.346 281.48 287.881 280.472C293.382 287.609 298.326 295.336 301.558 303.905C302.784 300.404 303.591 296.759 304.341 293.118C304.721 291.266 305.048 289.407 305.332 287.536C305.461 286.689 306.47 283.522 305.981 282.801ZM289.182 335.03C290.655 335.801 295.124 324.267 295.322 322.989C293.203 323.497 284.766 323.911 284.27 326.714C284.039 328.024 285.481 329.605 286.111 330.552C286.883 331.712 287.963 334.393 289.182 335.03ZM275.793 323.29C272.672 327.39 266.848 326.561 262.492 325.978C259.542 325.583 256.619 325.052 253.678 324.597C250.776 324.148 247.255 323.318 244.44 324.571C249.005 331.3 254.881 336.864 260.429 342.666C263.273 345.641 266.021 348.715 268.756 351.801C271.438 354.828 273.577 358.638 276.422 361.442C278.837 356.818 281.122 352.123 283.45 347.451C284.428 345.488 285.686 343.721 286.69 341.781C287.795 339.644 287.965 338.66 286.554 336.723C284.454 333.84 281.502 329.934 281.924 326.061C282.417 321.54 287.541 321.043 290.895 320.068C292.581 319.578 294.516 319.206 296.058 318.314C298.016 317.179 298.104 315.306 298.752 313.274C299.536 310.814 300.254 309.216 299.427 306.629C298.738 304.476 297.707 302.339 296.755 300.304C294.752 296.027 292.249 292.09 289.595 288.234C287.85 285.7 285.793 280.644 282.672 279.967C280.458 279.487 277.664 279.684 275.393 279.553C272.745 279.399 270.094 279.313 267.445 279.193C261.955 278.944 256.076 278.399 250.612 279.159C257.046 286.453 263.55 293.564 269.273 301.508C272.959 306.625 280.823 316.68 275.793 323.29ZM300.416 268.11C297.432 262.308 294.661 256.57 290.621 251.504C287.127 247.122 283.958 242.55 280.331 238.271C272.723 229.294 262.85 222.66 253.645 215.685C251.562 214.106 248.898 213.246 246.612 211.869C243.785 210.166 240.755 208.745 237.695 207.568C232.143 205.433 225.769 204.344 219.857 204.777C213.323 205.256 208.393 207.676 204.337 213.02C200.36 218.258 199.744 224.039 199.636 230.622C199.585 233.75 199.548 236.897 199.577 240.025C199.606 243.122 199.989 245.079 201.798 247.464C203.287 249.427 206.424 250.418 208.564 251.326C211.475 252.56 214.2 253.936 216.917 255.596C218.092 256.315 220.882 259.018 222.332 258.731C224.467 258.308 224.991 254.334 225.203 252.57C225.998 245.973 225.913 239.226 225.528 232.597C225.331 229.202 223.825 224.101 224.678 220.666C225.032 219.238 225.841 218.732 226.841 219.992C228.076 221.551 228.38 225.21 228.699 227.09C229.824 233.711 229.75 240.368 229.786 247.063C229.801 249.723 231.218 251.103 232.146 253.473C233.333 256.504 234.305 259.667 234.89 262.887C235.231 264.756 235.471 266.661 235.445 268.568C235.431 269.615 234.939 271.28 235.322 272.275C236.067 274.205 240.689 273.126 242.238 273.09C249.143 272.929 256.029 272.543 262.945 272.45C276.947 272.261 291.048 274.442 304.76 277.211C303.339 274.163 301.952 271.097 300.416 268.11ZM294.398 237.134C295.495 237.322 299.181 239.435 299.817 238.096C300.361 236.951 297.671 232.852 297.27 231.76C296.337 229.225 296.11 226.395 295.561 223.748C295.215 222.081 295.182 218.785 294.321 217.299C293.36 215.637 291.117 216.472 289.525 216.522C286.811 216.606 284.069 216.605 281.352 216.595C278.589 216.585 275.828 216.509 273.065 216.518C270.241 216.527 267.451 216.035 264.649 216.035C264.963 217.1 266.278 217.619 267.103 218.12C268.374 218.892 269.444 219.809 270.559 220.817C273.171 223.177 275.775 225.064 277.965 227.88C279.944 230.425 282.708 233.147 285.165 235.194C286.48 236.289 287.38 236.201 288.974 236.187C290.88 236.17 292.538 236.815 294.398 237.134ZM301.163 231.463C301.849 233.667 301.914 234.314 304.138 234.157C306.997 233.955 309.864 233.768 312.728 233.55C319.262 233.054 325.802 232.03 332.337 231.685C337.909 231.39 343.926 230.685 349.462 231.294C352.046 231.577 354.801 231.031 357.436 231.139C360.617 231.27 363.829 231.256 366.873 232.283C369.409 233.14 371.528 233.603 373.341 235.818C375.167 238.049 376.414 240.862 377.628 243.487C379.982 248.577 381.824 255.222 385.965 259.077C387.01 260.051 388.796 261.704 390.318 261.521C392.821 261.219 392.054 257.742 391.833 255.979C391.092 250.036 388.867 244.9 387.207 239.224C386.711 237.527 385.727 233.046 388.298 232.421C390.148 231.972 393.054 236.239 394.117 237.386C396.458 239.91 398.749 242.359 401.366 244.581C403.527 246.416 405.698 248.443 408.684 248.049C407.255 244.008 405.679 240.095 403.338 236.529C401.329 233.469 397.943 230.714 396.687 227.193C395.741 224.542 396.579 220.925 399.52 223.258C402.074 225.283 404.285 227.761 406.897 229.751C410.323 232.36 414.212 234.524 418.274 235.814C419.618 236.241 422.003 237.068 423.291 236.049C425.211 234.53 423.252 231.361 422.174 229.965C412.061 216.871 395.245 212.175 379.9 211.188C375.9 210.93 371.741 211.344 367.725 211.403C363.915 211.459 360.379 211.948 356.614 212.532C348.797 213.745 340.964 214.731 333.181 215.942C331.098 216.266 328.626 216.908 326.552 216.824C325.697 216.789 325.253 216.549 324.401 216.788C323.674 216.993 323.151 217.401 322.34 217.539C317.728 218.319 313.034 218.623 308.361 218.685C306.113 218.715 303.842 218.67 301.611 218.362C300.297 218.18 298.952 217.607 298.582 219.244C298.302 220.478 299.234 222.816 299.554 224.004C300.207 226.434 300.432 229.11 301.163 231.463ZM217.559 189.137C218.345 189.168 219.64 189.292 219.896 188.261C220.377 186.321 217.904 187.505 217.445 186.284C216.934 184.924 218.676 184.571 219.444 184.352C221.01 183.903 220.607 183.999 220.65 182.294C220.689 180.721 221.174 179.289 221.782 177.864C222.628 175.885 222.671 175.985 220.774 175.757C217.582 175.375 216.886 172.419 215.705 169.714C214.976 168.044 214.169 166.416 213.716 164.633C213.44 163.551 213.478 161.832 212.47 161.222C211.109 160.399 207.938 161.25 206.504 161.448C204.106 161.778 201.585 162.153 199.292 162.997C197.326 163.72 196.577 165.398 194.804 165.696C193.659 165.887 186.762 165.434 187.668 167.65C188.232 169.031 190.895 168.242 191.876 168.201C193.13 168.148 194.658 167.953 195.9 168.21C197.142 168.467 197.258 168.954 197.743 170.251C196.58 170.19 192.227 169.508 191.276 170.405C190.432 171.201 191.055 172.074 191.904 172.367C193.56 172.938 195.798 171.83 197.535 172.306C198.772 172.645 198.686 172.691 199.196 173.994C199.461 174.673 199.764 175.368 199.876 176.099C200.515 180.227 196.905 177.023 195.405 176.109C192.659 174.436 189.683 174.749 190.216 178.766C190.392 180.096 191.076 181.259 191.953 182.218C193.191 183.569 193.511 183.824 193.575 185.865C193.629 187.622 193.45 189.501 194.043 191.188C194.696 193.046 196.089 194.629 197.177 196.215C198.483 198.12 199.834 200.001 201.094 201.94C201.637 202.776 202.412 204.878 203.459 205.157C204.443 205.418 205.97 203.761 206.786 203.287C208.763 202.137 210.935 201.389 212.967 200.36C211.264 198.772 209.748 196.97 208.08 195.375C206.778 194.13 206.104 193.893 206.533 191.789C207.497 187.071 214.266 189.007 217.559 189.137ZM191.952 288.281C186.57 293.747 178.567 297.163 171.287 298.539C163.66 299.98 154.964 301.047 147.534 298.261C139.917 295.403 132.794 291.295 126.345 286.184C125.552 285.555 116.67 276.46 115.954 277.178C118.593 281.321 121.362 285.362 124.159 289.389C125.534 291.366 130.286 298.174 127.553 300.637C125.743 302.268 122.665 299.64 121.179 298.586C117.602 296.049 113.617 294.683 109.269 294.683C111.278 298.55 114.332 301.974 115.965 306.059C116.737 307.989 116.344 307.849 114.6 307.324C112.418 306.668 109.943 305.909 107.666 305.801C106.607 305.751 104.458 306.239 104.278 307.689C104.107 309.077 106.916 311.694 107.7 312.687C110.572 316.33 113.5 319.786 117.052 322.723C123.869 328.361 131.962 331.995 140.199 334.695C148.614 337.453 157.608 338.284 166.211 336.064C170.474 334.964 174.383 333.472 178.201 331.245C179.929 330.237 181.747 329.78 183.409 328.595C185.136 327.365 186.886 326.137 188.649 324.965C192.279 322.553 194.529 320.126 197.062 316.501C198.081 315.043 199.48 313.962 200.451 312.527C201.52 310.945 202.621 309.334 203.619 307.669C208.219 299.992 212.726 291.74 215.408 283.086C216.79 278.624 217.729 274.033 218.889 269.506C219.289 267.948 220.762 264.952 220.454 263.369C220.158 261.843 217.855 261.224 216.714 260.576C213.385 258.688 210.045 257.011 206.796 255.002C202.309 252.227 203.104 257.918 202.813 261.203C201.949 270.971 198.819 281.308 191.952 288.281ZM229.909 292.015C230.856 292.866 233.252 293.394 234.463 293.006C233.269 291.141 231.429 289.917 229.881 288.416C229.712 289.448 228.963 291.165 229.909 292.015ZM224.131 358.384C226.31 358.551 228.585 359.237 230.746 359.255C232.673 359.271 235.112 359.436 236.985 359.002C242.152 357.804 239.097 352.901 237.299 349.702C236.304 347.933 235.047 346.349 234.01 344.611C233.759 344.192 233.065 342.481 232.51 342.424C231.694 342.339 231.44 343.742 231.047 344.601C229.982 346.927 228.998 349.33 227.79 351.579C226.575 353.841 224.879 355.87 224.131 358.384ZM168.237 392.805C167.79 390.203 160.531 392.846 158.888 393.156C158.417 393.245 152.73 393.972 152.781 394.49C154.664 394.637 168.793 396.044 168.237 392.805ZM69.519 450.895C68.4068 451.403 68.4463 447.691 68.3949 447.199C68.2912 446.207 68.1609 444.42 68.6418 443.549C68.9947 442.91 69.0984 443.234 69.288 443.066C70.8406 441.685 68.9656 441.095 68.6166 439.994C68.509 439.656 68.4991 438.724 68.6595 438.442C69.1177 437.632 69.245 438.238 69.7895 437.899C70.1549 437.671 70.8959 438.233 70.6816 437.196C70.5049 436.341 69.8809 436.866 69.5684 436.598C68.3801 435.58 68.5011 434.244 68.6916 432.616C68.8723 431.071 69.0466 429.416 69.4805 427.953C69.7032 427.202 70.0068 427.541 69.9826 426.653C69.9697 426.19 69.2988 425.733 69.2766 425.151C69.25 424.427 69.8898 423.266 69.9258 422.504C69.9732 421.502 69.9821 420.632 69.8754 419.686C69.8103 419.106 69.6637 418.895 69.6331 418.189C69.6049 417.524 69.7436 416.745 69.757 416.052C69.7945 414.085 70.0448 412.107 70.3746 410.226C70.5681 409.931 70.7201 409.614 70.8322 409.274C70.7552 408.921 70.6263 408.591 70.4461 408.282C70.3963 407.382 70.4126 406.504 70.4229 405.592C70.4422 403.899 70.1341 402.293 70.0398 400.624C70.0122 400.128 69.8261 399.302 70.1544 398.844C70.4047 398.495 71.28 398.581 71.3762 398.245C71.6527 397.285 70.8248 397.858 70.6456 397.372C70.5019 396.982 70.575 396.468 70.5513 396.076C70.4846 395.016 71.9405 387.81 73.2014 388.747C72.6988 388.373 73.6847 385.892 74.0046 385.472C75.1933 383.91 75.9032 385.679 76.8674 386.777C78.2166 388.314 79.3911 387.325 81.1436 386.978C83.3133 386.55 85.6978 386.701 87.8971 386.751C90.1518 386.802 92.4385 386.935 94.6842 387.143C97.1022 387.367 99.4442 388.133 101.886 388.095C105.506 388.038 109.173 388.127 112.79 387.991C113.514 387.963 115.265 388.043 115.569 387.078C115.683 386.715 115.03 385.954 114.931 385.554C114.742 384.787 114.728 383.779 115.051 383.027C116.026 380.76 118.055 382.611 119.485 383.435C121.638 384.676 123.87 385.732 126.248 386.404C135.735 389.079 146.927 388.93 156.614 387.667C166.45 386.384 176.175 383.279 185.765 380.735C194.522 378.413 202.604 373.263 209.326 366.963C216.178 360.54 221.585 351.632 224.97 342.69C228.741 332.728 225.998 322.698 225.902 312.508C225.854 307.426 224.776 302.467 224.481 297.401C224.194 292.489 224.595 287.878 226.001 283.07C226.359 281.845 226.863 280.614 227.124 279.361C227.366 278.2 226.938 277.269 227.08 276.175C227.385 273.832 229.855 274.07 230.935 272.328C231.913 270.751 230.906 268.297 230.559 266.606C229.957 263.669 229.209 260.769 228.52 257.854C227.809 259.589 227.145 261.321 226.715 263.16C226.605 263.631 226.595 264.463 226.287 264.881C226.065 265.184 225.504 265.145 225.328 265.424C224.735 266.365 224.803 267.31 224.701 268.52C224.501 270.869 224.138 273.192 223.77 275.516C222.532 283.323 221.589 291.018 218.664 298.389C213.272 311.971 205.989 324.609 195.218 334.244C190.337 338.609 184.13 341.324 178.222 343.625C171.175 346.369 164.472 347.855 156.907 347.143C149.768 346.472 142.633 344.147 136.093 341.134C129.652 338.165 123.604 335.552 118.105 330.77C112.228 325.659 106.359 319.49 102.317 312.651C100.843 310.156 98.2184 305.01 98.8617 301.886C99.6866 297.881 105.556 300.522 107.676 301.352C105.892 298.291 101.118 292.841 103.491 289.023C106.957 283.452 116.025 289.094 119.739 291.159C117.825 287.078 114.9 283.649 112.827 279.666C111.8 277.693 108.961 269.669 113.132 269.234C114.395 269.103 115.736 270.614 116.628 271.372C118.359 272.844 120.077 274.332 121.795 275.822C125.549 279.079 129.511 281.849 133.835 284.206C142.487 288.926 150.857 291.432 160.684 290.428C169.057 289.573 178.29 286.905 184.802 281.118C188.711 277.643 191.82 273.798 193.828 268.804C196.047 263.289 197.46 257.231 199.012 251.477C196.607 250.828 194.921 251.205 195.385 248.205C195.942 244.609 195.819 240.971 195.84 237.321C195.882 229.756 196.015 222.107 198.272 214.847C198.674 213.555 199.028 212.224 199.72 211.06C200.574 209.626 201.366 209.412 200.267 207.848C198.153 204.837 195.955 202.263 194.386 198.803C193.57 197.004 192.813 195.241 191.807 193.559C190.158 190.8 188.002 188.776 185.885 186.387C183.456 183.644 181.553 181.058 180.304 177.535C179.72 175.89 178.925 174.254 178.623 172.517C178.264 170.446 178.637 168.328 178.807 166.256C179.372 159.381 181.573 153.834 188.02 151.148C193.258 148.966 199.281 148.026 204.773 149.713C211.418 151.756 214.567 157.869 217.731 163.784C218.624 165.452 219.173 167.217 219.983 168.91C220.812 170.646 221.673 170.648 223.202 171.353C226.231 172.748 225.974 176.772 224.659 179.418C222.988 182.78 223.326 186.674 221.886 190.183C220.411 193.777 218.122 194.778 214.631 195.584C215.962 196.692 217.175 198.141 218.872 198.615C220.931 199.19 223.425 198.641 225.557 198.673C229.982 198.738 234.458 199.367 238.663 200.85C242.792 202.306 246.494 204.637 250.333 206.722C252.088 207.676 253.725 209.036 255.73 209.312C257.676 209.581 259.636 209.078 261.593 209.342C265.883 209.92 270.587 209.191 274.963 209.091C279.675 208.984 284.405 209.052 289.108 208.691C291.14 208.535 293.147 208.311 295.185 208.497C297.038 208.665 298.143 208.208 299.745 209.537C300.81 210.421 301.658 212.583 302.913 212.878C304.251 213.193 306.886 212.313 308.207 212.104C312.649 211.402 317.126 210.474 321.54 209.617C323.608 209.216 325.558 208.485 327.644 208.107C329.797 207.717 332.033 207.59 334.16 207.089C337.601 206.277 341.318 205.974 344.907 205.455C349.11 204.848 353.432 203.566 357.668 203.404C375.399 202.726 395.274 201.622 410.996 211.929C414.687 214.349 418.481 217.44 421.324 220.902C423.937 224.082 427.145 228.29 427.811 232.528C428.407 236.31 427.972 242.937 423.147 242.983C418.443 243.029 413.609 240.084 409.56 237.903C411.289 242.249 416.544 251.557 411.983 255.777C407.276 260.132 398.609 250.682 395.5 247.648C396.115 252.292 400.501 269.166 392.2 269.428C384.098 269.683 379.397 259.212 376.511 252.995C374.987 249.714 373.85 245.858 371.376 243.187C368.888 240.502 365.439 240.591 362.073 240.247C353.889 239.413 345.75 239.37 337.519 239.163C327.101 238.902 316.869 240.702 306.438 239.685C306.569 241.794 305.805 245.632 303.767 246.439C300.765 247.63 297.082 245.919 294.009 245.919C294.215 247.208 295.966 248.567 296.704 249.54C298.026 251.285 299.164 253.156 300.227 255.083C302.305 258.846 304.515 262.615 305.99 266.694C306.732 268.746 307.366 270.862 307.901 272.983C308.208 274.203 308.203 276.026 308.826 277.104C309.599 278.444 310.787 277.671 311.768 278.721C313.181 280.237 311.706 281.035 311.261 282.371C310.778 283.817 311.384 286.265 311.2 287.854C310.925 290.24 310.632 292.643 310.255 295.013C309.565 299.346 308.1 303.353 307.12 307.583C306.19 311.595 308.707 315.838 309.537 319.719C310.502 324.224 311.062 328.781 312.052 333.278C313.098 338.025 313.583 342.914 314.304 347.722C315.008 352.421 316.022 357.062 316.711 361.763C318.022 370.723 318.855 379.846 319.888 388.842C320.43 393.558 320.847 398.335 320.887 403.087C320.925 407.537 321.523 411.882 321.611 416.324C321.704 421.032 321.756 425.743 321.95 430.447C322.142 435.1 321.592 439.733 321.39 444.379C321.294 446.593 321.223 448.812 321.255 451.028C321.281 452.899 321.77 455.089 321.327 456.92C320.453 460.54 315.593 462.715 312.543 463.768C308.814 465.056 304.877 465.946 301.059 466.898C299.199 467.361 297.315 467.756 295.424 468.047C294.689 468.16 293.837 468.114 293.15 468.442C292.116 468.936 292.319 468.687 292.265 469.921C292.176 471.914 292.733 474.097 293.022 476.05C293.289 477.849 292.949 480.807 293.612 482.419C294.367 484.253 299.685 485.755 300.986 484.511C301.904 483.633 302.167 481.975 303.248 481.237C304.805 480.172 305.52 481.663 305.513 483.265C305.507 484.472 304.636 485.929 305.683 486.811C306.591 487.575 308.504 487.175 309.381 486.546C310.842 485.496 313.873 479.003 314.614 484.526C314.789 485.827 314.254 487.343 315.306 488.33C316.292 489.256 318.669 489.214 319.913 489.38C321.898 489.643 323.636 489.731 325.64 489.686C327.877 489.636 329.99 490.186 332.188 490.29C335.615 490.451 339.053 490.937 342.557 491.008C346.133 491.081 350.031 492.061 352.782 494.605C355.941 497.526 355.29 501.137 354.688 505.05C354.29 507.637 357.439 510.433 354.261 512.695C352.986 513.603 350.868 513.411 349.402 513.425C346.897 513.449 344.42 513.143 341.912 513.29C323.643 514.356 305.305 513.561 287.04 512.929C282.773 512.782 278.341 512.987 274.111 512.447C272.226 512.206 270.355 511.862 268.466 511.65C266.851 511.469 264.921 511.768 263.378 511.217C259.557 509.855 263.646 505.709 263.95 503.341C264.542 498.745 264.291 493.874 264.32 489.243C264.35 484.319 264.32 479.395 264.32 474.471C262.288 474.619 256.586 476.197 254.993 474.369C253.676 472.857 255.917 469.7 256.027 467.885C256.475 460.487 256.324 453.08 256.856 445.675C257.406 438.038 257.338 430.469 257.567 422.831C257.81 414.672 258.363 406.542 258.363 398.372C252.678 404.682 247.248 411.611 240.926 417.236C238.218 419.645 235.269 421.73 232.441 423.976C229.255 426.507 226.289 429.323 223.121 431.878C217.228 436.632 210.22 439.411 203.995 443.637C197.701 447.909 190.986 451.428 183.741 453.543C175.821 455.855 167.422 456.623 159.226 456.18C155.294 455.967 151.382 455.438 147.509 454.697C145.895 454.388 144.297 453.985 142.682 453.682C140.398 453.253 139.284 453.653 137.146 454.092C134.336 454.669 133.636 450.365 132.803 448.296C131.267 444.48 130.602 440.31 129.242 436.407C126.865 429.582 124.674 422.834 122.57 415.893C122.093 414.318 121.775 411.587 119.984 411.365C118.775 411.215 116.692 412.629 115.507 413.02C113.446 413.698 111.492 414.003 109.346 414.059C107.537 414.106 107.32 414.817 106.189 416.167C105.153 417.404 103.281 418.113 103.633 419.91C103.841 420.974 104.919 421.795 105.12 422.997C105.843 427.31 101.713 423.581 100.262 422.639C99.3825 424.671 106.025 426.929 103.604 429.807C102.419 431.217 99.9478 429.076 98.7684 428.528C96.0176 427.252 95.5995 430.724 94.8669 432.973C93.5226 437.104 92.6226 441.438 91.5923 445.664C90.6 449.736 89.7929 453.897 88.2269 457.785C86.8313 461.249 84.4009 463.511 82.6651 466.64C81.8111 468.179 80.8677 469.289 79.0213 469.362C77.7723 469.411 75.4619 468.896 74.282 468.397C73.1678 467.925 71.9598 466.489 71.1807 465.588C70.0991 464.337 70.3128 463.127 69.4371 461.595C69.4751 462.364 69.6385 463.08 69.678 463.831C68.0795 462.512 69.673 460.437 69.3828 458.764C69.2914 458.234 68.7706 457.79 68.741 457.235C68.7281 457.007 69.1922 456.483 69.2233 456.166C69.2603 455.79 69.2895 454.699 69.1878 454.42C69.1142 454.22 68.4991 453.199 68.5124 453.384C68.503 453.249 68.2858 453.036 68.4023 452.59C68.5786 451.917 69.6005 451.797 69.519 450.895Z" fill="black"/>
</svg>
