<svg height= "100%" width="100%" viewBox="0 0 183 46" fill="none" xmlns="http://www.w3.org/2000/svg">
<path d="M0.288 1.848H25.248V6.744H15.6V33H9.936V6.744H0.288V1.848ZM37.4985 12.456C38.2985 13.48 38.8905 14.664 39.2745 16.008C39.6905 17.352 39.8985 18.584 39.8985 19.704C39.8985 20.824 39.8345 21.832 39.7065 22.728H24.6345C24.6985 24.616 25.1625 26.152 26.0265 27.336C26.8905 28.52 28.2025 29.112 29.9625 29.112C32.2985 29.112 33.6905 28.088 34.1385 26.04H39.8505C39.4665 28.376 38.3945 30.216 36.6345 31.56C34.8105 32.968 32.5865 33.672 29.9625 33.672C26.8905 33.672 24.3145 32.552 22.2345 30.312C20.0905 27.976 19.0185 24.984 19.0185 21.336C19.0185 17.592 20.0905 14.584 22.2345 12.312C24.2825 10.136 26.8585 9.048 29.9625 9.048C33.1945 9.048 35.7065 10.184 37.4985 12.456ZM30.0105 13.56C28.4105 13.56 27.1625 14.088 26.2665 15.144C25.3705 16.168 24.8425 17.496 24.6825 19.128H34.6185C34.6185 16.6 33.8185 14.904 32.2185 14.04C31.6105 13.72 30.8745 13.56 30.0105 13.56ZM41.8796 0.0719976H47.5436V33H41.8796V0.0719976ZM67.9297 12.456C68.7297 13.48 69.3217 14.664 69.7057 16.008C70.1217 17.352 70.3297 18.584 70.3297 19.704C70.3297 20.824 70.2657 21.832 70.1377 22.728H55.0657C55.1297 24.616 55.5937 26.152 56.4577 27.336C57.3217 28.52 58.6337 29.112 60.3937 29.112C62.7297 29.112 64.1217 28.088 64.5697 26.04H70.2818C69.8977 28.376 68.8257 30.216 67.0658 31.56C65.2417 32.968 63.0177 33.672 60.3937 33.672C57.3217 33.672 54.7457 32.552 52.6657 30.312C50.5217 27.976 49.4497 24.984 49.4497 21.336C49.4497 17.592 50.5217 14.584 52.6657 12.312C54.7137 10.136 57.2897 9.048 60.3937 9.048C63.6257 9.048 66.1377 10.184 67.9297 12.456ZM60.4417 13.56C58.8417 13.56 57.5937 14.088 56.6977 15.144C55.8017 16.168 55.2737 17.496 55.1137 19.128H65.0497C65.0497 16.6 64.2497 14.904 62.6497 14.04C62.0417 13.72 61.3057 13.56 60.4417 13.56ZM93.0469 14.088C94.5509 10.728 97.1909 9.048 100.967 9.048C103.751 9.048 105.911 9.992 107.447 11.88C108.919 13.672 109.655 16.168 109.655 19.368V33H103.943V19.368C103.943 17.64 103.527 16.344 102.695 15.48C101.863 14.584 100.695 14.136 99.1909 14.136C97.6869 14.136 96.4549 14.792 95.4949 16.104C94.5349 17.416 94.0229 19.4 93.9589 22.056V33H88.2949V19.368C88.2949 17.64 87.8789 16.344 87.0469 15.48C86.2149 14.584 85.0469 14.136 83.5429 14.136C82.0389 14.136 80.7429 14.808 79.6549 16.152C78.5989 17.496 78.0389 19.512 77.9749 22.2V33H72.3109V9.672H77.2549L77.8789 13.704C79.4149 10.6 81.8789 9.048 85.2709 9.048C87.2229 9.048 88.8389 9.496 90.1189 10.392C91.4309 11.288 92.4069 12.52 93.0469 14.088ZM129.345 12.456C130.145 13.48 130.737 14.664 131.121 16.008C131.537 17.352 131.745 18.584 131.745 19.704C131.745 20.824 131.681 21.832 131.553 22.728H116.481C116.545 24.616 117.009 26.152 117.873 27.336C118.737 28.52 120.049 29.112 121.809 29.112C124.145 29.112 125.537 28.088 125.985 26.04H131.697C131.313 28.376 130.241 30.216 128.481 31.56C126.657 32.968 124.433 33.672 121.809 33.672C118.737 33.672 116.161 32.552 114.081 30.312C111.937 27.976 110.865 24.984 110.865 21.336C110.865 17.592 111.937 14.584 114.081 12.312C116.129 10.136 118.705 9.048 121.809 9.048C125.041 9.048 127.553 10.184 129.345 12.456ZM121.857 13.56C120.257 13.56 119.009 14.088 118.113 15.144C117.217 16.168 116.689 17.496 116.529 19.128H126.465C126.465 16.6 125.665 14.904 124.065 14.04C123.457 13.72 122.721 13.56 121.857 13.56ZM146.878 32.424C144.766 33.256 143.102 33.672 141.886 33.672C140.67 33.672 139.598 33.528 138.67 33.24C137.774 32.952 136.974 32.52 136.27 31.944C134.798 30.632 134.062 28.824 134.062 26.52V13.464H130.798V9.672H134.062V3.528H139.726V9.672H146.062V13.464H139.726V26.328C139.726 28.248 140.638 29.208 142.462 29.208C143.39 29.208 144.59 28.952 146.062 28.44L146.878 32.424ZM153.528 14.28C154.936 10.92 157.048 9.24 159.864 9.24C160.408 9.24 161.096 9.352 161.928 9.576L161.832 15.24C160.936 15.048 160.056 14.952 159.192 14.952C155.416 14.952 153.528 17.56 153.528 22.776V33H147.864V9.624H153.528V14.28ZM165.913 9.672L171.529 26.472L176.425 9.672H182.185L173.257 37.224C172.329 40.008 171.193 42.008 169.849 43.224C168.537 44.44 166.857 45.048 164.809 45.048C162.729 45.048 160.649 44.536 158.569 43.512V38.52C160.233 39.576 161.913 40.104 163.609 40.104C164.729 40.104 165.641 39.656 166.345 38.76C167.081 37.864 167.673 36.696 168.121 35.256L168.841 33L159.481 9.672H165.913Z" fill="black"/>
</svg>
