<svg viewBox="0 0 608 480" fill="none" xmlns="http://www.w3.org/2000/svg">
<g clip-path="url(#clip0)">
<path fill-rule="evenodd" clip-rule="evenodd" d="M117.201 44.1421C112.285 41.7045 105.732 44.5315 108.466 50.9754C111.394 57.8758 122.22 57.961 128.335 57.8242C127.723 57.7922 125.752 51.4644 125.077 50.5082C123.088 47.6875 120.223 45.6433 117.201 44.1421ZM173.839 167.859C175.079 168.919 173.94 167.958 173.839 167.859V167.859ZM112.465 75.3527C109.589 77.5516 109.451 81.4341 111.801 84.0621C114.599 87.1907 119.709 87.0767 123.523 86.7719C125.248 86.6338 134.46 85.8962 132.276 84.3887C132.444 84.4521 132.795 84.6061 133.17 84.8154C133.372 85.5536 133.585 86.2891 133.806 87.0214C133.751 87.0531 133.705 87.0871 133.647 87.1186C133.71 87.0911 133.754 87.0614 133.809 87.0335C136.025 94.3526 139.178 101.322 143.307 107.842C141.762 107.233 140.162 106.773 138.539 106.568C133.733 105.96 123.624 109.695 128.999 116.093C134.154 122.227 142.178 115.646 148.028 114.739C153.702 122.658 159.958 130.247 166.514 137.583C166.113 137.709 165.76 137.971 165.558 138.379C162.928 137.045 160.187 135.136 157.753 134.619C154.24 133.874 147.038 133.423 144.383 136.567C141.117 140.433 144.618 143.573 148.475 144.315C154.069 145.39 161.392 142.657 166.775 140.81C167.391 140.919 168.063 140.739 168.464 140.247C168.583 140.208 168.702 140.169 168.818 140.132C175.457 147.432 182.351 154.491 189.202 161.395C189.129 161.391 189.056 161.387 188.98 161.383C187.193 160.211 185.276 159.249 183.198 158.745C178.391 157.574 172.735 157.568 168.835 161.046C164.949 164.509 163.572 170.566 167.592 174.455C175.639 182.239 187.494 164.49 191.552 163.749C198.515 170.692 205.877 177.179 213.355 183.534C212.506 183.276 211.635 183.086 210.735 183C203.402 182.298 186.191 191.288 195.19 200.133C203.032 207.84 212.109 193.005 218.428 187.817C225.475 193.741 232.56 199.624 239.446 205.737C235.69 204.74 232.061 204.593 228.035 205.809C223.869 207.07 217.146 210.216 219.78 215.84C222.459 221.56 230.531 218.957 234.735 217.141C237.029 216.151 241.626 212.808 245.663 211.4C256.651 221.774 266.169 233.2 273.375 246.661C277.873 255.065 281.287 264.044 283.69 273.273C285.223 279.163 288.245 289.056 287.64 296.723C290.524 281.377 285.31 262.946 279.693 249.229C274.529 236.616 266.8 225.543 257.747 215.576C260.019 208.743 279.14 198.888 267.709 192.54C261.639 189.184 255.422 194.753 254.095 200.652C253.183 204.705 254.572 209.798 256.046 213.733C253.198 210.694 250.237 207.754 247.187 204.911C242.971 200.982 238.654 197.166 234.295 193.399C241.477 186.652 248.274 167.364 238.645 164.21C224.425 159.565 231.272 185.874 232.264 190.806C232.546 190.822 232.765 190.737 232.927 190.555C232.847 191.006 232.754 191.489 232.641 191.976C224.3 184.803 215.835 177.772 207.648 170.428C208.386 169.883 209.558 167.8 210.48 166.691C212.56 164.192 214.549 161.581 216.004 158.657C218.301 154.037 220.516 146.666 214.427 143.949C207.805 140.988 204.658 149.323 204.611 154.296C204.58 157.735 205.517 161.002 206.004 164.373C206.157 165.424 205.57 170.163 207.002 168.125C206.934 168.876 206.925 169.421 206.958 169.807C205.488 168.482 204.03 167.142 202.581 165.793C202.648 165.623 202.698 165.437 202.709 165.222C202.787 163.739 201.295 163.168 200.249 163.602C198.337 161.785 196.443 159.945 194.583 158.069C190.642 154.093 186.643 150.004 182.672 145.828C183.534 145.087 183.191 144.062 183.997 143.277C184.801 142.493 186.386 142.059 187.331 141.331C189.711 139.498 191.684 136.828 193.11 134.2C195.466 129.858 198.51 120.75 191.629 118.681C184.536 116.544 180.935 125.312 180.479 130.794C180.39 131.856 181.185 141.424 181.794 144.899C174.446 137.138 167.219 129.085 160.672 120.892C162.657 120.874 168.285 116.806 169.423 115.696C172.2 112.989 176.613 107.008 171.746 103.842C167.418 101.035 162.083 105.101 160.232 109.053C159.928 109.704 158.856 115.761 158.772 118.479C156.062 115.004 153.477 111.51 151.072 108.004C149.468 105.673 147.969 103.28 146.567 100.837C146.904 100.646 147.222 100.312 147.522 99.897C154.74 98.672 163.942 87.4099 155.464 83.4915C151.427 81.6283 147.05 85.4743 145.072 88.6232C144.667 89.2674 144.011 92.5062 143.477 95.0609C139.443 86.9665 136.359 78.3972 134.013 69.611C134.641 69.4549 135.173 68.975 135.243 68.1493C138.748 66.1515 141.515 64.4879 143.962 60.6461C145.481 58.2599 148.218 52.808 143.753 51.4835C137.941 49.7602 134.291 58.6364 133.816 63.0084C133.76 63.5159 133.762 64.9919 133.781 66.3445C133.58 66.3169 133.376 66.3201 133.176 66.3554C131.841 60.9149 130.776 55.4043 129.928 49.8845C133.1 48.8636 133.649 32.2056 131.537 29.8337C126.816 24.5227 123.486 32.1946 123.738 36.2494C124.036 41.0305 126.202 45.3796 128.782 49.2393C129.059 49.6481 128.98 49.6283 129.051 49.0589C129.091 49.3403 129.185 49.548 129.325 49.6985C129.192 52.2151 128.932 54.7917 129.057 57.0187C129.414 63.3961 130.157 69.8107 131.236 76.106C131.498 77.6371 131.798 79.1557 132.135 80.6612C129.586 78.4892 126.148 76.5594 124.803 75.956C121.313 74.3913 115.933 72.7019 112.465 75.3527ZM288.05 296.745C287.888 298.968 287.486 301.005 286.737 302.684C287.299 300.772 287.73 298.785 288.05 296.745Z" fill="#F2F2F2"/>
<g opacity="0.7">
<path opacity="0.7" fill-rule="evenodd" clip-rule="evenodd" d="M212.822 194.77C226.474 194.062 243.359 202.031 244.815 216.871C245.873 227.653 245.545 238.405 247.183 249.172C248.492 257.776 251.261 266.036 255.038 273.874C258.67 281.411 266.203 287.827 268.162 295.879C269.411 301.01 268.712 308.227 266.99 313.245C264.896 319.347 266.009 318.865 270.182 323.985C278.359 334.018 285.723 344.307 290.93 356.29C298.43 373.55 303.348 393.725 300.564 412.618C300.21 415.017 299.79 423.627 296.486 424.229C292.796 424.902 294.522 419.978 294.719 418.387C295.974 408.238 297.089 399.367 295.575 389.059C289.732 349.288 261.201 323.085 242.623 289.331C241.602 287.59 239.446 283.445 237.947 280.711C235.58 276.393 233.201 268.179 229.997 264.977C223.963 258.947 229.511 271.071 230.686 273.385C232.173 276.313 233.808 279.425 235.332 281.99C242.302 293.882 250.082 306.862 257.28 319.121C226.147 326.214 204.221 288.785 195.866 264.178C188.982 243.905 180.746 196.505 212.822 194.77Z" fill="#69A1AC"/>
<path opacity="0.7" fill-rule="evenodd" clip-rule="evenodd" d="M395.805 157.121C372.983 158.932 358.331 173.992 351.511 195.056C347.835 206.407 347.413 218.068 345.37 229.734C342.297 247.284 335.686 260.585 322.764 273.089C318.762 276.961 315.812 280.937 313.716 285.191C309.554 289.438 305.931 294.244 303.269 300.12C299.869 307.624 298.907 316.628 302.832 324.109C303.888 326.121 306.521 330.158 309.25 331.992C299.033 353.752 293.415 377.584 294.048 401.386C294.431 415.753 295.132 430.127 295.951 444.477C296.171 448.33 297.426 454.693 299.31 448.231C301.035 442.32 298.872 433.041 298.672 426.867C297.698 396.786 296.866 369.435 309.248 341.331C310.547 338.385 311.924 335.463 313.357 332.565C313.442 332.516 313.52 332.457 313.599 332.4C313.653 332.442 313.703 332.487 313.758 332.529C313.849 332.365 313.975 332.171 314.121 331.954C314.532 331.529 314.891 330.993 315.233 330.395C316.331 328.873 317.574 327.084 317.581 326.105C317.581 326.098 317.577 326.086 317.577 326.078C325.242 313.565 334.022 301.742 342.99 290.149C342.923 290.234 352.718 276.897 351.204 284.272C350.474 287.827 343.269 294.595 340.359 298.36C333.922 306.735 326.363 317.348 320.082 327.61C319.237 328.096 318.043 330.48 317.179 332.257C316.702 333.157 316.257 334.064 315.82 334.855C338.077 342.208 355.39 327.396 367.196 310.168C367.21 310.147 367.223 310.126 367.236 310.106C370.829 305.346 374.509 300.619 379.107 296.856C386.777 290.576 394.992 289.468 404.036 286.378C428.7 277.951 439.186 245.987 442.516 222.27C446.274 195.513 427.894 154.483 395.805 157.121Z" fill="#89C5CC"/>
<path opacity="0.7" fill-rule="evenodd" clip-rule="evenodd" d="M350.723 82.1905C327.299 106.569 315.982 140.383 307.022 172.172C297.014 207.676 290.403 243.728 290.149 280.642C289.983 304.895 289.323 329.299 290.739 353.523C291.241 362.126 292.099 370.745 293.462 379.255C293.575 379.955 296.626 398.958 299.545 394.53C301.205 392.012 296.417 374.817 296.056 371.953C294.021 355.822 293.548 339.573 293.647 323.326C293.81 296.575 293.021 269.962 295.733 243.31C296.137 239.33 296.457 235.151 297.402 231.258C298.406 227.119 297.127 228.926 300.396 227.287C303.573 225.694 307.498 225.922 310.794 223.924C323.866 215.997 330.553 195.635 335.758 182.275C341.711 166.998 345.329 150.706 348.219 134.628C350.341 122.816 351.858 111.075 352.716 99.1101C352.987 95.3392 353.003 91.3959 353.744 87.6881C353.944 86.6879 354.945 84.9186 354.909 84.0329C354.832 82.1583 353.701 81.0559 353.608 79.4807C352.627 80.3631 351.665 81.2671 350.723 82.1905Z" fill="#89C5CC"/>
<path opacity="0.7" fill-rule="evenodd" clip-rule="evenodd" d="M223 407C223 447.317 255.683 480 296 480C336.317 480 369 447.317 369 407" fill="#89C5CC"/>
<path opacity="0.7" fill-rule="evenodd" clip-rule="evenodd" d="M301.857 407.232H298C298.268 402.393 298.621 397.562 299.43 392.776C302.525 374.473 312.2 347.591 333.42 344.62C334.203 344.51 337.083 344.491 340.571 344.696C342.224 343.772 344.076 343.213 346.028 343.085C364.095 341.753 384.271 356.329 392.986 371.497C400.012 383.726 398.828 399.785 394.489 412.778C391.583 421.476 385.241 433.878 374.665 433.999C361.433 434.15 360.795 417.796 360.539 408.236C360.199 395.525 358.593 384.453 348.577 375.789C346.243 373.771 343.692 371.995 341.334 370.005C337.642 366.89 333.562 363.7 333.086 358.546C332.43 351.436 336.443 350.156 342.571 351.477C343.616 351.702 354.139 356.424 352.581 352.692C352.105 351.552 350.368 350.648 348.175 349.971C342.501 349.354 335.733 348.638 333.787 349.066C312.792 353.672 304.617 382.755 302.446 401.233C302.212 403.227 302.023 405.228 301.857 407.232V407.232Z" fill="#69A1AC"/>
</g>
</g>
<g clip-path="url(#clip1)">
<path fill-rule="evenodd" clip-rule="evenodd" d="M477.406 192.749C481.41 187.341 484.121 180.712 483.668 173.285C482.363 151.884 456.472 156.592 451.436 167.393C446.399 178.194 446.998 205.592 453.507 207.523C456.103 208.293 461.632 206.407 467.26 202.504L463.728 231.259H484.586L477.406 192.749Z" fill="#B28B67"/>
<path fill-rule="evenodd" clip-rule="evenodd" d="M456.136 160.271C456.614 159.943 457.614 159.251 458.12 159C458.24 158.939 459.079 158.251 459.101 158.259C459.737 158.506 461.576 159.416 461.734 160.203C461.759 160.263 461.783 160.319 461.806 160.368C462.067 160.913 462.306 161.472 462.534 162.037C463.035 163.279 463.467 164.576 463.88 165.864C464.684 168.371 465.382 170.936 466.024 173.508C466.678 176.126 467.233 178.774 467.854 181.402C468.748 185.185 469.892 188.874 470.78 192.655C471.347 195.069 471.662 197.512 471.513 199.996C471.512 200.026 471.511 200.056 471.508 200.086C471.508 200.098 471.506 200.111 471.505 200.123C471.48 200.505 471.444 200.888 471.396 201.272C471.354 201.6 471.311 201.93 471.266 202.259C470.456 200.399 469.836 198.349 469.18 196.403C469.115 196.213 469.054 196.021 468.994 195.828C468.782 195.434 468.566 195.042 468.348 194.652C466.971 192.191 465.588 189.739 464.267 187.233C461.892 182.727 459.538 178.125 456.722 173.987C455.89 172.765 455.039 171.562 454.218 170.33C453.751 169.629 453.296 168.916 452.855 168.191C452.54 167.672 451.172 165.864 451.667 164.777C451.921 164.221 454.897 161.122 456.136 160.271Z" fill="#2C2C2C"/>
<path fill-rule="evenodd" clip-rule="evenodd" d="M457.969 159.09C457.504 159.27 457.731 158.158 458.181 157.766C460.265 155.953 468.236 155.294 475.173 156.951C479.819 158.061 485.223 160.823 488.935 164.375C492.281 167.576 494.582 172.708 495.766 177.667C497.01 182.874 497.199 188.302 496.506 193.641C496.353 194.813 496.026 195.931 495.844 197.079C495.639 198.372 495.533 199.616 495.167 200.874C494.943 201.644 494.563 202.399 494.371 203.173C494.153 204.057 494.286 204.874 494.445 205.773C494.705 207.238 495.026 208.699 495.483 210.098C496.17 212.199 497.002 214.167 497.525 216.347C498.219 219.247 501.126 228.686 499.002 231.259H458.572C459.59 228.064 462.646 224.304 463.265 220.883C463.629 218.868 463.802 214.468 463.84 214.308C464.751 207.082 466.53 203.631 467.645 202.378C468.759 201.126 470.243 200.741 470.319 199.655C470.635 195.162 469.083 190.857 467.944 186.663C466.587 181.666 465.592 176.544 464.193 171.564C463.574 169.358 460.382 158.158 457.969 159.09Z" fill="#8991DC"/>
<path fill-rule="evenodd" clip-rule="evenodd" d="M472.144 164.259C473.669 169.825 473.997 172.796 473.669 180.401H474.417C475.814 173.225 474.57 166.468 473.084 164.259H472.144ZM492.598 178.624C489.757 186.556 488.461 191.24 480.528 197.658L481.14 198.152C489.016 193.016 491.31 186.89 493.195 178.954L492.598 178.624ZM480.925 170.552C479.634 181.81 479.257 188.241 472.535 200.557L473.25 200.809C480.169 190.085 481.265 181.333 481.592 170.613L480.925 170.552ZM488.35 203.996L487.738 203.14C479.388 206.149 480.319 212.362 469.802 218.653L470.681 219.266C479.889 214.893 482.042 205.515 488.35 203.996Z" fill="black" fill-opacity="0.2"/>
<path fill-rule="evenodd" clip-rule="evenodd" d="M522.286 356.259H455.143L446.346 480.259H546.293L522.286 356.259Z" fill="#C5CFD6"/>
<path fill-rule="evenodd" clip-rule="evenodd" d="M522.286 356.259H501.636L489.276 480.259H546.293L522.286 356.259Z" fill="black" fill-opacity="0.1"/>
<path fill-rule="evenodd" clip-rule="evenodd" d="M378.596 335.015C371.437 330.069 359.426 336.424 359.435 343.498C359.459 364.662 376.246 464.41 377.123 470.716C377.999 477.022 387.388 478.687 387.935 470.737C388.805 458.086 390.421 414.292 388.804 394.022C388.136 385.655 387.418 377.686 386.71 370.577C395.518 388.88 409.141 415.085 427.579 449.193L437.588 443.931C429.728 414.135 423.283 393.1 418.253 380.826C409.64 359.809 401.564 341.811 398.166 335.471C392.819 325.499 383.513 328.978 378.596 335.015Z" fill="#B28B67"/>
<path fill-rule="evenodd" clip-rule="evenodd" d="M436.872 427.385L402.519 333.747C394.289 318.514 371.214 336.846 374.021 345.681C380.393 365.739 412.798 430.674 414.697 436.649L436.872 427.385Z" fill="#020624"/>
<path fill-rule="evenodd" clip-rule="evenodd" d="M439.124 437.824C441.201 439.725 442.543 441.291 443.151 442.52C443.89 444.015 444.74 446.35 445.701 449.526C444.108 450.6 429.793 460.249 402.755 478.472C399.652 475.208 399.224 472.605 401.47 470.664C403.716 468.723 405.571 467.088 407.033 465.758L422.203 442.616C422.495 442.171 423.038 442.055 423.416 442.358C423.422 442.363 423.429 442.368 423.435 442.374L426.394 444.897C429.179 444.528 431.268 443.874 432.659 442.936C433.79 442.174 435.106 440.624 436.606 438.287L436.606 438.287C437.182 437.39 438.267 437.147 439.029 437.743C439.062 437.768 439.093 437.795 439.124 437.824Z" fill="#E4E4E4"/>
<path fill-rule="evenodd" clip-rule="evenodd" d="M390.133 465.661C391.105 468.648 391.592 470.882 391.592 472.365C391.592 474.168 391.331 476.8 390.808 480.259C388.99 480.259 372.65 480.259 341.789 480.259C340.515 475.414 341.25 472.798 343.995 472.412C346.74 472.025 349.019 471.676 350.835 471.365L373.618 459.678C374.057 459.453 374.571 459.68 374.766 460.184C374.769 460.193 374.773 460.202 374.776 460.21L376.24 464.298C378.781 465.662 380.846 466.344 382.434 466.344C383.725 466.344 385.507 465.744 387.781 464.545L387.781 464.545C388.654 464.084 389.685 464.525 390.086 465.529C390.103 465.573 390.119 465.617 390.133 465.661Z" fill="#E4E4E4"/>
<path fill-rule="evenodd" clip-rule="evenodd" d="M357.027 350.692C357.027 377.259 367.992 439.23 367.999 445.079L391.592 445.1C388.138 389.805 386.914 361.859 387.918 361.264C389.425 360.37 449.669 368.184 467.738 368.184C493.792 368.184 504.57 349.28 505.445 314.259H453.832C443.323 315.553 388.507 328.275 368.15 332.648C359.435 334.52 357.027 343.374 357.027 350.692Z" fill="#0E1759"/>
<path fill-rule="evenodd" clip-rule="evenodd" d="M410.283 301.72L385.663 329.355C378.5 332.87 372.63 336.753 368.055 341.001C367.026 342.429 365.906 345.166 370.747 343.941C375.588 342.717 380.728 341.679 381.638 343.491C382.548 345.302 379.867 348.078 381.548 350.449C382.67 352.029 386.44 347.002 392.859 335.367L418.461 318L410.283 301.72ZM530.675 276.709L511.644 276.791C526.139 330.825 533.833 359.116 534.727 361.665C536.738 367.399 532.483 376.133 530.663 380.826C536.59 383.878 535.958 372.576 543.436 376.579C550.261 380.232 555.452 386.852 563.337 381.254C564.307 380.565 565.369 377.974 562.802 375.949C556.408 370.904 547.192 362.074 545.947 359.168C544.249 355.204 539.159 327.718 530.675 276.709Z" fill="#B28B67"/>
<path fill-rule="evenodd" clip-rule="evenodd" d="M472.684 214.591L465.169 213.108C453.33 261.26 392.502 294.082 388.768 312.083C387.398 318.684 391.527 322.021 389.395 324.031L399.163 332.259C400.817 330.039 404.347 334.101 411.719 331.259C419.091 328.418 472.684 271.607 472.684 214.591Z" fill="#DB2721"/>
<path fill-rule="evenodd" clip-rule="evenodd" d="M460.042 220.993C460.909 284.742 428.88 301.004 436.014 326.578C441.905 347.696 498.295 370.398 508.052 349.697C512.002 341.318 513.794 331.183 513.998 320.165C516.491 328.63 518.464 335.917 519.915 342.027C522.418 352.567 532.121 354.242 532.121 358.303L544.906 354.242C544.038 348.726 550.065 346.04 548.449 333.716C541.209 278.499 521.755 238.474 490.088 213.64L489.761 208.25C489.627 206.046 487.966 204.384 486.05 204.538L462.641 206.422C460.726 206.576 459.282 208.487 459.416 210.691L460.042 220.993Z" fill="#FF4133"/>
</g>
<g clip-path="url(#clip2)">
<path fill-rule="evenodd" clip-rule="evenodd" d="M180.081 98.2902C183.528 110.992 188.02 139.544 183.436 144.022H154.436C154.433 143.971 154.43 143.92 154.427 143.868C143.679 142.679 135.319 133.566 135.319 122.5V101.5C135.319 89.6259 144.945 80 156.819 80H158.819C169.602 80 178.531 87.9385 180.081 98.2902Z" fill="#191847"/>
<path fill-rule="evenodd" clip-rule="evenodd" d="M146.581 118.49C141.973 113.081 138.854 106.453 139.376 99.0255C140.877 77.625 170.667 82.3328 176.462 93.1339C182.257 103.935 181.568 131.333 174.079 133.263C171.092 134.033 164.73 132.147 158.254 128.244L162.319 157H138.319L146.581 118.49Z" fill="#D4A181"/>
<path fill-rule="evenodd" clip-rule="evenodd" d="M153.069 114.875C154.175 126.753 153.732 140.317 150.436 143.537H121.436C119.82 115.463 135.436 126.335 135.436 99.9028C136.41 98.9515 137.33 98.01 138.24 97.1981L138.208 96.4207C143.229 86.1402 149.6 81 157.32 81C168.9 81 172.555 86.3883 175.667 90.9631C173.34 98.9482 164.309 100.132 156.285 105.11C155.339 104.341 154.133 103.88 152.819 103.88C149.781 103.88 147.319 106.343 147.319 109.38C147.319 112.418 149.781 114.88 152.819 114.88C152.903 114.88 152.986 114.879 153.069 114.875Z" fill="#191847"/>
<path fill-rule="evenodd" clip-rule="evenodd" d="M99.7266 338.088C123.716 344.798 144.413 348.153 161.818 348.153C179.224 348.153 195.39 342.986 210.319 332.653C186.843 325.766 167.51 322.323 152.319 322.323C137.128 322.323 119.597 327.578 99.7266 338.088Z" fill="#333333"/>
<path fill-rule="evenodd" clip-rule="evenodd" d="M182.586 357.824C182.354 357.477 182.159 357.098 182.004 356.689C178.797 348.208 127.436 256.726 122.319 240H180.145C184.035 252.717 201.546 332.52 204.01 348.442C211.785 373.557 227.794 454.895 229.838 460.53C231.988 466.458 219.891 472.633 216.668 465.346C211.538 453.75 199.317 421.665 193.876 402.074C188.775 383.708 184.621 367.184 182.586 357.824Z" fill="#BA8B72"/>
<path fill-rule="evenodd" clip-rule="evenodd" d="M161.494 379.874C141.809 393.985 65.7901 435.38 60.9195 439.101C55.9092 442.93 46.3908 433.242 52.3763 427.981C61.9003 419.611 88.844 398.331 105.902 387.266C119.622 378.365 132.257 370.537 140.823 365.494C129.965 340.131 102.225 279.925 99.3179 265.71L146.94 247C149.728 260.631 167.499 361.102 167.665 371.793C167.863 375.555 165.132 378.325 161.494 379.874Z" fill="#D4A181"/>
<path fill-rule="evenodd" clip-rule="evenodd" d="M51.666 424.685C48.5345 425.289 46.3363 425.978 45.0714 426.751C43.533 427.692 41.4449 429.321 38.807 431.639C39.8985 433.423 49.7076 449.462 68.2345 479.755C73.1329 478.477 74.9231 476.391 73.6051 473.495C72.2871 470.6 71.216 468.18 70.3919 466.236L66.6843 437.774C66.6129 437.226 66.1111 436.84 65.5635 436.911C65.5541 436.913 65.5447 436.914 65.5354 436.916L61.1691 437.611C58.4803 435.828 56.6591 434.158 55.7055 432.599C54.9307 431.332 54.3723 429.269 54.0304 426.411L54.0305 426.411C53.8992 425.315 52.9038 424.532 51.807 424.663C51.7598 424.669 51.7127 424.676 51.666 424.685Z" fill="#E4E4E4"/>
<path fill-rule="evenodd" clip-rule="evenodd" d="M212.997 464.402C211.878 467.388 211.319 469.623 211.319 471.106C211.319 472.909 211.619 475.54 212.22 479C214.312 479 233.113 479 268.622 479C270.088 474.155 269.241 471.539 266.084 471.152C262.926 470.766 260.303 470.417 258.214 470.106L231.999 458.419C231.494 458.194 230.903 458.421 230.678 458.925C230.674 458.934 230.671 458.942 230.667 458.951L228.982 463.039C226.059 464.403 223.683 465.085 221.855 465.085C220.371 465.085 218.32 464.485 215.703 463.285L215.703 463.285C214.699 462.825 213.512 463.266 213.052 464.27C213.032 464.313 213.014 464.357 212.997 464.402Z" fill="#E4E4E4"/>
<path fill-rule="evenodd" clip-rule="evenodd" d="M119.319 240C141.866 233.549 163.199 233.549 183.319 240C190.319 271.937 207.328 284.613 210.319 333.579C176.319 350.473 134.319 321.53 99.3188 338.005C89.3188 314.961 103.319 259.464 119.319 240Z" fill="black"/>
<path fill-rule="evenodd" clip-rule="evenodd" d="M216.319 200.311L255.802 194.925C263.7 190.532 270.966 187.558 277.599 186.003C279.466 185.948 282.436 186.627 278.012 190.315C273.588 194.003 269.099 198.083 269.887 200.051C270.676 202.02 274.79 201.287 275.471 204.315C275.926 206.333 269.249 206.661 255.44 205.299L223.403 218L216.319 200.311ZM92.2886 209.45L114.186 209.532C90.1749 263.566 77.6551 291.857 76.6267 294.406C74.3128 300.14 79.2094 308.874 81.3034 313.567C74.4833 316.619 75.21 305.317 66.6067 309.319C58.754 312.973 52.7805 319.592 43.7078 313.994C42.5924 313.306 41.37 310.715 44.3233 308.69C51.6811 303.645 62.2841 294.815 63.7167 291.908C65.6703 287.945 75.1943 260.459 92.2886 209.45Z" fill="#D4A181"/>
<path fill-rule="evenodd" clip-rule="evenodd" d="M152.268 140L169.413 141.142C173.636 179.343 196.635 203.473 248.13 195.304L254.971 244.499C206.842 250.719 164.632 231.45 155.981 179.278C153.742 165.773 151.974 151.718 152.268 140Z" fill="#FEB8B8"/>
<path fill-rule="evenodd" clip-rule="evenodd" d="M143.81 135.016L169.786 140.965C169.786 185.644 184.019 214.15 191.319 247H121.162C120.174 258.351 119.567 270.018 119.251 282H66.7204C78.6241 218.664 103.749 169.664 142.095 135H143.796L143.81 135.016Z" fill="#FFD1D1"/>
<path fill-rule="evenodd" clip-rule="evenodd" d="M132.231 183.259C130.423 211.101 131.487 232.347 135.421 247H121.162C123.12 224.514 126.575 203.267 132.231 183.259V183.259Z" fill="black" fill-opacity="0.1"/>
</g>
<defs>
<clipPath id="clip0">
<rect width="336" height="452" fill="white" transform="translate(107 28)"/>
</clipPath>
<clipPath id="clip1">
<rect width="332" height="469" fill="white" transform="translate(276 11)"/>
</clipPath>
<clipPath id="clip2">
<rect width="380" height="480" fill="white"/>
</clipPath>
</defs>
</svg>
