<svg width="609" height="573" viewBox="0 0 609 573" fill="none" xmlns="http://www.w3.org/2000/svg">
<g clip-path="url(#clip0)">
<path fill-rule="evenodd" clip-rule="evenodd" d="M118.201 137.142C113.285 134.705 106.732 137.532 109.466 143.975C112.394 150.876 123.22 150.961 129.335 150.824C128.723 150.792 126.752 144.464 126.077 143.508C124.088 140.688 121.223 138.643 118.201 137.142ZM174.839 260.859C176.079 261.919 174.94 260.958 174.839 260.859V260.859ZM113.465 168.353C110.589 170.552 110.451 174.434 112.801 177.062C115.599 180.191 120.709 180.077 124.523 179.772C126.248 179.634 135.46 178.896 133.276 177.389C133.444 177.452 133.795 177.606 134.17 177.815C134.372 178.554 134.585 179.289 134.806 180.021C134.751 180.053 134.705 180.087 134.647 180.119C134.71 180.091 134.754 180.061 134.809 180.034C137.025 187.353 140.178 194.322 144.307 200.842C142.762 200.233 141.162 199.773 139.539 199.568C134.733 198.96 124.624 202.695 129.999 209.093C135.154 215.227 143.178 208.646 149.028 207.739C154.702 215.658 160.958 223.247 167.514 230.583C167.113 230.709 166.76 230.971 166.558 231.379C163.928 230.045 161.187 228.136 158.753 227.619C155.24 226.874 148.038 226.423 145.383 229.567C142.117 233.433 145.618 236.573 149.475 237.315C155.069 238.39 162.392 235.657 167.775 233.81C168.391 233.919 169.063 233.739 169.464 233.247C169.583 233.208 169.702 233.169 169.818 233.132C176.457 240.432 183.351 247.491 190.202 254.395C190.129 254.391 190.056 254.387 189.98 254.383C188.193 253.211 186.276 252.249 184.198 251.745C179.391 250.574 173.735 250.568 169.835 254.046C165.949 257.509 164.572 263.566 168.592 267.455C176.639 275.239 188.494 257.49 192.552 256.749C199.515 263.692 206.877 270.179 214.355 276.534C213.506 276.276 212.635 276.086 211.735 276C204.402 275.298 187.191 284.288 196.19 293.133C204.032 300.84 213.109 286.005 219.428 280.817C226.475 286.741 233.56 292.624 240.446 298.737C236.69 297.74 233.061 297.593 229.035 298.809C224.869 300.07 218.146 303.216 220.78 308.84C223.459 314.56 231.531 311.957 235.735 310.141C238.029 309.151 242.626 305.808 246.663 304.4C257.651 314.774 267.169 326.2 274.375 339.661C278.873 348.065 282.287 357.044 284.69 366.273C286.223 372.163 289.245 382.056 288.64 389.723C291.524 374.377 286.31 355.946 280.693 342.229C275.529 329.616 267.8 318.543 258.747 308.576C261.019 301.743 280.14 291.888 268.709 285.54C262.639 282.184 256.422 287.753 255.095 293.652C254.183 297.705 255.572 302.798 257.046 306.733C254.198 303.694 251.237 300.754 248.187 297.911C243.971 293.982 239.654 290.166 235.295 286.399C242.477 279.652 249.274 260.364 239.645 257.21C225.425 252.565 232.272 278.874 233.264 283.806C233.546 283.822 233.765 283.737 233.927 283.555C233.847 284.006 233.754 284.489 233.641 284.976C225.3 277.803 216.835 270.772 208.648 263.428C209.386 262.883 210.558 260.8 211.48 259.691C213.56 257.192 215.549 254.581 217.004 251.657C219.301 247.037 221.516 239.666 215.427 236.949C208.805 233.988 205.658 242.323 205.611 247.296C205.58 250.735 206.517 254.002 207.004 257.373C207.157 258.424 206.57 263.163 208.002 261.125C207.934 261.876 207.925 262.421 207.958 262.807C206.488 261.482 205.03 260.142 203.581 258.793C203.648 258.623 203.698 258.437 203.709 258.222C203.787 256.739 202.295 256.168 201.249 256.602C199.337 254.785 197.443 252.945 195.583 251.069C191.642 247.093 187.643 243.004 183.672 238.828C184.534 238.087 184.191 237.062 184.997 236.277C185.801 235.493 187.386 235.059 188.331 234.331C190.711 232.498 192.684 229.828 194.11 227.2C196.466 222.858 199.51 213.75 192.629 211.681C185.536 209.544 181.935 218.312 181.479 223.794C181.39 224.856 182.185 234.424 182.794 237.899C175.446 230.138 168.219 222.085 161.672 213.892C163.657 213.874 169.285 209.806 170.423 208.696C173.2 205.989 177.613 200.008 172.746 196.842C168.418 194.035 163.083 198.101 161.232 202.053C160.928 202.704 159.856 208.761 159.772 211.479C157.062 208.004 154.477 204.51 152.072 201.004C150.468 198.673 148.969 196.28 147.567 193.837C147.904 193.646 148.222 193.312 148.522 192.897C155.74 191.672 164.942 180.41 156.464 176.491C152.427 174.628 148.05 178.474 146.072 181.623C145.667 182.267 145.011 185.506 144.477 188.061C140.443 179.967 137.359 171.397 135.013 162.611C135.641 162.455 136.173 161.975 136.243 161.149C139.748 159.151 142.515 157.488 144.962 153.646C146.481 151.26 149.218 145.808 144.753 144.484C138.941 142.76 135.291 151.636 134.816 156.008C134.76 156.516 134.762 157.992 134.781 159.344C134.58 159.317 134.376 159.32 134.176 159.355C132.841 153.915 131.776 148.404 130.928 142.885C134.1 141.864 134.649 125.206 132.537 122.834C127.816 117.523 124.486 125.195 124.738 129.249C125.036 134.03 127.202 138.38 129.782 142.239C130.059 142.648 129.98 142.628 130.051 142.059C130.091 142.34 130.185 142.548 130.325 142.698C130.192 145.215 129.932 147.792 130.057 150.019C130.414 156.396 131.157 162.811 132.236 169.106C132.498 170.637 132.798 172.156 133.135 173.661C130.586 171.489 127.148 169.559 125.803 168.956C122.313 167.391 116.933 165.702 113.465 168.353ZM289.05 389.745C288.888 391.968 288.486 394.005 287.737 395.684C288.299 393.772 288.73 391.785 289.05 389.745Z" fill="#F2F2F2"/>
<g opacity="0.7">
<path opacity="0.7" fill-rule="evenodd" clip-rule="evenodd" d="M213.822 287.77C227.474 287.062 244.359 295.031 245.815 309.871C246.873 320.653 246.546 331.405 248.183 342.172C249.492 350.776 252.261 359.036 256.038 366.874C259.67 374.411 267.203 380.827 269.162 388.879C270.411 394.01 269.712 401.227 267.99 406.245C265.896 412.347 267.009 411.865 271.182 416.985C279.359 427.018 286.723 437.307 291.93 449.29C299.43 466.55 304.348 486.725 301.564 505.618C301.21 508.017 300.79 516.627 297.486 517.229C293.796 517.902 295.522 512.978 295.719 511.387C296.974 501.238 298.09 492.367 296.575 482.059C290.732 442.288 262.201 416.085 243.623 382.331C242.602 380.59 240.446 376.445 238.947 373.711C236.58 369.393 234.201 361.179 230.997 357.977C224.963 351.947 230.511 364.071 231.686 366.385C233.173 369.313 234.808 372.425 236.332 374.99C243.302 386.882 251.082 399.862 258.28 412.121C227.147 419.214 205.221 381.785 196.866 357.178C189.982 336.905 181.746 289.505 213.822 287.77Z" fill="#69A1AC"/>
<path opacity="0.7" fill-rule="evenodd" clip-rule="evenodd" d="M396.805 250.121C373.983 251.932 359.331 266.992 352.511 288.056C348.835 299.407 348.413 311.068 346.37 322.734C343.297 340.284 336.686 353.585 323.764 366.089C319.762 369.961 316.812 373.937 314.716 378.191C310.554 382.438 306.931 387.244 304.269 393.12C300.869 400.624 299.907 409.628 303.832 417.109C304.888 419.121 307.521 423.158 310.25 424.992C300.033 446.752 294.415 470.584 295.048 494.386C295.431 508.753 296.132 523.127 296.951 537.477C297.171 541.33 298.426 547.693 300.31 541.231C302.035 535.32 299.872 526.041 299.672 519.867C298.698 489.786 297.866 462.435 310.248 434.331C311.547 431.385 312.924 428.463 314.357 425.565C314.442 425.516 314.52 425.457 314.599 425.4C314.653 425.442 314.703 425.487 314.758 425.529C314.849 425.365 314.975 425.171 315.121 424.954C315.532 424.529 315.891 423.993 316.233 423.395C317.331 421.873 318.574 420.084 318.581 419.105C318.581 419.098 318.577 419.086 318.577 419.078C326.242 406.565 335.022 394.742 343.99 383.149C343.923 383.234 353.718 369.897 352.204 377.272C351.474 380.827 344.269 387.595 341.359 391.36C334.922 399.735 327.363 410.348 321.082 420.61C320.237 421.096 319.043 423.48 318.179 425.257C317.702 426.157 317.257 427.064 316.82 427.855C339.077 435.208 356.39 420.396 368.196 403.168C368.21 403.147 368.223 403.126 368.236 403.106C371.829 398.346 375.509 393.619 380.107 389.856C387.777 383.576 395.992 382.468 405.036 379.378C429.7 370.951 440.186 338.987 443.516 315.27C447.274 288.513 428.894 247.483 396.805 250.121Z" fill="#89C5CC"/>
<path opacity="0.7" fill-rule="evenodd" clip-rule="evenodd" d="M351.723 175.191C328.299 199.569 316.982 233.383 308.022 265.172C298.014 300.676 291.403 336.728 291.149 373.642C290.983 397.895 290.323 422.299 291.739 446.523C292.241 455.126 293.099 463.745 294.462 472.255C294.575 472.955 297.626 491.958 300.545 487.53C302.205 485.012 297.417 467.817 297.056 464.953C295.021 448.822 294.548 432.573 294.647 416.326C294.81 389.575 294.021 362.962 296.733 336.31C297.137 332.33 297.457 328.151 298.402 324.258C299.406 320.119 298.127 321.926 301.396 320.287C304.573 318.695 308.498 318.922 311.794 316.924C324.866 308.997 331.553 288.635 336.758 275.275C342.711 259.998 346.329 243.706 349.219 227.628C351.341 215.816 352.858 204.075 353.716 192.11C353.987 188.339 354.003 184.396 354.744 180.688C354.944 179.688 355.945 177.919 355.909 177.033C355.832 175.158 354.701 174.056 354.608 172.481C353.627 173.363 352.665 174.267 351.723 175.191Z" fill="#89C5CC"/>
<path opacity="0.7" fill-rule="evenodd" clip-rule="evenodd" d="M224 500C224 540.317 256.683 573 297 573C337.317 573 370 540.317 370 500" fill="#89C5CC"/>
<path opacity="0.7" fill-rule="evenodd" clip-rule="evenodd" d="M302.857 500.232H299C299.268 495.393 299.621 490.562 300.43 485.776C303.525 467.473 313.2 440.591 334.42 437.62C335.203 437.51 338.083 437.491 341.571 437.696C343.224 436.772 345.076 436.213 347.028 436.085C365.095 434.753 385.271 449.329 393.986 464.497C401.012 476.726 399.828 492.785 395.489 505.778C392.583 514.476 386.241 526.878 375.665 526.999C362.433 527.15 361.795 510.796 361.539 501.236C361.199 488.525 359.593 477.453 349.577 468.789C347.243 466.771 344.692 464.995 342.334 463.005C338.642 459.89 334.562 456.7 334.086 451.546C333.43 444.436 337.443 443.156 343.571 444.477C344.616 444.702 355.139 449.424 353.581 445.692C353.105 444.552 351.368 443.648 349.175 442.971C343.501 442.354 336.733 441.638 334.787 442.066C313.792 446.672 305.617 475.755 303.446 494.233C303.212 496.227 303.023 498.228 302.857 500.232Z" fill="#69A1AC"/>
</g>
</g>
<g clip-path="url(#clip1)">
<path fill-rule="evenodd" clip-rule="evenodd" d="M478.406 285.749C482.41 280.341 485.121 273.712 484.668 266.285C483.363 244.884 457.472 249.592 452.436 260.393C447.399 271.194 447.998 298.592 454.507 300.523C457.103 301.293 462.632 299.407 468.26 295.504L464.728 324.259H485.586L478.406 285.749Z" fill="#B28B67"/>
<path fill-rule="evenodd" clip-rule="evenodd" d="M457.136 253.271C457.614 252.943 458.614 252.251 459.12 252C459.24 251.939 460.079 251.251 460.101 251.259C460.737 251.506 462.576 252.416 462.734 253.203C462.759 253.263 462.783 253.319 462.806 253.368C463.067 253.913 463.306 254.472 463.534 255.037C464.035 256.279 464.467 257.576 464.88 258.864C465.684 261.371 466.382 263.936 467.024 266.508C467.678 269.126 468.233 271.774 468.854 274.402C469.748 278.185 470.892 281.874 471.78 285.655C472.347 288.069 472.662 290.512 472.513 292.996C472.512 293.026 472.511 293.056 472.508 293.086C472.508 293.098 472.506 293.111 472.505 293.123C472.48 293.505 472.444 293.888 472.396 294.272C472.354 294.6 472.311 294.93 472.266 295.259C471.456 293.399 470.836 291.349 470.18 289.403C470.115 289.213 470.054 289.021 469.994 288.828C469.782 288.434 469.566 288.042 469.348 287.652C467.971 285.191 466.588 282.739 465.267 280.233C462.892 275.727 460.538 271.125 457.722 266.987C456.89 265.765 456.039 264.562 455.218 263.33C454.751 262.629 454.296 261.916 453.855 261.191C453.54 260.672 452.172 258.864 452.667 257.777C452.921 257.221 455.897 254.122 457.136 253.271Z" fill="#2C2C2C"/>
<path fill-rule="evenodd" clip-rule="evenodd" d="M458.969 252.09C458.504 252.27 458.731 251.158 459.181 250.766C461.265 248.953 469.236 248.294 476.173 249.951C480.819 251.061 486.223 253.823 489.935 257.375C493.281 260.576 495.582 265.708 496.766 270.667C498.01 275.874 498.199 281.302 497.506 286.641C497.353 287.813 497.026 288.931 496.844 290.079C496.639 291.372 496.533 292.616 496.167 293.874C495.943 294.644 495.563 295.399 495.371 296.173C495.153 297.057 495.286 297.874 495.445 298.773C495.705 300.238 496.026 301.699 496.483 303.098C497.17 305.199 498.002 307.167 498.525 309.347C499.219 312.247 502.126 321.686 500.002 324.259H459.572C460.59 321.064 463.646 317.304 464.265 313.883C464.629 311.868 464.802 307.468 464.84 307.308C465.751 300.082 467.53 296.631 468.645 295.378C469.759 294.126 471.243 293.741 471.319 292.655C471.635 288.162 470.083 283.857 468.944 279.663C467.587 274.666 466.592 269.544 465.193 264.564C464.574 262.358 461.382 251.158 458.969 252.09Z" fill="#8991DC"/>
<path fill-rule="evenodd" clip-rule="evenodd" d="M473.144 257.259C474.669 262.825 474.997 265.796 474.669 273.401H475.417C476.814 266.225 475.57 259.468 474.084 257.259H473.144ZM493.598 271.624C490.757 279.556 489.461 284.24 481.528 290.658L482.14 291.152C490.016 286.016 492.31 279.89 494.195 271.954L493.598 271.624ZM481.925 263.552C480.634 274.81 480.257 281.241 473.535 293.557L474.25 293.809C481.169 283.085 482.265 274.333 482.592 263.613L481.925 263.552ZM489.35 296.996L488.738 296.14C480.388 299.149 481.319 305.362 470.802 311.653L471.681 312.266C480.889 307.893 483.042 298.515 489.35 296.996Z" fill="black" fill-opacity="0.2"/>
<path fill-rule="evenodd" clip-rule="evenodd" d="M523.286 449.259H456.143L447.346 573.259H547.293L523.286 449.259Z" fill="#C5CFD6"/>
<path fill-rule="evenodd" clip-rule="evenodd" d="M523.286 449.259H502.636L490.276 573.259H547.293L523.286 449.259Z" fill="black" fill-opacity="0.1"/>
<path fill-rule="evenodd" clip-rule="evenodd" d="M379.596 428.015C372.437 423.069 360.426 429.424 360.435 436.498C360.459 457.662 377.246 557.41 378.122 563.716C378.999 570.022 388.388 571.687 388.935 563.737C389.805 551.086 391.421 507.292 389.804 487.022C389.136 478.655 388.417 470.686 387.71 463.577C396.518 481.88 410.141 508.085 428.579 542.193L438.588 536.931C430.728 507.135 424.283 486.1 419.253 473.826C410.64 452.809 402.564 434.811 399.166 428.471C393.819 418.499 384.513 421.978 379.596 428.015Z" fill="#B28B67"/>
<path fill-rule="evenodd" clip-rule="evenodd" d="M437.872 520.385L403.519 426.747C395.289 411.514 372.214 429.846 375.021 438.681C381.393 458.739 413.798 523.674 415.696 529.649L437.872 520.385Z" fill="#020624"/>
<path fill-rule="evenodd" clip-rule="evenodd" d="M440.124 530.824C442.201 532.725 443.543 534.291 444.151 535.52C444.89 537.015 445.74 539.35 446.701 542.526C445.108 543.6 430.793 553.249 403.755 571.472C400.652 568.208 400.224 565.605 402.47 563.664C404.716 561.723 406.571 560.088 408.033 558.758L423.203 535.616C423.495 535.171 424.038 535.055 424.416 535.358C424.422 535.363 424.429 535.368 424.435 535.374L427.394 537.897C430.179 537.528 432.267 536.874 433.659 535.936C434.79 535.174 436.105 533.624 437.606 531.287L437.606 531.287C438.182 530.39 439.266 530.147 440.029 530.743C440.061 530.768 440.093 530.795 440.124 530.824Z" fill="#E4E4E4"/>
<path fill-rule="evenodd" clip-rule="evenodd" d="M391.133 558.661C392.106 561.648 392.592 563.882 392.592 565.365C392.592 567.168 392.331 569.8 391.808 573.259C389.99 573.259 373.65 573.259 342.789 573.259C341.515 568.414 342.251 565.798 344.995 565.412C347.74 565.025 350.019 564.676 351.835 564.365L374.618 552.678C375.057 552.453 375.571 552.68 375.766 553.184C375.77 553.193 375.773 553.202 375.776 553.21L377.24 557.298C379.781 558.662 381.846 559.344 383.434 559.344C384.725 559.344 386.507 558.744 388.781 557.545L388.781 557.545C389.654 557.084 390.685 557.525 391.086 558.529C391.103 558.573 391.119 558.617 391.133 558.661Z" fill="#E4E4E4"/>
<path fill-rule="evenodd" clip-rule="evenodd" d="M358.027 443.692C358.027 470.259 368.992 532.23 368.999 538.079L392.592 538.1C389.138 482.805 387.914 454.859 388.918 454.264C390.425 453.37 450.669 461.184 468.738 461.184C494.792 461.184 505.57 442.28 506.445 407.259H454.832C444.323 408.553 389.507 421.275 369.15 425.648C360.435 427.52 358.027 436.374 358.027 443.692Z" fill="#0E1759"/>
<path fill-rule="evenodd" clip-rule="evenodd" d="M411.283 394.72L386.663 422.355C379.5 425.87 373.63 429.753 369.055 434.001C368.026 435.429 366.906 438.166 371.747 436.941C376.588 435.717 381.728 434.679 382.638 436.491C383.548 438.302 380.867 441.078 382.548 443.449C383.67 445.029 387.44 440.002 393.859 428.367L419.461 411L411.283 394.72ZM531.675 369.709L512.644 369.791C527.139 423.825 534.833 452.116 535.727 454.665C537.738 460.399 533.483 469.133 531.663 473.826C537.59 476.878 536.958 465.576 544.436 469.579C551.261 473.232 556.452 479.852 564.337 474.254C565.307 473.565 566.369 470.974 563.802 468.949C557.408 463.904 548.192 455.074 546.947 452.168C545.249 448.204 540.159 420.718 531.675 369.709Z" fill="#B28B67"/>
<path fill-rule="evenodd" clip-rule="evenodd" d="M473.684 307.591L466.169 306.108C454.33 354.26 393.502 387.082 389.768 405.083C388.398 411.684 392.528 415.021 390.395 417.032L400.163 425.259C401.817 423.039 405.347 427.101 412.719 424.259C420.091 421.418 473.684 364.607 473.684 307.591Z" fill="#DB2721"/>
<path fill-rule="evenodd" clip-rule="evenodd" d="M461.042 313.993C461.909 377.742 429.88 394.004 437.014 419.578C442.906 440.696 499.295 463.398 509.052 442.697C513.002 434.318 514.794 424.183 514.998 413.165C517.492 421.63 519.464 428.917 520.915 435.027C523.418 445.567 533.121 447.242 533.121 451.303L545.906 447.242C545.038 441.726 551.065 439.04 549.449 426.716C542.209 371.499 522.755 331.474 491.088 306.64L490.761 301.25C490.627 299.046 488.966 297.384 487.05 297.538L463.642 299.422C461.726 299.576 460.282 301.487 460.416 303.691L461.042 313.993Z" fill="#FF4133"/>
</g>
<path fill-rule="evenodd" clip-rule="evenodd" d="M112.284 184.627C105.96 180.31 100.855 174.31 99.336 166.462C94.9604 143.847 127.438 140.377 136.503 149.954C145.568 159.531 152.46 188.137 145.161 192.239C142.25 193.875 135.068 193.703 127.208 191.47L139.452 220.152L114.34 226.881L112.284 184.627Z" fill="#B28B67"/>
<path fill-rule="evenodd" clip-rule="evenodd" d="M121.001 163.283C125.518 176.297 129.839 182.252 133.963 181.146C140.15 179.489 144.356 174.19 147.071 173.462C149.049 172.932 149.265 175.505 148.441 177.676C147.761 179.467 142.879 182.327 143.503 184.654C144.126 186.982 147.808 184.065 148.177 185.446C148.789 187.729 150.671 191.826 146.673 192.898C142.626 193.982 130.632 195.629 127.049 190.209C124.736 186.711 121.773 178.973 118.16 166.994C117.907 167.031 117.653 167.083 117.4 167.151C113.933 168.08 111.869 171.619 112.789 175.055C113.257 176.8 114.404 178.182 115.873 179C114.965 181.421 113.906 183.98 112.628 186.671C104.503 184.381 96.0333 173.575 99.7448 160.02C100.1 153.771 103.566 149.556 108.248 146.775C111.894 143.975 116.1 142.643 119.968 142.699C127.174 141.41 134.036 141.854 136.158 142.641C137.93 149.252 137.163 151.56 126.077 154.345C123.744 156.492 122.314 159.496 121.001 163.283Z" fill="#191847"/>
<path fill-rule="evenodd" clip-rule="evenodd" d="M126.566 314.322L179.733 448.368L215.392 561.693H229.473L174.958 314.322L126.566 314.322Z" fill="#997659"/>
<path fill-rule="evenodd" clip-rule="evenodd" d="M115.86 314.322C115.294 361.427 107.038 424.846 105.719 427.782C104.839 429.74 74.4808 454.633 14.6432 502.462L24.3415 512.8C94.9444 471.793 131.879 448.554 135.147 443.085C140.047 434.881 156.002 359.387 168.812 314.322H115.86Z" fill="#B28B67"/>
<path fill-rule="evenodd" clip-rule="evenodd" d="M13.2819 498.99C10.0248 500.141 7.78102 501.233 6.55069 502.265C5.05433 503.521 3.07994 505.602 0.627516 508.509C2.0841 510.245 15.1746 525.846 39.8991 555.312C44.9404 553.154 46.522 550.63 44.6439 547.741C42.7657 544.852 41.2287 542.432 40.0327 540.482L31.4773 510.592C31.3127 510.016 30.713 509.684 30.1378 509.848C30.128 509.851 30.1182 509.854 30.1084 509.857L25.5432 511.305C22.376 509.829 20.156 508.332 18.8834 506.816C17.8495 505.584 16.9193 503.464 16.0927 500.458L16.0927 500.458C15.7756 499.304 14.5832 498.626 13.4295 498.943C13.3797 498.957 13.3305 498.973 13.2819 498.99Z" fill="#E4E4E4"/>
<path fill-rule="evenodd" clip-rule="evenodd" d="M209.626 556.568C208.414 559.803 207.808 562.223 207.808 563.829C207.808 565.783 208.134 568.633 208.784 572.381C211.05 572.381 231.416 572.381 269.88 572.381C271.468 567.132 270.551 564.298 267.131 563.88C263.71 563.461 260.868 563.083 258.606 562.746L230.209 550.087C229.663 549.843 229.022 550.088 228.779 550.635C228.775 550.644 228.771 550.654 228.767 550.663L226.941 555.091C223.775 556.568 221.201 557.307 219.222 557.307C217.613 557.307 215.392 556.657 212.557 555.358L212.557 555.358C211.47 554.86 210.184 555.337 209.685 556.425C209.664 556.472 209.644 556.519 209.626 556.568Z" fill="#E4E4E4"/>
<path fill-rule="evenodd" clip-rule="evenodd" d="M162.313 550.021L229.261 542.783L179.644 314.322H119.681L162.313 550.021Z" fill="#69A1AC"/>
<path fill-rule="evenodd" clip-rule="evenodd" d="M28.4912 485.783L72.4052 537.561C118.659 487.239 145.625 454.403 153.303 439.055C160.981 423.707 167.884 382.129 174.01 314.322H106.503C103.156 373.976 100.901 405.191 99.7355 407.967C98.5704 410.743 74.8223 436.681 28.4912 485.783Z" fill="#89C5CC"/>
<path fill-rule="evenodd" clip-rule="evenodd" d="M209.487 289.468L247.899 308.332C257.565 309.183 265.819 310.906 272.662 313.503C274.358 314.571 276.6 316.945 270.452 317.551C264.304 318.156 257.864 319.068 257.39 321.275C256.916 323.481 261.021 325.296 259.819 328.372C259.018 330.423 252.87 326.719 241.376 317.26L205.227 309.297L209.487 289.468ZM78.9876 313.363L101.296 309.52C95.3274 356.162 92.0333 380.933 91.4133 383.832C90.0182 390.355 96.8764 398.705 99.9887 403.293C93.2845 407.815 91.9443 395.681 83.5157 401.548C75.8225 406.904 70.6892 415.054 59.963 410.818C58.6442 410.297 56.8553 407.776 59.6267 405.071C66.5314 398.332 76.1896 386.964 77.1739 383.61C78.5161 379.035 79.1207 355.619 78.9876 313.363Z" fill="#B28B67"/>
<path fill-rule="evenodd" clip-rule="evenodd" d="M125.927 209.111L134.874 205.91C174.287 229.295 198.31 283.336 245.542 305.88L237.64 320.115C163.28 323.981 133.085 258.221 125.927 209.111Z" fill="#E87613"/>
<path fill-rule="evenodd" clip-rule="evenodd" d="M106.055 331.553C143.042 325.032 170.248 320.234 187.675 317.162C191.404 316.504 189.757 311.269 188.741 308.66C177.016 278.548 146.794 249.189 138.961 204.764L114.77 205.242C100.792 239.84 100.823 279.397 106.055 331.553Z" fill="#DDE3E9"/>
<path fill-rule="evenodd" clip-rule="evenodd" d="M90.7746 241.058C87.1828 240.683 84.0728 238.88 81.4446 235.648C70.1153 221.714 71.723 212.66 80.426 208.242C89.129 203.824 98.3455 208.138 112.997 205.555C113.794 205.414 114.533 205.335 115.213 205.318L122.657 204.436C156.378 272.021 170.599 318.571 165.321 344.088L101.08 355.415C98.8311 364.918 96.4991 372.991 94.084 379.634L76.5794 382.72C65.5859 330.007 70.3176 282.786 90.7746 241.058Z" fill="#FF9B21"/>
<path fill-rule="evenodd" clip-rule="evenodd" d="M108.611 316.324C113.597 332.789 119.034 344.418 124.92 351.212L101.08 355.415C103.703 344.331 106.214 331.3 108.611 316.324Z" fill="black" fill-opacity="0.1"/>
<path d="M125.9 38L118.992 20.268L116.044 18.904V18.2H126.56V18.904L122.952 20.224V20.488L127.528 32.676H127.704L133.952 18.2H134.876L141.124 32.544H141.3L145.744 20.752V20.488L142.576 18.904V18.2H151.2V18.904L147.944 20.444L140.596 38H139.672L133.336 23.656L126.824 38H125.9ZM154.849 38.44C153.47 38.44 152.326 38.044 151.417 37.252C150.507 36.4307 150.053 35.3013 150.053 33.864C150.053 32.4267 150.581 31.18 151.637 30.124C152.722 29.068 154.526 28.2467 157.049 27.66L161.229 26.692V23.48C161.229 22.4827 160.818 21.632 159.997 20.928C159.205 20.1947 158.295 19.828 157.269 19.828C156.154 19.828 155.377 20.136 154.937 20.752C154.497 21.3387 154.277 22.1307 154.277 23.128V24.36L154.057 24.58H151.769C151.329 24.58 151.021 24.5067 150.845 24.36C150.698 24.2133 150.625 23.876 150.625 23.348C150.625 22.7027 150.815 22.0427 151.197 21.368C151.578 20.6933 152.165 20.1067 152.957 19.608C153.778 19.08 154.629 18.64 155.509 18.288C156.418 17.936 157.386 17.76 158.413 17.76C159.439 17.76 160.437 17.9067 161.405 18.2C162.402 18.4933 163.209 18.992 163.825 19.696C164.441 20.3707 164.749 21.324 164.749 22.556V35.052C164.954 35.2573 165.247 35.4333 165.629 35.58C166.01 35.7267 166.538 35.8 167.213 35.8H168.885L169.017 35.888V36.02C168.665 36.6653 168.137 37.2373 167.433 37.736C166.758 38.2053 165.922 38.44 164.925 38.44C164.015 38.44 163.267 38.2053 162.681 37.736C162.123 37.2373 161.727 36.592 161.493 35.8H161.229C160.466 36.5627 159.513 37.1933 158.369 37.692C157.254 38.1907 156.081 38.44 154.849 38.44ZM153.485 32.984C153.485 34.8027 154.585 35.712 156.785 35.712C157.489 35.712 158.178 35.6387 158.853 35.492C159.557 35.3453 160.349 35.0813 161.229 34.7V28.188C158.882 28.628 157.166 29.0973 156.081 29.596C154.995 30.0653 154.291 30.5787 153.969 31.136C153.646 31.6933 153.485 32.3093 153.485 32.984ZM169.424 38V37.296L172.196 35.888V22.776L169.556 20.488V20.18L175.012 17.76H175.276L175.672 21.016H175.892C177.007 19.9013 178.077 19.08 179.104 18.552C180.16 18.024 181.319 17.76 182.58 17.76C184.311 17.76 185.719 18.2 186.804 19.08C187.919 19.9307 188.476 21.2067 188.476 22.908V35.888L191.248 37.296V38H181.832V37.296L184.956 35.888V24.976C184.956 23.6853 184.545 22.7027 183.724 22.028C182.932 21.3533 181.891 21.016 180.6 21.016C179.808 21.016 178.928 21.148 177.96 21.412C177.021 21.676 176.273 22.0573 175.716 22.556V35.888L178.84 37.296V38H169.424ZM199.873 38.44C198.583 38.44 197.468 38.0587 196.529 37.296C195.591 36.5333 195.121 35.4627 195.121 34.084V20.268H191.513V20.004L195.253 18.2L198.377 13.36H198.641V18.2H204.449V20.268H198.641V33.336C198.641 34.0987 198.979 34.656 199.653 35.008C200.328 35.36 201.12 35.536 202.029 35.536C202.587 35.536 203.1 35.5067 203.569 35.448C204.068 35.3893 204.493 35.316 204.845 35.228H204.977V35.668C204.684 36.3427 204.097 36.9733 203.217 37.56C202.367 38.1467 201.252 38.44 199.873 38.44ZM222.028 38.44C220.738 38.44 219.623 38.0587 218.684 37.296C217.746 36.5333 217.276 35.4627 217.276 34.084V20.268H213.668V20.004L217.408 18.2L220.532 13.36H220.796V18.2H226.604V20.268H220.796V33.336C220.796 34.0987 221.134 34.656 221.808 35.008C222.483 35.36 223.275 35.536 224.184 35.536C224.742 35.536 225.255 35.5067 225.724 35.448C226.223 35.3893 226.648 35.316 227 35.228H227.132V35.668C226.839 36.3427 226.252 36.9733 225.372 37.56C224.522 38.1467 223.407 38.44 222.028 38.44ZM238.111 38.44C236.175 38.44 234.474 37.9853 233.007 37.076C231.57 36.1667 230.44 34.9347 229.619 33.38C228.827 31.8253 228.431 30.0653 228.431 28.1C228.431 26.1347 228.827 24.3747 229.619 22.82C230.44 21.2653 231.57 20.0333 233.007 19.124C234.474 18.2147 236.175 17.76 238.111 17.76C240.047 17.76 241.734 18.2147 243.171 19.124C244.638 20.0333 245.767 21.2653 246.559 22.82C247.38 24.3747 247.791 26.1347 247.791 28.1C247.791 30.0653 247.38 31.8253 246.559 33.38C245.767 34.9347 244.638 36.1667 243.171 37.076C241.734 37.9853 240.047 38.44 238.111 38.44ZM238.727 36.548C239.9 36.548 240.868 36.1813 241.631 35.448C242.394 34.7147 242.951 33.776 243.303 32.632C243.655 31.4587 243.831 30.2413 243.831 28.98C243.831 27.4253 243.611 25.9293 243.171 24.492C242.76 23.0547 242.086 21.8813 241.147 20.972C240.238 20.0627 239.05 19.608 237.583 19.608C236.38 19.608 235.398 19.9747 234.635 20.708C233.872 21.4413 233.3 22.38 232.919 23.524C232.567 24.668 232.391 25.8853 232.391 27.176C232.391 28.7307 232.611 30.2267 233.051 31.664C233.491 33.1013 234.18 34.2747 235.119 35.184C236.058 36.0933 237.26 36.548 238.727 36.548ZM265.745 38.44C264.454 38.44 263.339 38.0587 262.401 37.296C261.462 36.5333 260.993 35.4627 260.993 34.084V20.268H257.385V20.004L261.125 18.2L264.249 13.36H264.513V18.2H270.321V20.268H264.513V33.336C264.513 34.0987 264.85 34.656 265.525 35.008C266.199 35.36 266.991 35.536 267.901 35.536C268.458 35.536 268.971 35.5067 269.441 35.448C269.939 35.3893 270.365 35.316 270.717 35.228H270.849V35.668C270.555 36.3427 269.969 36.9733 269.089 37.56C268.238 38.1467 267.123 38.44 265.745 38.44ZM281.343 38.44C278.498 38.44 276.254 37.5747 274.611 35.844C272.969 34.1133 272.147 31.8253 272.147 28.98C272.147 26.78 272.573 24.844 273.423 23.172C274.303 21.4707 275.447 20.1507 276.855 19.212C278.293 18.244 279.847 17.76 281.519 17.76C283.837 17.76 285.655 18.5667 286.975 20.18C288.325 21.7933 288.999 24.1107 288.999 27.132L288.779 27.352H275.623C275.653 28.7013 275.917 29.9773 276.415 31.18C276.914 32.3533 277.706 33.3067 278.791 34.04C279.906 34.7733 281.387 35.14 283.235 35.14C284.849 35.14 286.741 34.5533 288.911 33.38H289.043V33.82C288.369 35.0813 287.357 36.1667 286.007 37.076C284.687 37.9853 283.133 38.44 281.343 38.44ZM280.815 19.696C279.407 19.696 278.249 20.1947 277.339 21.192C276.459 22.16 275.917 23.5387 275.711 25.328H285.655C285.333 23.3333 284.761 21.896 283.939 21.016C283.147 20.136 282.106 19.696 280.815 19.696ZM290.996 38V37.296L293.768 35.888V10.016L291.128 7.728V7.42L297.024 5H297.288V35.888L300.06 37.296V38H290.996ZM301.729 38V37.296L304.501 35.888V10.016L301.861 7.728V7.42L307.757 5H308.021V35.888L310.793 37.296V38H301.729ZM322.979 48.604C322.304 48.604 321.879 48.5013 321.703 48.296C321.556 48.12 321.483 47.7973 321.483 47.328V45.128L321.659 44.952H323.683C324.416 44.952 324.974 44.8787 325.355 44.732C325.736 44.6147 326.088 44.2773 326.411 43.72C326.734 43.192 327.188 42.312 327.775 41.08L329.315 37.648L321.263 20.268L318.315 18.904V18.2H328.831V18.904L325.223 20.268V20.488L331.075 33.248H331.207L336.135 20.752V20.488L332.835 18.904V18.2H341.459V18.904L338.159 20.4L329.491 41.476C329.227 42.1507 328.992 42.708 328.787 43.148C328.611 43.6173 328.406 44.0573 328.171 44.468C327.936 44.908 327.599 45.436 327.159 46.052C326.572 46.9027 325.912 47.5333 325.179 47.944C324.446 48.384 323.712 48.604 322.979 48.604ZM350.148 38.44C348.212 38.44 346.51 37.9853 345.044 37.076C343.606 36.1667 342.477 34.9347 341.656 33.38C340.864 31.8253 340.468 30.0653 340.468 28.1C340.468 26.1347 340.864 24.3747 341.656 22.82C342.477 21.2653 343.606 20.0333 345.044 19.124C346.51 18.2147 348.212 17.76 350.148 17.76C352.084 17.76 353.77 18.2147 355.208 19.124C356.674 20.0333 357.804 21.2653 358.596 22.82C359.417 24.3747 359.828 26.1347 359.828 28.1C359.828 30.0653 359.417 31.8253 358.596 33.38C357.804 34.9347 356.674 36.1667 355.208 37.076C353.77 37.9853 352.084 38.44 350.148 38.44ZM350.764 36.548C351.937 36.548 352.905 36.1813 353.668 35.448C354.43 34.7147 354.988 33.776 355.34 32.632C355.692 31.4587 355.868 30.2413 355.868 28.98C355.868 27.4253 355.648 25.9293 355.208 24.492C354.797 23.0547 354.122 21.8813 353.184 20.972C352.274 20.0627 351.086 19.608 349.62 19.608C348.417 19.608 347.434 19.9747 346.672 20.708C345.909 21.4413 345.337 22.38 344.956 23.524C344.604 24.668 344.428 25.8853 344.428 27.176C344.428 28.7307 344.648 30.2267 345.088 31.664C345.528 33.1013 346.217 34.2747 347.156 35.184C348.094 36.0933 349.297 36.548 350.764 36.548ZM369.729 38.44C367.999 38.44 366.576 38.0147 365.461 37.164C364.376 36.284 363.833 34.9933 363.833 33.292V20.268L361.061 18.904V18.2H367.353V31.224C367.353 32.5147 367.749 33.4973 368.541 34.172C369.363 34.8467 370.419 35.184 371.709 35.184C372.501 35.184 373.367 35.052 374.305 34.788C375.273 34.524 376.036 34.1427 376.593 33.644V20.268L373.469 18.904V18.2H380.113V36.02L383.237 37.296V38H376.593V35.228H376.373C375.259 36.3427 374.173 37.164 373.117 37.692C372.091 38.1907 370.961 38.44 369.729 38.44ZM384.581 38V37.296L387.353 35.888V22.776L384.713 20.488V20.18L390.169 17.76H390.433L390.829 21.5H391.005C391.68 20.4147 392.296 19.608 392.853 19.08C393.44 18.5227 393.983 18.1707 394.481 18.024C394.98 17.848 395.479 17.76 395.977 17.76C396.212 17.76 396.476 17.804 396.769 17.892C397.092 17.98 397.356 18.068 397.561 18.156C397.884 18.3027 398.177 18.4787 398.441 18.684C398.735 18.8893 398.881 19.124 398.881 19.388C398.881 19.652 398.823 19.916 398.705 20.18L397.825 22.336H397.517L395.845 21.676C395.523 21.5293 395.2 21.4413 394.877 21.412C394.584 21.3827 394.291 21.368 393.997 21.368C392.765 21.368 391.724 21.9987 390.873 23.26V35.888L393.997 37.296V38H384.581ZM415.754 38.44C414.375 38.44 413.187 38.3227 412.19 38.088C411.192 37.8533 410.18 37.472 409.154 36.944V32.016H409.77L411.178 34.436C412.087 36.0493 413.568 36.856 415.622 36.856C416.795 36.856 417.704 36.5773 418.35 36.02C419.024 35.4627 419.362 34.7 419.362 33.732C419.362 32.8813 419.156 32.2213 418.746 31.752C418.335 31.2827 417.748 30.872 416.986 30.52C416.252 30.1387 415.372 29.7133 414.346 29.244C412.85 28.5693 411.691 27.836 410.87 27.044C410.078 26.2227 409.682 25.0787 409.682 23.612C409.682 22.5267 409.99 21.544 410.606 20.664C411.222 19.784 411.999 19.08 412.938 18.552C413.906 18.024 414.903 17.76 415.93 17.76C417.015 17.76 418.012 17.892 418.922 18.156C419.831 18.42 420.755 18.7867 421.694 19.256V24.052H421.078L419.626 21.72C419.127 20.928 418.584 20.356 417.998 20.004C417.411 19.652 416.78 19.476 416.106 19.476C415.108 19.476 414.302 19.7253 413.686 20.224C413.099 20.7227 412.806 21.412 412.806 22.292C412.806 23.2893 413.158 24.052 413.862 24.58C414.595 25.0787 415.651 25.6507 417.03 26.296C417.851 26.7067 418.672 27.1173 419.494 27.528C420.344 27.9387 421.034 28.5253 421.562 29.288C422.119 30.0213 422.398 31.0773 422.398 32.456C422.398 33.7467 422.046 34.8467 421.342 35.756C420.638 36.636 419.772 37.3107 418.746 37.78C417.719 38.22 416.722 38.44 415.754 38.44ZM431.896 38.44C430.605 38.44 429.491 38.0587 428.552 37.296C427.613 36.5333 427.144 35.4627 427.144 34.084V20.268H423.536V20.004L427.276 18.2L430.4 13.36H430.664V18.2H436.472V20.268H430.664V33.336C430.664 34.0987 431.001 34.656 431.676 35.008C432.351 35.36 433.143 35.536 434.052 35.536C434.609 35.536 435.123 35.5067 435.592 35.448C436.091 35.3893 436.516 35.316 436.868 35.228H437V35.668C436.707 36.3427 436.12 36.9733 435.24 37.56C434.389 38.1467 433.275 38.44 431.896 38.44ZM447.979 38.44C446.043 38.44 444.341 37.9853 442.875 37.076C441.437 36.1667 440.308 34.9347 439.487 33.38C438.695 31.8253 438.299 30.0653 438.299 28.1C438.299 26.1347 438.695 24.3747 439.487 22.82C440.308 21.2653 441.437 20.0333 442.875 19.124C444.341 18.2147 446.043 17.76 447.979 17.76C449.915 17.76 451.601 18.2147 453.039 19.124C454.505 20.0333 455.635 21.2653 456.427 22.82C457.248 24.3747 457.659 26.1347 457.659 28.1C457.659 30.0653 457.248 31.8253 456.427 33.38C455.635 34.9347 454.505 36.1667 453.039 37.076C451.601 37.9853 449.915 38.44 447.979 38.44ZM448.595 36.548C449.768 36.548 450.736 36.1813 451.499 35.448C452.261 34.7147 452.819 33.776 453.171 32.632C453.523 31.4587 453.699 30.2413 453.699 28.98C453.699 27.4253 453.479 25.9293 453.039 24.492C452.628 23.0547 451.953 21.8813 451.015 20.972C450.105 20.0627 448.917 19.608 447.451 19.608C446.248 19.608 445.265 19.9747 444.503 20.708C443.74 21.4413 443.168 22.38 442.787 23.524C442.435 24.668 442.259 25.8853 442.259 27.176C442.259 28.7307 442.479 30.2267 442.919 31.664C443.359 33.1013 444.048 34.2747 444.987 35.184C445.925 36.0933 447.128 36.548 448.595 36.548ZM459.949 38V37.296L462.721 35.888V22.776L460.081 20.488V20.18L465.537 17.76H465.801L466.197 21.5H466.373C467.047 20.4147 467.663 19.608 468.221 19.08C468.807 18.5227 469.35 18.1707 469.849 18.024C470.347 17.848 470.846 17.76 471.345 17.76C471.579 17.76 471.843 17.804 472.137 17.892C472.459 17.98 472.723 18.068 472.929 18.156C473.251 18.3027 473.545 18.4787 473.809 18.684C474.102 18.8893 474.249 19.124 474.249 19.388C474.249 19.652 474.19 19.916 474.073 20.18L473.193 22.336H472.885L471.213 21.676C470.89 21.5293 470.567 21.4413 470.245 21.412C469.951 21.3827 469.658 21.368 469.365 21.368C468.133 21.368 467.091 21.9987 466.241 23.26V35.888L469.365 37.296V38H459.949ZM476.601 48.604C475.926 48.604 475.501 48.5013 475.325 48.296C475.178 48.12 475.105 47.7973 475.105 47.328V45.128L475.281 44.952H477.305C478.038 44.952 478.596 44.8787 478.977 44.732C479.358 44.6147 479.71 44.2773 480.033 43.72C480.356 43.192 480.81 42.312 481.397 41.08L482.937 37.648L474.885 20.268L471.937 18.904V18.2H482.453V18.904L478.845 20.268V20.488L484.697 33.248H484.829L489.757 20.752V20.488L486.457 18.904V18.2H495.081V18.904L491.781 20.4L483.113 41.476C482.849 42.1507 482.614 42.708 482.409 43.148C482.233 43.6173 482.028 44.0573 481.793 44.468C481.558 44.908 481.221 45.436 480.781 46.052C480.194 46.9027 479.534 47.5333 478.801 47.944C478.068 48.384 477.334 48.604 476.601 48.604ZM500.689 29.2L499.545 22.82C501.716 22.0573 503.403 21.1627 504.605 20.136C505.837 19.08 506.453 17.8333 506.453 16.396C506.453 14.3133 505.955 12.8173 504.957 11.908C503.989 10.9693 502.801 10.5 501.393 10.5C500.161 10.5 499.208 10.896 498.533 11.688C497.859 12.48 497.521 13.6533 497.521 15.208V16.968L497.169 17.408H495.365C494.808 17.408 494.383 17.3053 494.089 17.1C493.825 16.8947 493.693 16.4107 493.693 15.648C493.693 14.856 493.899 14.064 494.309 13.272C494.749 12.4507 495.424 11.732 496.333 11.116C497.36 10.3827 498.313 9.76666 499.193 9.268C500.073 8.76933 501.247 8.52 502.713 8.52C504.209 8.52 505.544 8.872 506.717 9.576C507.891 10.28 508.815 11.2187 509.489 12.392C510.164 13.5653 510.501 14.8707 510.501 16.308C510.501 18.1853 509.841 19.9013 508.521 21.456C507.231 22.9813 505.031 24.4333 501.921 25.812L501.569 29.2H500.689ZM501.129 38.22C500.396 38.22 499.765 37.956 499.237 37.428C498.709 36.8707 498.445 36.24 498.445 35.536C498.445 34.8027 498.709 34.172 499.237 33.644C499.765 33.116 500.396 32.852 501.129 32.852C501.833 32.852 502.449 33.116 502.977 33.644C503.535 34.172 503.813 34.8027 503.813 35.536C503.813 36.24 503.535 36.8707 502.977 37.428C502.449 37.956 501.833 38.22 501.129 38.22ZM55.984 98.604C55.3094 98.604 54.884 98.5013 54.708 98.296C54.5614 98.12 54.488 97.7973 54.488 97.328V95.128L54.664 94.952H56.688C57.4214 94.952 57.9787 94.8787 58.36 94.732C58.7414 94.6147 59.0934 94.2773 59.416 93.72C59.7387 93.192 60.1934 92.312 60.78 91.08L62.32 87.648L54.268 70.268L51.32 68.904V68.2H61.836V68.904L58.228 70.268V70.488L64.08 83.248H64.212L69.14 70.752V70.488L65.84 68.904V68.2H74.464V68.904L71.164 70.4L62.496 91.476C62.232 92.1507 61.9974 92.708 61.792 93.148C61.616 93.6173 61.4107 94.0573 61.176 94.468C60.9414 94.908 60.604 95.436 60.164 96.052C59.5774 96.9027 58.9174 97.5333 58.184 97.944C57.4507 98.384 56.7174 98.604 55.984 98.604ZM83.1527 88.44C81.2167 88.44 79.5153 87.9853 78.0487 87.076C76.6113 86.1667 75.482 84.9347 74.6607 83.38C73.8687 81.8253 73.4727 80.0653 73.4727 78.1C73.4727 76.1347 73.8687 74.3747 74.6607 72.82C75.482 71.2653 76.6113 70.0333 78.0487 69.124C79.5153 68.2147 81.2167 67.76 83.1527 67.76C85.0887 67.76 86.7753 68.2147 88.2127 69.124C89.6793 70.0333 90.8087 71.2653 91.6007 72.82C92.422 74.3747 92.8327 76.1347 92.8327 78.1C92.8327 80.0653 92.422 81.8253 91.6007 83.38C90.8087 84.9347 89.6793 86.1667 88.2127 87.076C86.7753 87.9853 85.0887 88.44 83.1527 88.44ZM83.7687 86.548C84.942 86.548 85.91 86.1813 86.6727 85.448C87.4353 84.7147 87.9927 83.776 88.3447 82.632C88.6967 81.4587 88.8727 80.2413 88.8727 78.98C88.8727 77.4253 88.6527 75.9293 88.2127 74.492C87.802 73.0547 87.1273 71.8813 86.1887 70.972C85.2793 70.0627 84.0913 69.608 82.6247 69.608C81.422 69.608 80.4393 69.9747 79.6767 70.708C78.914 71.4413 78.342 72.38 77.9607 73.524C77.6087 74.668 77.4327 75.8853 77.4327 77.176C77.4327 78.7307 77.6527 80.2267 78.0927 81.664C78.5327 83.1013 79.222 84.2747 80.1607 85.184C81.0993 86.0933 82.302 86.548 83.7687 86.548ZM102.734 88.44C101.004 88.44 99.581 88.0147 98.4664 87.164C97.381 86.284 96.8384 84.9933 96.8384 83.292V70.268L94.0664 68.904V68.2H100.358V81.224C100.358 82.5147 100.754 83.4973 101.546 84.172C102.368 84.8467 103.424 85.184 104.714 85.184C105.506 85.184 106.372 85.052 107.31 84.788C108.278 84.524 109.041 84.1427 109.598 83.644V70.268L106.474 68.904V68.2H113.118V86.02L116.242 87.296V88H109.598V85.228H109.378C108.264 86.3427 107.178 87.164 106.122 87.692C105.096 88.1907 103.966 88.44 102.734 88.44ZM116.727 66.792V65.868C117.695 65.6627 118.575 65.252 119.367 64.636C120.188 64.02 120.599 63.2573 120.599 62.348C120.599 61.8493 120.467 61.3653 120.203 60.896C119.939 60.3973 119.323 59.8987 118.355 59.4L116.727 58.564V58.036L117.563 55.968C117.798 55.3227 118.164 55 118.663 55C118.81 55 118.986 55.0147 119.191 55.044C119.396 55.0733 119.631 55.1613 119.895 55.308C120.98 55.9533 121.787 56.672 122.315 57.464C122.872 58.256 123.151 59.224 123.151 60.368C123.151 61.072 122.916 61.8787 122.447 62.788C122.007 63.668 121.303 64.4893 120.335 65.252C119.396 65.9853 118.194 66.4987 116.727 66.792ZM133.227 88L125.175 70.268L122.227 68.904V68.2H132.743V68.904L129.135 70.224V70.488L134.767 82.764H134.943L139.915 70.752V70.488L136.747 68.904V68.2H145.371V68.904L142.115 70.444L134.151 88H133.227ZM153.576 88.44C150.73 88.44 148.486 87.5747 146.844 85.844C145.201 84.1133 144.38 81.8253 144.38 78.98C144.38 76.78 144.805 74.844 145.656 73.172C146.536 71.4707 147.68 70.1507 149.088 69.212C150.525 68.244 152.08 67.76 153.752 67.76C156.069 67.76 157.888 68.5667 159.208 70.18C160.557 71.7933 161.232 74.1107 161.232 77.132L161.012 77.352H147.856C147.885 78.7013 148.149 79.9773 148.648 81.18C149.146 82.3533 149.938 83.3067 151.024 84.04C152.138 84.7733 153.62 85.14 155.468 85.14C157.081 85.14 158.973 84.5533 161.144 83.38H161.276V83.82C160.601 85.0813 159.589 86.1667 158.24 87.076C156.92 87.9853 155.365 88.44 153.576 88.44ZM153.048 69.696C151.64 69.696 150.481 70.1947 149.572 71.192C148.692 72.16 148.149 73.5387 147.944 75.328H157.888C157.565 73.3333 156.993 71.896 156.172 71.016C155.38 70.136 154.338 69.696 153.048 69.696ZM181.488 88.44C178.643 88.44 176.399 87.5747 174.756 85.844C173.114 84.1133 172.292 81.8253 172.292 78.98C172.292 76.78 172.732 74.844 173.612 73.172C174.522 71.4707 175.739 70.1507 177.264 69.212C178.79 68.244 180.506 67.76 182.412 67.76C183.586 67.76 184.73 67.9653 185.844 68.376C186.959 68.7573 187.81 69.2707 188.396 69.916C188.866 70.4733 189.1 70.9133 189.1 71.236C189.1 71.6467 188.91 71.9987 188.528 72.292L186.856 73.7H186.548L185.052 71.676C184.612 71.0893 184.055 70.62 183.38 70.268C182.735 69.8867 181.928 69.696 180.96 69.696C179.347 69.696 178.071 70.3413 177.132 71.632C176.223 72.8933 175.768 74.668 175.768 76.956C175.768 78.364 176.003 79.6987 176.472 80.96C176.942 82.192 177.719 83.204 178.804 83.996C179.919 84.7587 181.444 85.14 183.38 85.14C184.994 85.14 186.886 84.5533 189.056 83.38H189.188V83.82C188.514 85.0813 187.502 86.1667 186.152 87.076C184.832 87.9853 183.278 88.44 181.488 88.44ZM200.827 88.44C198.891 88.44 197.19 87.9853 195.723 87.076C194.286 86.1667 193.156 84.9347 192.335 83.38C191.543 81.8253 191.147 80.0653 191.147 78.1C191.147 76.1347 191.543 74.3747 192.335 72.82C193.156 71.2653 194.286 70.0333 195.723 69.124C197.19 68.2147 198.891 67.76 200.827 67.76C202.763 67.76 204.45 68.2147 205.887 69.124C207.354 70.0333 208.483 71.2653 209.275 72.82C210.096 74.3747 210.507 76.1347 210.507 78.1C210.507 80.0653 210.096 81.8253 209.275 83.38C208.483 84.9347 207.354 86.1667 205.887 87.076C204.45 87.9853 202.763 88.44 200.827 88.44ZM201.443 86.548C202.616 86.548 203.584 86.1813 204.347 85.448C205.11 84.7147 205.667 83.776 206.019 82.632C206.371 81.4587 206.547 80.2413 206.547 78.98C206.547 77.4253 206.327 75.9293 205.887 74.492C205.476 73.0547 204.802 71.8813 203.863 70.972C202.954 70.0627 201.766 69.608 200.299 69.608C199.096 69.608 198.114 69.9747 197.351 70.708C196.588 71.4413 196.016 72.38 195.635 73.524C195.283 74.668 195.107 75.8853 195.107 77.176C195.107 78.7307 195.327 80.2267 195.767 81.664C196.207 83.1013 196.896 84.2747 197.835 85.184C198.774 86.0933 199.976 86.548 201.443 86.548ZM212.621 88V87.296L215.393 85.888V72.776L212.753 70.488V70.18L218.209 67.76H218.473L218.869 71.016H219.089C220.174 69.9013 221.215 69.08 222.213 68.552C223.239 68.024 224.354 67.76 225.557 67.76C226.965 67.76 228.167 68.0827 229.165 68.728C230.162 69.344 230.807 70.2827 231.101 71.544H231.233C232.465 70.2533 233.609 69.3 234.665 68.684C235.75 68.068 236.938 67.76 238.229 67.76C239.871 67.76 241.221 68.2 242.277 69.08C243.362 69.9307 243.905 71.2067 243.905 72.908V85.888L246.677 87.296V88H237.261V87.296L240.385 85.888V74.976C240.385 73.6853 239.989 72.7027 239.197 72.028C238.434 71.3533 237.451 71.016 236.249 71.016C235.251 71.016 234.313 71.1773 233.433 71.5C232.553 71.8227 231.819 72.3067 231.233 72.952V85.888L234.269 87.296V88H224.765V87.296L227.713 85.888V74.976C227.713 73.6853 227.317 72.7027 226.525 72.028C225.762 71.3533 224.779 71.016 223.577 71.016C222.843 71.016 222.022 71.148 221.113 71.412C220.203 71.676 219.47 72.0573 218.913 72.556V85.888L221.773 87.296V88H212.621ZM257.56 88.44C254.715 88.44 252.471 87.5747 250.828 85.844C249.185 84.1133 248.364 81.8253 248.364 78.98C248.364 76.78 248.789 74.844 249.64 73.172C250.52 71.4707 251.664 70.1507 253.072 69.212C254.509 68.244 256.064 67.76 257.736 67.76C260.053 67.76 261.872 68.5667 263.192 70.18C264.541 71.7933 265.216 74.1107 265.216 77.132L264.996 77.352H251.84C251.869 78.7013 252.133 79.9773 252.632 81.18C253.131 82.3533 253.923 83.3067 255.008 84.04C256.123 84.7733 257.604 85.14 259.452 85.14C261.065 85.14 262.957 84.5533 265.128 83.38H265.26V83.82C264.585 85.0813 263.573 86.1667 262.224 87.076C260.904 87.9853 259.349 88.44 257.56 88.44ZM257.032 69.696C255.624 69.696 254.465 70.1947 253.556 71.192C252.676 72.16 252.133 73.5387 251.928 75.328H261.872C261.549 73.3333 260.977 71.896 260.156 71.016C259.364 70.136 258.323 69.696 257.032 69.696ZM283.229 88.44C281.938 88.44 280.823 88.0587 279.885 87.296C278.946 86.5333 278.477 85.4627 278.477 84.084V70.268H274.869V70.004L278.609 68.2L281.733 63.36H281.997V68.2H287.805V70.268H281.997V83.336C281.997 84.0987 282.334 84.656 283.009 85.008C283.683 85.36 284.475 85.536 285.385 85.536C285.942 85.536 286.455 85.5067 286.925 85.448C287.423 85.3893 287.849 85.316 288.201 85.228H288.333V85.668C288.039 86.3427 287.453 86.9733 286.573 87.56C285.722 88.1467 284.607 88.44 283.229 88.44ZM299.311 88.44C297.375 88.44 295.674 87.9853 294.207 87.076C292.77 86.1667 291.641 84.9347 290.819 83.38C290.027 81.8253 289.631 80.0653 289.631 78.1C289.631 76.1347 290.027 74.3747 290.819 72.82C291.641 71.2653 292.77 70.0333 294.207 69.124C295.674 68.2147 297.375 67.76 299.311 67.76C301.247 67.76 302.934 68.2147 304.371 69.124C305.838 70.0333 306.967 71.2653 307.759 72.82C308.581 74.3747 308.991 76.1347 308.991 78.1C308.991 80.0653 308.581 81.8253 307.759 83.38C306.967 84.9347 305.838 86.1667 304.371 87.076C302.934 87.9853 301.247 88.44 299.311 88.44ZM299.927 86.548C301.101 86.548 302.069 86.1813 302.831 85.448C303.594 84.7147 304.151 83.776 304.503 82.632C304.855 81.4587 305.031 80.2413 305.031 78.98C305.031 77.4253 304.811 75.9293 304.371 74.492C303.961 73.0547 303.286 71.8813 302.347 70.972C301.438 70.0627 300.25 69.608 298.783 69.608C297.581 69.608 296.598 69.9747 295.835 70.708C295.073 71.4413 294.501 72.38 294.119 73.524C293.767 74.668 293.591 75.8853 293.591 77.176C293.591 78.7307 293.811 80.2267 294.251 81.664C294.691 83.1013 295.381 84.2747 296.319 85.184C297.258 86.0933 298.461 86.548 299.927 86.548ZM326.945 88.44C325.654 88.44 324.54 88.0587 323.601 87.296C322.662 86.5333 322.193 85.4627 322.193 84.084V70.268H318.585V70.004L322.325 68.2L325.449 63.36H325.713V68.2H331.521V70.268H325.713V83.336C325.713 84.0987 326.05 84.656 326.725 85.008C327.4 85.36 328.192 85.536 329.101 85.536C329.658 85.536 330.172 85.5067 330.641 85.448C331.14 85.3893 331.565 85.316 331.917 85.228H332.049V85.668C331.756 86.3427 331.169 86.9733 330.289 87.56C329.438 88.1467 328.324 88.44 326.945 88.44ZM333.26 88V87.296L336.032 85.888V60.016L333.392 57.728V57.42L339.288 55H339.552V71.016H339.728C340.842 69.9013 341.913 69.08 342.94 68.552C343.996 68.024 345.154 67.76 346.416 67.76C348.146 67.76 349.554 68.2 350.64 69.08C351.754 69.9307 352.312 71.2067 352.312 72.908V85.888L355.084 87.296V88H345.668V87.296L348.792 86.02V74.976C348.792 73.6853 348.381 72.7027 347.56 72.028C346.768 71.3533 345.726 71.016 344.436 71.016C343.644 71.016 342.764 71.148 341.796 71.412C340.857 71.676 340.109 72.0573 339.552 72.556V86.02L342.676 87.296V88H333.26ZM365.953 88.44C363.108 88.44 360.864 87.5747 359.221 85.844C357.578 84.1133 356.757 81.8253 356.757 78.98C356.757 76.78 357.182 74.844 358.033 73.172C358.913 71.4707 360.057 70.1507 361.465 69.212C362.902 68.244 364.457 67.76 366.129 67.76C368.446 67.76 370.265 68.5667 371.585 70.18C372.934 71.7933 373.609 74.1107 373.609 77.132L373.389 77.352H360.233C360.262 78.7013 360.526 79.9773 361.025 81.18C361.524 82.3533 362.316 83.3067 363.401 84.04C364.516 84.7733 365.997 85.14 367.845 85.14C369.458 85.14 371.35 84.5533 373.521 83.38H373.653V83.82C372.978 85.0813 371.966 86.1667 370.617 87.076C369.297 87.9853 367.742 88.44 365.953 88.44ZM365.425 69.696C364.017 69.696 362.858 70.1947 361.949 71.192C361.069 72.16 360.526 73.5387 360.321 75.328H370.265C369.942 73.3333 369.37 71.896 368.549 71.016C367.757 70.136 366.716 69.696 365.425 69.696ZM384.758 88V87.296L387.53 85.888V72.776L384.89 70.488V70.18L390.346 67.76H390.61L391.006 71.5H391.182C391.856 70.4147 392.472 69.608 393.03 69.08C393.616 68.5227 394.159 68.1707 394.658 68.024C395.156 67.848 395.655 67.76 396.154 67.76C396.388 67.76 396.652 67.804 396.946 67.892C397.268 67.98 397.532 68.068 397.738 68.156C398.06 68.3027 398.354 68.4787 398.618 68.684C398.911 68.8893 399.058 69.124 399.058 69.388C399.058 69.652 398.999 69.916 398.882 70.18L398.002 72.336H397.694L396.022 71.676C395.699 71.5293 395.376 71.4413 395.054 71.412C394.76 71.3827 394.467 71.368 394.174 71.368C392.942 71.368 391.9 71.9987 391.05 73.26V85.888L394.174 87.296V88H384.758ZM404.534 62.436C403.771 62.436 403.14 62.1867 402.642 61.688C402.143 61.16 401.894 60.5293 401.894 59.796C401.894 59.0333 402.143 58.4027 402.642 57.904C403.14 57.4053 403.771 57.156 404.534 57.156C405.296 57.156 405.927 57.4053 406.426 57.904C406.924 58.4027 407.174 59.0333 407.174 59.796C407.174 60.5293 406.924 61.16 406.426 61.688C405.927 62.1867 405.296 62.436 404.534 62.436ZM400.134 88V87.296L402.906 85.888V72.776L400.266 70.488V70.18L406.162 67.76H406.426V85.888L409.198 87.296V88H400.134ZM420.703 81.752C419.412 81.752 418.224 81.5173 417.139 81.048C416.552 81.2827 416.127 81.5907 415.863 81.972C415.628 82.3533 415.511 82.764 415.511 83.204C415.511 84.6707 416.552 85.404 418.635 85.404H423.915C426.056 85.404 427.625 85.8733 428.623 86.812C429.649 87.7507 430.163 89.144 430.163 90.992C430.163 92.2533 429.737 93.456 428.887 94.6C428.065 95.7733 426.877 96.7267 425.323 97.46C423.797 98.1933 421.979 98.56 419.867 98.56C417.08 98.56 415.071 98.0467 413.839 97.02C412.636 96.0227 412.035 94.7907 412.035 93.324C412.035 92.2387 412.299 91.3 412.827 90.508L415.863 88.484V88.308C414.748 88.0733 413.897 87.648 413.311 87.032C412.724 86.3867 412.431 85.6093 412.431 84.7C412.431 83.5853 412.812 82.6467 413.575 81.884L415.951 80.652V80.388C415.012 79.772 414.264 78.98 413.707 78.012C413.149 77.044 412.871 75.9587 412.871 74.756C412.871 73.436 413.208 72.248 413.883 71.192C414.557 70.136 415.481 69.3 416.655 68.684C417.857 68.068 419.207 67.76 420.703 67.76C421.319 67.76 421.979 67.8333 422.683 67.98C423.416 68.1267 424.047 68.3173 424.575 68.552L431.175 68.2V70.576L427.083 70.312L426.907 70.488C427.376 71.016 427.757 71.6613 428.051 72.424C428.373 73.1867 428.535 73.964 428.535 74.756C428.535 76.076 428.197 77.264 427.523 78.32C426.848 79.376 425.909 80.212 424.707 80.828C423.533 81.444 422.199 81.752 420.703 81.752ZM421.143 79.948C422.316 79.948 423.24 79.4493 423.915 78.452C424.589 77.4253 424.927 76.2373 424.927 74.888C424.927 73.2747 424.487 71.984 423.607 71.016C422.727 70.0187 421.656 69.52 420.395 69.52C419.133 69.52 418.165 70.0333 417.491 71.06C416.816 72.0573 416.479 73.2453 416.479 74.624C416.479 76.1493 416.919 77.4253 417.799 78.452C418.679 79.4493 419.793 79.948 421.143 79.948ZM415.159 92.84C415.159 94.1307 415.657 95.2013 416.655 96.052C417.681 96.9027 418.928 97.328 420.395 97.328C421.715 97.328 422.859 97.064 423.827 96.536C424.824 96.0373 425.587 95.3627 426.115 94.512C426.672 93.6907 426.951 92.8107 426.951 91.872C426.951 90.5813 426.599 89.6867 425.895 89.188C425.22 88.6893 423.988 88.44 422.199 88.44H417.491C417.403 88.44 417.329 88.44 417.271 88.44C416.479 88.9093 415.921 89.496 415.599 90.2C415.305 90.9333 415.159 91.8133 415.159 92.84ZM432.853 88V87.296L435.625 85.888V60.016L432.985 57.728V57.42L438.881 55H439.145V71.016H439.321C440.435 69.9013 441.506 69.08 442.533 68.552C443.589 68.024 444.747 67.76 446.009 67.76C447.739 67.76 449.147 68.2 450.233 69.08C451.347 69.9307 451.905 71.2067 451.905 72.908V85.888L454.677 87.296V88H445.261V87.296L448.385 86.02V74.976C448.385 73.6853 447.974 72.7027 447.153 72.028C446.361 71.3533 445.319 71.016 444.029 71.016C443.237 71.016 442.357 71.148 441.389 71.412C440.45 71.676 439.702 72.0573 439.145 72.556V86.02L442.269 87.296V88H432.853ZM463.302 88.44C462.011 88.44 460.897 88.0587 459.958 87.296C459.019 86.5333 458.55 85.4627 458.55 84.084V70.268H454.942V70.004L458.682 68.2L461.806 63.36H462.07V68.2H467.878V70.268H462.07V83.336C462.07 84.0987 462.407 84.656 463.082 85.008C463.757 85.36 464.549 85.536 465.458 85.536C466.015 85.536 466.529 85.5067 466.998 85.448C467.497 85.3893 467.922 85.316 468.274 85.228H468.406V85.668C468.113 86.3427 467.526 86.9733 466.646 87.56C465.795 88.1467 464.681 88.44 463.302 88.44ZM478.417 98.12V97.416L481.189 96.008V72.776L478.549 70.488V70.18L484.005 67.76H484.269L484.621 70.444H484.929C486.043 69.5053 487.114 68.8307 488.141 68.42C489.167 67.98 490.282 67.76 491.485 67.76C492.981 67.76 494.301 68.1413 495.445 68.904C496.589 69.6667 497.483 70.752 498.129 72.16C498.803 73.5387 499.141 75.196 499.141 77.132C499.141 79.5373 498.686 81.5907 497.777 83.292C496.897 84.964 495.694 86.24 494.169 87.12C492.643 88 490.971 88.44 489.153 88.44C487.51 88.44 486.029 88.2933 484.709 88V96.008L487.833 97.416V98.12H478.417ZM489.065 70.796C488.361 70.796 487.627 70.9133 486.865 71.148C486.131 71.3533 485.413 71.676 484.709 72.116V84.48C485.589 85.184 486.483 85.668 487.393 85.932C488.302 86.196 489.314 86.328 490.429 86.328C491.837 86.328 493.054 85.7413 494.081 84.568C495.107 83.3653 495.621 81.3707 495.621 78.584C495.621 76.7653 495.327 75.284 494.741 74.14C494.154 72.996 493.362 72.16 492.365 71.632C491.367 71.0747 490.267 70.796 489.065 70.796ZM501.006 88V87.296L503.778 85.888V60.016L501.138 57.728V57.42L507.034 55H507.298V85.888L510.07 87.296V88H501.006ZM516.667 88.44C515.288 88.44 514.144 88.044 513.235 87.252C512.326 86.4307 511.871 85.3013 511.871 83.864C511.871 82.4267 512.399 81.18 513.455 80.124C514.54 79.068 516.344 78.2467 518.867 77.66L523.047 76.692V73.48C523.047 72.4827 522.636 71.632 521.815 70.928C521.023 70.1947 520.114 69.828 519.087 69.828C517.972 69.828 517.195 70.136 516.755 70.752C516.315 71.3387 516.095 72.1307 516.095 73.128V74.36L515.875 74.58H513.587C513.147 74.58 512.839 74.5067 512.663 74.36C512.516 74.2133 512.443 73.876 512.443 73.348C512.443 72.7027 512.634 72.0427 513.015 71.368C513.396 70.6933 513.983 70.1067 514.775 69.608C515.596 69.08 516.447 68.64 517.327 68.288C518.236 67.936 519.204 67.76 520.231 67.76C521.258 67.76 522.255 67.9067 523.223 68.2C524.22 68.4933 525.027 68.992 525.643 69.696C526.259 70.3707 526.567 71.324 526.567 72.556V85.052C526.772 85.2573 527.066 85.4333 527.447 85.58C527.828 85.7267 528.356 85.8 529.031 85.8H530.703L530.835 85.888V86.02C530.483 86.6653 529.955 87.2373 529.251 87.736C528.576 88.2053 527.74 88.44 526.743 88.44C525.834 88.44 525.086 88.2053 524.499 87.736C523.942 87.2373 523.546 86.592 523.311 85.8H523.047C522.284 86.5627 521.331 87.1933 520.187 87.692C519.072 88.1907 517.899 88.44 516.667 88.44ZM515.303 82.984C515.303 84.8027 516.403 85.712 518.603 85.712C519.307 85.712 519.996 85.6387 520.671 85.492C521.375 85.3453 522.167 85.0813 523.047 84.7V78.188C520.7 78.628 518.984 79.0973 517.899 79.596C516.814 80.0653 516.11 80.5787 515.787 81.136C515.464 81.6933 515.303 82.3093 515.303 82.984ZM540.526 88.44C537.681 88.44 535.437 87.5747 533.794 85.844C532.152 84.1133 531.33 81.8253 531.33 78.98C531.33 76.78 531.77 74.844 532.65 73.172C533.56 71.4707 534.777 70.1507 536.302 69.212C537.828 68.244 539.544 67.76 541.45 67.76C542.624 67.76 543.768 67.9653 544.882 68.376C545.997 68.7573 546.848 69.2707 547.434 69.916C547.904 70.4733 548.138 70.9133 548.138 71.236C548.138 71.6467 547.948 71.9987 547.566 72.292L545.894 73.7H545.586L544.09 71.676C543.65 71.0893 543.093 70.62 542.418 70.268C541.773 69.8867 540.966 69.696 539.998 69.696C538.385 69.696 537.109 70.3413 536.17 71.632C535.261 72.8933 534.806 74.668 534.806 76.956C534.806 78.364 535.041 79.6987 535.51 80.96C535.98 82.192 536.757 83.204 537.842 83.996C538.957 84.7587 540.482 85.14 542.418 85.14C544.032 85.14 545.924 84.5533 548.094 83.38H548.226V83.82C547.552 85.0813 546.54 86.1667 545.19 87.076C543.87 87.9853 542.316 88.44 540.526 88.44ZM559.381 88.44C556.536 88.44 554.292 87.5747 552.649 85.844C551.007 84.1133 550.185 81.8253 550.185 78.98C550.185 76.78 550.611 74.844 551.461 73.172C552.341 71.4707 553.485 70.1507 554.893 69.212C556.331 68.244 557.885 67.76 559.557 67.76C561.875 67.76 563.693 68.5667 565.013 70.18C566.363 71.7933 567.037 74.1107 567.037 77.132L566.817 77.352H553.661C553.691 78.7013 553.955 79.9773 554.453 81.18C554.952 82.3533 555.744 83.3067 556.829 84.04C557.944 84.7733 559.425 85.14 561.273 85.14C562.887 85.14 564.779 84.5533 566.949 83.38H567.081V83.82C566.407 85.0813 565.395 86.1667 564.045 87.076C562.725 87.9853 561.171 88.44 559.381 88.44ZM558.853 69.696C557.445 69.696 556.287 70.1947 555.377 71.192C554.497 72.16 553.955 73.5387 553.749 75.328H563.693C563.371 73.3333 562.799 71.896 561.977 71.016C561.185 70.136 560.144 69.696 558.853 69.696ZM572.168 88.22C571.435 88.22 570.804 87.956 570.276 87.428C569.748 86.9 569.484 86.2693 569.484 85.536C569.484 84.8027 569.748 84.172 570.276 83.644C570.804 83.116 571.435 82.852 572.168 82.852C572.901 82.852 573.532 83.116 574.06 83.644C574.588 84.172 574.852 84.8027 574.852 85.536C574.852 86.2693 574.588 86.9 574.06 87.428C573.532 87.956 572.901 88.22 572.168 88.22Z" fill="black"/>
<defs>
<clipPath id="clip0">
<rect width="336" height="452" fill="white" transform="translate(108 121)"/>
</clipPath>
<clipPath id="clip1">
<rect width="332" height="469" fill="white" transform="translate(277 104)"/>
</clipPath>
</defs>
</svg>
