<svg width="609" height="573" viewBox="0 0 609 573" fill="none" xmlns="http://www.w3.org/2000/svg">
<g clip-path="url(#clip0)">
<path fill-rule="evenodd" clip-rule="evenodd" d="M118.201 137.142C113.285 134.705 106.732 137.532 109.466 143.975C112.394 150.876 123.22 150.961 129.335 150.824C128.723 150.792 126.752 144.464 126.077 143.508C124.088 140.688 121.223 138.643 118.201 137.142ZM174.839 260.859C176.079 261.919 174.94 260.958 174.839 260.859V260.859ZM113.465 168.353C110.589 170.552 110.451 174.434 112.801 177.062C115.599 180.191 120.709 180.077 124.523 179.772C126.248 179.634 135.46 178.896 133.276 177.389C133.444 177.452 133.795 177.606 134.17 177.815C134.372 178.554 134.585 179.289 134.806 180.021C134.751 180.053 134.705 180.087 134.647 180.119C134.71 180.091 134.754 180.061 134.809 180.034C137.025 187.353 140.178 194.322 144.307 200.842C142.762 200.233 141.162 199.773 139.539 199.568C134.733 198.96 124.624 202.695 129.999 209.093C135.154 215.227 143.178 208.646 149.028 207.739C154.702 215.658 160.958 223.247 167.514 230.583C167.113 230.709 166.76 230.971 166.558 231.379C163.928 230.045 161.187 228.136 158.753 227.619C155.24 226.874 148.038 226.423 145.383 229.567C142.117 233.433 145.618 236.573 149.475 237.315C155.069 238.39 162.392 235.657 167.775 233.81C168.391 233.919 169.063 233.739 169.464 233.247C169.583 233.208 169.702 233.169 169.818 233.132C176.457 240.432 183.351 247.491 190.202 254.395C190.129 254.391 190.056 254.387 189.98 254.383C188.193 253.211 186.276 252.249 184.198 251.745C179.391 250.574 173.735 250.568 169.835 254.046C165.949 257.509 164.572 263.566 168.592 267.455C176.639 275.239 188.494 257.49 192.552 256.749C199.515 263.692 206.877 270.179 214.355 276.534C213.506 276.276 212.635 276.086 211.735 276C204.402 275.298 187.191 284.288 196.19 293.133C204.032 300.84 213.109 286.005 219.428 280.817C226.475 286.741 233.56 292.624 240.446 298.737C236.69 297.74 233.061 297.593 229.035 298.809C224.869 300.07 218.146 303.216 220.78 308.84C223.459 314.56 231.531 311.957 235.735 310.141C238.029 309.151 242.626 305.808 246.663 304.4C257.651 314.774 267.169 326.2 274.375 339.661C278.873 348.065 282.287 357.044 284.69 366.273C286.223 372.163 289.245 382.056 288.64 389.723C291.524 374.377 286.31 355.946 280.693 342.229C275.529 329.616 267.8 318.543 258.747 308.576C261.019 301.743 280.14 291.888 268.709 285.54C262.639 282.184 256.422 287.753 255.095 293.652C254.183 297.705 255.572 302.798 257.046 306.733C254.198 303.694 251.237 300.754 248.187 297.911C243.971 293.982 239.654 290.166 235.295 286.399C242.477 279.652 249.274 260.364 239.645 257.21C225.425 252.565 232.272 278.874 233.264 283.806C233.546 283.822 233.765 283.737 233.927 283.555C233.847 284.006 233.754 284.489 233.641 284.976C225.3 277.803 216.835 270.772 208.648 263.428C209.386 262.883 210.558 260.8 211.48 259.691C213.56 257.192 215.549 254.581 217.004 251.657C219.301 247.037 221.516 239.666 215.427 236.949C208.805 233.988 205.658 242.323 205.611 247.296C205.58 250.735 206.517 254.002 207.004 257.373C207.157 258.424 206.57 263.163 208.002 261.125C207.934 261.876 207.925 262.421 207.958 262.807C206.488 261.482 205.03 260.142 203.581 258.793C203.648 258.623 203.698 258.437 203.709 258.222C203.787 256.739 202.295 256.168 201.249 256.602C199.337 254.785 197.443 252.945 195.583 251.069C191.642 247.093 187.643 243.004 183.672 238.828C184.534 238.087 184.191 237.062 184.997 236.277C185.801 235.493 187.386 235.059 188.331 234.331C190.711 232.498 192.684 229.828 194.11 227.2C196.466 222.858 199.51 213.75 192.629 211.681C185.536 209.544 181.935 218.312 181.479 223.794C181.39 224.856 182.185 234.424 182.794 237.899C175.446 230.138 168.219 222.085 161.672 213.892C163.657 213.874 169.285 209.806 170.423 208.696C173.2 205.989 177.613 200.008 172.746 196.842C168.418 194.035 163.083 198.101 161.232 202.053C160.928 202.704 159.856 208.761 159.772 211.479C157.062 208.004 154.477 204.51 152.072 201.004C150.468 198.673 148.969 196.28 147.567 193.837C147.904 193.646 148.222 193.312 148.522 192.897C155.74 191.672 164.942 180.41 156.464 176.491C152.427 174.628 148.05 178.474 146.072 181.623C145.667 182.267 145.011 185.506 144.477 188.061C140.443 179.967 137.359 171.397 135.013 162.611C135.641 162.455 136.173 161.975 136.243 161.149C139.748 159.151 142.515 157.488 144.962 153.646C146.481 151.26 149.218 145.808 144.753 144.484C138.941 142.76 135.291 151.636 134.816 156.008C134.76 156.516 134.762 157.992 134.781 159.344C134.58 159.317 134.376 159.32 134.176 159.355C132.841 153.915 131.776 148.404 130.928 142.885C134.1 141.864 134.649 125.206 132.537 122.834C127.816 117.523 124.486 125.195 124.738 129.249C125.036 134.03 127.202 138.38 129.782 142.239C130.059 142.648 129.98 142.628 130.051 142.059C130.091 142.34 130.185 142.548 130.325 142.698C130.192 145.215 129.932 147.792 130.057 150.019C130.414 156.396 131.157 162.811 132.236 169.106C132.498 170.637 132.798 172.156 133.135 173.661C130.586 171.489 127.148 169.559 125.803 168.956C122.313 167.391 116.933 165.702 113.465 168.353ZM289.05 389.745C288.888 391.968 288.486 394.005 287.737 395.684C288.299 393.772 288.73 391.785 289.05 389.745Z" fill="#F2F2F2"/>
<g opacity="0.7">
<path opacity="0.7" fill-rule="evenodd" clip-rule="evenodd" d="M213.822 287.77C227.474 287.062 244.359 295.031 245.815 309.871C246.873 320.653 246.546 331.405 248.183 342.172C249.492 350.776 252.261 359.036 256.038 366.874C259.67 374.411 267.203 380.827 269.162 388.879C270.411 394.01 269.712 401.227 267.99 406.245C265.896 412.347 267.009 411.865 271.182 416.985C279.359 427.018 286.723 437.307 291.93 449.29C299.43 466.55 304.348 486.725 301.564 505.618C301.21 508.017 300.79 516.627 297.486 517.229C293.796 517.902 295.522 512.978 295.719 511.387C296.974 501.238 298.09 492.367 296.575 482.059C290.732 442.288 262.201 416.085 243.623 382.331C242.602 380.59 240.446 376.445 238.947 373.711C236.58 369.393 234.201 361.179 230.997 357.977C224.963 351.947 230.511 364.071 231.686 366.385C233.173 369.313 234.808 372.425 236.332 374.99C243.302 386.882 251.082 399.862 258.28 412.121C227.147 419.214 205.221 381.785 196.866 357.178C189.982 336.905 181.746 289.505 213.822 287.77Z" fill="#69A1AC"/>
<path opacity="0.7" fill-rule="evenodd" clip-rule="evenodd" d="M396.805 250.121C373.983 251.932 359.331 266.992 352.511 288.056C348.835 299.407 348.413 311.068 346.37 322.734C343.297 340.284 336.686 353.585 323.764 366.089C319.762 369.961 316.812 373.937 314.716 378.191C310.554 382.438 306.931 387.244 304.269 393.12C300.869 400.624 299.907 409.628 303.832 417.109C304.888 419.121 307.521 423.158 310.25 424.992C300.033 446.752 294.415 470.584 295.048 494.386C295.431 508.753 296.132 523.127 296.951 537.477C297.171 541.33 298.426 547.693 300.31 541.231C302.035 535.32 299.872 526.041 299.672 519.867C298.698 489.786 297.866 462.435 310.248 434.331C311.547 431.385 312.924 428.463 314.357 425.565C314.442 425.516 314.52 425.457 314.599 425.4C314.653 425.442 314.703 425.487 314.758 425.529C314.849 425.365 314.975 425.171 315.121 424.954C315.532 424.529 315.891 423.993 316.233 423.395C317.331 421.873 318.574 420.084 318.581 419.105C318.581 419.098 318.577 419.086 318.577 419.078C326.242 406.565 335.022 394.742 343.99 383.149C343.923 383.234 353.718 369.897 352.204 377.272C351.474 380.827 344.269 387.595 341.359 391.36C334.922 399.735 327.363 410.348 321.082 420.61C320.237 421.096 319.043 423.48 318.179 425.257C317.702 426.157 317.257 427.064 316.82 427.855C339.077 435.208 356.39 420.396 368.196 403.168C368.21 403.147 368.223 403.126 368.236 403.106C371.829 398.346 375.509 393.619 380.107 389.856C387.777 383.576 395.992 382.468 405.036 379.378C429.7 370.951 440.186 338.987 443.516 315.27C447.274 288.513 428.894 247.483 396.805 250.121Z" fill="#89C5CC"/>
<path opacity="0.7" fill-rule="evenodd" clip-rule="evenodd" d="M351.723 175.191C328.299 199.569 316.982 233.383 308.022 265.172C298.014 300.676 291.403 336.728 291.149 373.642C290.983 397.895 290.323 422.299 291.739 446.523C292.241 455.126 293.099 463.745 294.462 472.255C294.575 472.955 297.626 491.958 300.545 487.53C302.205 485.012 297.417 467.817 297.056 464.953C295.021 448.822 294.548 432.573 294.647 416.326C294.81 389.575 294.021 362.962 296.733 336.31C297.137 332.33 297.457 328.151 298.402 324.258C299.406 320.119 298.127 321.926 301.396 320.287C304.573 318.695 308.498 318.922 311.794 316.924C324.866 308.997 331.553 288.635 336.758 275.275C342.711 259.998 346.329 243.706 349.219 227.628C351.341 215.816 352.858 204.075 353.716 192.11C353.987 188.339 354.003 184.396 354.744 180.688C354.944 179.688 355.945 177.919 355.909 177.033C355.832 175.158 354.701 174.056 354.608 172.481C353.627 173.363 352.665 174.267 351.723 175.191Z" fill="#89C5CC"/>
<path opacity="0.7" fill-rule="evenodd" clip-rule="evenodd" d="M224 500C224 540.317 256.683 573 297 573C337.317 573 370 540.317 370 500" fill="#89C5CC"/>
<path opacity="0.7" fill-rule="evenodd" clip-rule="evenodd" d="M302.857 500.232H299C299.268 495.393 299.621 490.562 300.43 485.776C303.525 467.473 313.2 440.591 334.42 437.62C335.203 437.51 338.083 437.491 341.571 437.696C343.224 436.772 345.076 436.213 347.028 436.085C365.095 434.753 385.271 449.329 393.986 464.497C401.012 476.726 399.828 492.785 395.489 505.778C392.583 514.476 386.241 526.878 375.665 526.999C362.433 527.15 361.795 510.796 361.539 501.236C361.199 488.525 359.593 477.453 349.577 468.789C347.243 466.771 344.692 464.995 342.334 463.005C338.642 459.89 334.562 456.7 334.086 451.546C333.43 444.436 337.443 443.156 343.571 444.477C344.616 444.702 355.139 449.424 353.581 445.692C353.105 444.552 351.368 443.648 349.175 442.971C343.501 442.354 336.733 441.638 334.787 442.066C313.792 446.672 305.617 475.755 303.446 494.233C303.212 496.227 303.023 498.228 302.857 500.232Z" fill="#69A1AC"/>
</g>
</g>
<g clip-path="url(#clip1)">
<path fill-rule="evenodd" clip-rule="evenodd" d="M478.406 285.749C482.41 280.341 485.121 273.712 484.668 266.285C483.363 244.884 457.472 249.592 452.436 260.393C447.399 271.194 447.998 298.592 454.507 300.523C457.103 301.293 462.632 299.407 468.26 295.504L464.728 324.259H485.586L478.406 285.749Z" fill="#B28B67"/>
<path fill-rule="evenodd" clip-rule="evenodd" d="M457.136 253.271C457.614 252.943 458.614 252.251 459.12 252C459.24 251.939 460.079 251.251 460.101 251.259C460.737 251.506 462.576 252.416 462.734 253.203C462.759 253.263 462.783 253.319 462.806 253.368C463.067 253.913 463.306 254.472 463.534 255.037C464.035 256.279 464.467 257.576 464.88 258.864C465.684 261.371 466.382 263.936 467.024 266.508C467.678 269.126 468.233 271.774 468.854 274.402C469.748 278.185 470.892 281.874 471.78 285.655C472.347 288.069 472.662 290.512 472.513 292.996C472.512 293.026 472.511 293.056 472.508 293.086C472.508 293.098 472.506 293.111 472.505 293.123C472.48 293.505 472.444 293.888 472.396 294.272C472.354 294.6 472.311 294.93 472.266 295.259C471.456 293.399 470.836 291.349 470.18 289.403C470.115 289.213 470.054 289.021 469.994 288.828C469.782 288.434 469.566 288.042 469.348 287.652C467.971 285.191 466.588 282.739 465.267 280.233C462.892 275.727 460.538 271.125 457.722 266.987C456.89 265.765 456.039 264.562 455.218 263.33C454.751 262.629 454.296 261.916 453.855 261.191C453.54 260.672 452.172 258.864 452.667 257.777C452.921 257.221 455.897 254.122 457.136 253.271Z" fill="#2C2C2C"/>
<path fill-rule="evenodd" clip-rule="evenodd" d="M458.969 252.09C458.504 252.27 458.731 251.158 459.181 250.766C461.265 248.953 469.236 248.294 476.173 249.951C480.819 251.061 486.223 253.823 489.935 257.375C493.281 260.576 495.582 265.708 496.766 270.667C498.01 275.874 498.199 281.302 497.506 286.641C497.353 287.813 497.026 288.931 496.844 290.079C496.639 291.372 496.533 292.616 496.167 293.874C495.943 294.644 495.563 295.399 495.371 296.173C495.153 297.057 495.286 297.874 495.445 298.773C495.705 300.238 496.026 301.699 496.483 303.098C497.17 305.199 498.002 307.167 498.525 309.347C499.219 312.247 502.126 321.686 500.002 324.259H459.572C460.59 321.064 463.646 317.304 464.265 313.883C464.629 311.868 464.802 307.468 464.84 307.308C465.751 300.082 467.53 296.631 468.645 295.378C469.759 294.126 471.243 293.741 471.319 292.655C471.635 288.162 470.083 283.857 468.944 279.663C467.587 274.666 466.592 269.544 465.193 264.564C464.574 262.358 461.382 251.158 458.969 252.09Z" fill="#8991DC"/>
<path fill-rule="evenodd" clip-rule="evenodd" d="M473.144 257.259C474.669 262.825 474.997 265.796 474.669 273.401H475.417C476.814 266.225 475.57 259.468 474.084 257.259H473.144ZM493.598 271.624C490.757 279.556 489.461 284.24 481.528 290.658L482.14 291.152C490.016 286.016 492.31 279.89 494.195 271.954L493.598 271.624ZM481.925 263.552C480.634 274.81 480.257 281.241 473.535 293.557L474.25 293.809C481.169 283.085 482.265 274.333 482.592 263.613L481.925 263.552ZM489.35 296.996L488.738 296.14C480.388 299.149 481.319 305.362 470.802 311.653L471.681 312.266C480.889 307.893 483.042 298.515 489.35 296.996Z" fill="black" fill-opacity="0.2"/>
<path fill-rule="evenodd" clip-rule="evenodd" d="M523.286 449.259H456.143L447.346 573.259H547.293L523.286 449.259Z" fill="#C5CFD6"/>
<path fill-rule="evenodd" clip-rule="evenodd" d="M523.286 449.259H502.636L490.276 573.259H547.293L523.286 449.259Z" fill="black" fill-opacity="0.1"/>
<path fill-rule="evenodd" clip-rule="evenodd" d="M379.596 428.015C372.437 423.069 360.426 429.424 360.435 436.498C360.459 457.662 377.246 557.41 378.122 563.716C378.999 570.022 388.388 571.687 388.935 563.737C389.805 551.086 391.421 507.292 389.804 487.022C389.136 478.655 388.417 470.686 387.71 463.577C396.518 481.88 410.141 508.085 428.579 542.193L438.588 536.931C430.728 507.135 424.283 486.1 419.253 473.826C410.64 452.809 402.564 434.811 399.166 428.471C393.819 418.499 384.513 421.978 379.596 428.015Z" fill="#B28B67"/>
<path fill-rule="evenodd" clip-rule="evenodd" d="M437.872 520.385L403.519 426.747C395.289 411.514 372.214 429.846 375.021 438.681C381.393 458.739 413.798 523.674 415.696 529.649L437.872 520.385Z" fill="#020624"/>
<path fill-rule="evenodd" clip-rule="evenodd" d="M440.124 530.824C442.201 532.725 443.543 534.291 444.151 535.52C444.89 537.015 445.74 539.35 446.701 542.526C445.108 543.6 430.793 553.249 403.755 571.472C400.652 568.208 400.224 565.605 402.47 563.664C404.716 561.723 406.571 560.088 408.033 558.758L423.203 535.616C423.495 535.171 424.038 535.055 424.416 535.358C424.422 535.363 424.429 535.368 424.435 535.374L427.394 537.897C430.179 537.528 432.267 536.874 433.659 535.936C434.79 535.174 436.105 533.624 437.606 531.287L437.606 531.287C438.182 530.39 439.266 530.147 440.029 530.743C440.061 530.768 440.093 530.795 440.124 530.824Z" fill="#E4E4E4"/>
<path fill-rule="evenodd" clip-rule="evenodd" d="M391.133 558.661C392.106 561.648 392.592 563.882 392.592 565.365C392.592 567.168 392.331 569.8 391.808 573.259C389.99 573.259 373.65 573.259 342.789 573.259C341.515 568.414 342.251 565.798 344.995 565.412C347.74 565.025 350.019 564.676 351.835 564.365L374.618 552.678C375.057 552.453 375.571 552.68 375.766 553.184C375.77 553.193 375.773 553.202 375.776 553.21L377.24 557.298C379.781 558.662 381.846 559.344 383.434 559.344C384.725 559.344 386.507 558.744 388.781 557.545L388.781 557.545C389.654 557.084 390.685 557.525 391.086 558.529C391.103 558.573 391.119 558.617 391.133 558.661Z" fill="#E4E4E4"/>
<path fill-rule="evenodd" clip-rule="evenodd" d="M358.027 443.692C358.027 470.259 368.992 532.23 368.999 538.079L392.592 538.1C389.138 482.805 387.914 454.859 388.918 454.264C390.425 453.37 450.669 461.184 468.738 461.184C494.792 461.184 505.57 442.28 506.445 407.259H454.832C444.323 408.553 389.507 421.275 369.15 425.648C360.435 427.52 358.027 436.374 358.027 443.692Z" fill="#0E1759"/>
<path fill-rule="evenodd" clip-rule="evenodd" d="M411.283 394.72L386.663 422.355C379.5 425.87 373.63 429.753 369.055 434.001C368.026 435.429 366.906 438.166 371.747 436.941C376.588 435.717 381.728 434.679 382.638 436.491C383.548 438.302 380.867 441.078 382.548 443.449C383.67 445.029 387.44 440.002 393.859 428.367L419.461 411L411.283 394.72ZM531.675 369.709L512.644 369.791C527.139 423.825 534.833 452.116 535.727 454.665C537.738 460.399 533.483 469.133 531.663 473.826C537.59 476.878 536.958 465.576 544.436 469.579C551.261 473.232 556.452 479.852 564.337 474.254C565.307 473.565 566.369 470.974 563.802 468.949C557.408 463.904 548.192 455.074 546.947 452.168C545.249 448.204 540.159 420.718 531.675 369.709Z" fill="#B28B67"/>
<path fill-rule="evenodd" clip-rule="evenodd" d="M473.684 307.591L466.169 306.108C454.33 354.26 393.502 387.082 389.768 405.083C388.398 411.684 392.528 415.021 390.395 417.032L400.163 425.259C401.817 423.039 405.347 427.101 412.719 424.259C420.091 421.418 473.684 364.607 473.684 307.591Z" fill="#DB2721"/>
<path fill-rule="evenodd" clip-rule="evenodd" d="M461.042 313.993C461.909 377.742 429.88 394.004 437.014 419.578C442.906 440.696 499.295 463.398 509.052 442.697C513.002 434.318 514.794 424.183 514.998 413.165C517.492 421.63 519.464 428.917 520.915 435.027C523.418 445.567 533.121 447.242 533.121 451.303L545.906 447.242C545.038 441.726 551.065 439.04 549.449 426.716C542.209 371.499 522.755 331.474 491.088 306.64L490.761 301.25C490.627 299.046 488.966 297.384 487.05 297.538L463.642 299.422C461.726 299.576 460.282 301.487 460.416 303.691L461.042 313.993Z" fill="#FF4133"/>
</g>
<path fill-rule="evenodd" clip-rule="evenodd" d="M112.284 184.627C105.96 180.31 100.855 174.31 99.336 166.462C94.9604 143.847 127.438 140.377 136.503 149.954C145.568 159.531 152.46 188.137 145.161 192.239C142.25 193.875 135.068 193.703 127.208 191.47L139.452 220.152L114.34 226.881L112.284 184.627Z" fill="#B28B67"/>
<path fill-rule="evenodd" clip-rule="evenodd" d="M121.001 163.283C125.518 176.297 129.839 182.252 133.963 181.146C140.15 179.489 144.356 174.19 147.071 173.462C149.049 172.932 149.265 175.505 148.441 177.676C147.761 179.467 142.879 182.327 143.503 184.654C144.126 186.982 147.808 184.065 148.177 185.446C148.789 187.729 150.671 191.826 146.673 192.898C142.626 193.982 130.632 195.629 127.049 190.209C124.736 186.711 121.773 178.973 118.16 166.994C117.907 167.031 117.653 167.083 117.4 167.151C113.933 168.08 111.869 171.619 112.789 175.055C113.257 176.8 114.404 178.182 115.873 179C114.965 181.421 113.906 183.98 112.628 186.671C104.503 184.381 96.0333 173.575 99.7448 160.02C100.1 153.771 103.566 149.556 108.248 146.775C111.894 143.975 116.1 142.643 119.968 142.699C127.174 141.41 134.036 141.854 136.158 142.641C137.93 149.252 137.163 151.56 126.077 154.345C123.744 156.492 122.314 159.496 121.001 163.283Z" fill="#191847"/>
<path fill-rule="evenodd" clip-rule="evenodd" d="M126.566 314.322L179.733 448.368L215.392 561.693H229.473L174.958 314.322L126.566 314.322Z" fill="#997659"/>
<path fill-rule="evenodd" clip-rule="evenodd" d="M115.86 314.322C115.294 361.427 107.038 424.846 105.719 427.782C104.839 429.74 74.4808 454.633 14.6432 502.462L24.3415 512.8C94.9444 471.793 131.879 448.554 135.147 443.085C140.047 434.881 156.002 359.387 168.812 314.322H115.86Z" fill="#B28B67"/>
<path fill-rule="evenodd" clip-rule="evenodd" d="M13.2819 498.99C10.0248 500.141 7.78102 501.233 6.55069 502.265C5.05433 503.521 3.07994 505.602 0.627516 508.509C2.0841 510.245 15.1746 525.846 39.8991 555.312C44.9404 553.154 46.522 550.63 44.6439 547.741C42.7657 544.852 41.2287 542.432 40.0327 540.482L31.4773 510.592C31.3127 510.016 30.713 509.684 30.1378 509.848C30.128 509.851 30.1182 509.854 30.1084 509.857L25.5432 511.305C22.376 509.829 20.156 508.332 18.8834 506.816C17.8495 505.584 16.9193 503.464 16.0927 500.458L16.0927 500.458C15.7756 499.304 14.5832 498.626 13.4295 498.943C13.3797 498.957 13.3305 498.973 13.2819 498.99Z" fill="#E4E4E4"/>
<path fill-rule="evenodd" clip-rule="evenodd" d="M209.626 556.568C208.414 559.803 207.808 562.223 207.808 563.829C207.808 565.783 208.134 568.633 208.784 572.381C211.05 572.381 231.416 572.381 269.88 572.381C271.468 567.132 270.551 564.298 267.131 563.88C263.71 563.461 260.868 563.083 258.606 562.746L230.209 550.087C229.663 549.843 229.022 550.088 228.779 550.635C228.775 550.644 228.771 550.654 228.767 550.663L226.941 555.091C223.775 556.568 221.201 557.307 219.222 557.307C217.613 557.307 215.392 556.657 212.557 555.358L212.557 555.358C211.47 554.86 210.184 555.337 209.685 556.425C209.664 556.472 209.644 556.519 209.626 556.568Z" fill="#E4E4E4"/>
<path fill-rule="evenodd" clip-rule="evenodd" d="M162.313 550.021L229.261 542.783L179.644 314.322H119.681L162.313 550.021Z" fill="#69A1AC"/>
<path fill-rule="evenodd" clip-rule="evenodd" d="M28.4912 485.783L72.4052 537.561C118.659 487.239 145.625 454.403 153.303 439.055C160.981 423.707 167.884 382.129 174.01 314.322H106.503C103.156 373.976 100.901 405.191 99.7355 407.967C98.5704 410.743 74.8223 436.681 28.4912 485.783Z" fill="#89C5CC"/>
<path fill-rule="evenodd" clip-rule="evenodd" d="M209.487 289.468L247.899 308.332C257.565 309.183 265.819 310.906 272.662 313.503C274.358 314.571 276.6 316.945 270.452 317.551C264.304 318.156 257.864 319.068 257.39 321.275C256.916 323.481 261.021 325.296 259.819 328.372C259.018 330.423 252.87 326.719 241.376 317.26L205.227 309.297L209.487 289.468ZM78.9876 313.363L101.296 309.52C95.3274 356.162 92.0333 380.933 91.4133 383.832C90.0182 390.355 96.8764 398.705 99.9887 403.293C93.2845 407.815 91.9443 395.681 83.5157 401.548C75.8225 406.904 70.6892 415.054 59.963 410.818C58.6442 410.297 56.8553 407.776 59.6267 405.071C66.5314 398.332 76.1896 386.964 77.1739 383.61C78.5161 379.035 79.1207 355.619 78.9876 313.363Z" fill="#B28B67"/>
<path fill-rule="evenodd" clip-rule="evenodd" d="M125.927 209.111L134.874 205.91C174.287 229.295 198.31 283.336 245.542 305.88L237.64 320.115C163.28 323.981 133.085 258.221 125.927 209.111Z" fill="#E87613"/>
<path fill-rule="evenodd" clip-rule="evenodd" d="M106.055 331.553C143.042 325.032 170.248 320.234 187.675 317.162C191.404 316.504 189.757 311.269 188.741 308.66C177.016 278.548 146.794 249.189 138.961 204.764L114.77 205.242C100.792 239.84 100.823 279.397 106.055 331.553Z" fill="#DDE3E9"/>
<path fill-rule="evenodd" clip-rule="evenodd" d="M90.7746 241.058C87.1828 240.683 84.0728 238.88 81.4446 235.648C70.1153 221.714 71.723 212.66 80.426 208.242C89.129 203.824 98.3455 208.138 112.997 205.555C113.794 205.414 114.533 205.335 115.213 205.318L122.657 204.436C156.378 272.021 170.599 318.571 165.321 344.088L101.08 355.415C98.8311 364.918 96.4991 372.991 94.084 379.634L76.5794 382.72C65.5859 330.007 70.3176 282.786 90.7746 241.058Z" fill="#FF9B21"/>
<path fill-rule="evenodd" clip-rule="evenodd" d="M108.611 316.324C113.597 332.789 119.034 344.418 124.92 351.212L101.08 355.415C103.703 344.331 106.214 331.3 108.611 316.324Z" fill="black" fill-opacity="0.1"/>
<path d="M101.9 38L94.9919 20.268L92.0439 18.904V18.2H102.56V18.904L98.9519 20.224V20.488L103.528 32.676H103.704L109.952 18.2H110.876L117.124 32.544H117.3L121.744 20.752V20.488L118.576 18.904V18.2H127.2V18.904L123.944 20.444L116.596 38H115.672L109.336 23.656L102.824 38H101.9ZM130.849 38.44C129.47 38.44 128.326 38.044 127.417 37.252C126.507 36.4307 126.053 35.3013 126.053 33.864C126.053 32.4267 126.581 31.18 127.637 30.124C128.722 29.068 130.526 28.2467 133.049 27.66L137.229 26.692V23.48C137.229 22.4827 136.818 21.632 135.997 20.928C135.205 20.1947 134.295 19.828 133.269 19.828C132.154 19.828 131.377 20.136 130.937 20.752C130.497 21.3387 130.277 22.1307 130.277 23.128V24.36L130.057 24.58H127.769C127.329 24.58 127.021 24.5067 126.845 24.36C126.698 24.2133 126.625 23.876 126.625 23.348C126.625 22.7027 126.815 22.0427 127.197 21.368C127.578 20.6933 128.165 20.1067 128.957 19.608C129.778 19.08 130.629 18.64 131.509 18.288C132.418 17.936 133.386 17.76 134.413 17.76C135.439 17.76 136.437 17.9067 137.405 18.2C138.402 18.4933 139.209 18.992 139.825 19.696C140.441 20.3707 140.749 21.324 140.749 22.556V35.052C140.954 35.2573 141.247 35.4333 141.629 35.58C142.01 35.7267 142.538 35.8 143.213 35.8H144.885L145.017 35.888V36.02C144.665 36.6653 144.137 37.2373 143.433 37.736C142.758 38.2053 141.922 38.44 140.925 38.44C140.015 38.44 139.267 38.2053 138.681 37.736C138.123 37.2373 137.727 36.592 137.493 35.8H137.229C136.466 36.5627 135.513 37.1933 134.369 37.692C133.254 38.1907 132.081 38.44 130.849 38.44ZM129.485 32.984C129.485 34.8027 130.585 35.712 132.785 35.712C133.489 35.712 134.178 35.6387 134.853 35.492C135.557 35.3453 136.349 35.0813 137.229 34.7V28.188C134.882 28.628 133.166 29.0973 132.081 29.596C130.995 30.0653 130.291 30.5787 129.969 31.136C129.646 31.6933 129.485 32.3093 129.485 32.984ZM145.424 38V37.296L148.196 35.888V22.776L145.556 20.488V20.18L151.012 17.76H151.276L151.672 21.016H151.892C153.007 19.9013 154.077 19.08 155.104 18.552C156.16 18.024 157.319 17.76 158.58 17.76C160.311 17.76 161.719 18.2 162.804 19.08C163.919 19.9307 164.476 21.2067 164.476 22.908V35.888L167.248 37.296V38H157.832V37.296L160.956 35.888V24.976C160.956 23.6853 160.545 22.7027 159.724 22.028C158.932 21.3533 157.891 21.016 156.6 21.016C155.808 21.016 154.928 21.148 153.96 21.412C153.021 21.676 152.273 22.0573 151.716 22.556V35.888L154.84 37.296V38H145.424ZM175.873 38.44C174.583 38.44 173.468 38.0587 172.529 37.296C171.591 36.5333 171.121 35.4627 171.121 34.084V20.268H167.513V20.004L171.253 18.2L174.377 13.36H174.641V18.2H180.449V20.268H174.641V33.336C174.641 34.0987 174.979 34.656 175.653 35.008C176.328 35.36 177.12 35.536 178.029 35.536C178.587 35.536 179.1 35.5067 179.569 35.448C180.068 35.3893 180.493 35.316 180.845 35.228H180.977V35.668C180.684 36.3427 180.097 36.9733 179.217 37.56C178.367 38.1467 177.252 38.44 175.873 38.44ZM198.028 38.44C196.738 38.44 195.623 38.0587 194.684 37.296C193.746 36.5333 193.276 35.4627 193.276 34.084V20.268H189.668V20.004L193.408 18.2L196.532 13.36H196.796V18.2H202.604V20.268H196.796V33.336C196.796 34.0987 197.134 34.656 197.808 35.008C198.483 35.36 199.275 35.536 200.184 35.536C200.742 35.536 201.255 35.5067 201.724 35.448C202.223 35.3893 202.648 35.316 203 35.228H203.132V35.668C202.839 36.3427 202.252 36.9733 201.372 37.56C200.522 38.1467 199.407 38.44 198.028 38.44ZM214.111 38.44C212.175 38.44 210.474 37.9853 209.007 37.076C207.57 36.1667 206.44 34.9347 205.619 33.38C204.827 31.8253 204.431 30.0653 204.431 28.1C204.431 26.1347 204.827 24.3747 205.619 22.82C206.44 21.2653 207.57 20.0333 209.007 19.124C210.474 18.2147 212.175 17.76 214.111 17.76C216.047 17.76 217.734 18.2147 219.171 19.124C220.638 20.0333 221.767 21.2653 222.559 22.82C223.38 24.3747 223.791 26.1347 223.791 28.1C223.791 30.0653 223.38 31.8253 222.559 33.38C221.767 34.9347 220.638 36.1667 219.171 37.076C217.734 37.9853 216.047 38.44 214.111 38.44ZM214.727 36.548C215.9 36.548 216.868 36.1813 217.631 35.448C218.394 34.7147 218.951 33.776 219.303 32.632C219.655 31.4587 219.831 30.2413 219.831 28.98C219.831 27.4253 219.611 25.9293 219.171 24.492C218.76 23.0547 218.086 21.8813 217.147 20.972C216.238 20.0627 215.05 19.608 213.583 19.608C212.38 19.608 211.398 19.9747 210.635 20.708C209.872 21.4413 209.3 22.38 208.919 23.524C208.567 24.668 208.391 25.8853 208.391 27.176C208.391 28.7307 208.611 30.2267 209.051 31.664C209.491 33.1013 210.18 34.2747 211.119 35.184C212.058 36.0933 213.26 36.548 214.727 36.548ZM241.745 38.44C240.454 38.44 239.339 38.0587 238.401 37.296C237.462 36.5333 236.993 35.4627 236.993 34.084V20.268H233.385V20.004L237.125 18.2L240.249 13.36H240.513V18.2H246.321V20.268H240.513V33.336C240.513 34.0987 240.85 34.656 241.525 35.008C242.199 35.36 242.991 35.536 243.901 35.536C244.458 35.536 244.971 35.5067 245.441 35.448C245.939 35.3893 246.365 35.316 246.717 35.228H246.849V35.668C246.555 36.3427 245.969 36.9733 245.089 37.56C244.238 38.1467 243.123 38.44 241.745 38.44ZM257.343 38.44C254.498 38.44 252.254 37.5747 250.611 35.844C248.969 34.1133 248.147 31.8253 248.147 28.98C248.147 26.78 248.573 24.844 249.423 23.172C250.303 21.4707 251.447 20.1507 252.855 19.212C254.293 18.244 255.847 17.76 257.519 17.76C259.837 17.76 261.655 18.5667 262.975 20.18C264.325 21.7933 264.999 24.1107 264.999 27.132L264.779 27.352H251.623C251.653 28.7013 251.917 29.9773 252.415 31.18C252.914 32.3533 253.706 33.3067 254.791 34.04C255.906 34.7733 257.387 35.14 259.235 35.14C260.849 35.14 262.741 34.5533 264.911 33.38H265.043V33.82C264.369 35.0813 263.357 36.1667 262.007 37.076C260.687 37.9853 259.133 38.44 257.343 38.44ZM256.815 19.696C255.407 19.696 254.249 20.1947 253.339 21.192C252.459 22.16 251.917 23.5387 251.711 25.328H261.655C261.333 23.3333 260.761 21.896 259.939 21.016C259.147 20.136 258.106 19.696 256.815 19.696ZM266.996 38V37.296L269.768 35.888V10.016L267.128 7.728V7.42L273.024 5H273.288V35.888L276.06 37.296V38H266.996ZM277.729 38V37.296L280.501 35.888V10.016L277.861 7.728V7.42L283.757 5H284.021V35.888L286.793 37.296V38H277.729ZM298.979 48.604C298.304 48.604 297.879 48.5013 297.703 48.296C297.556 48.12 297.483 47.7973 297.483 47.328V45.128L297.659 44.952H299.683C300.416 44.952 300.974 44.8787 301.355 44.732C301.736 44.6147 302.088 44.2773 302.411 43.72C302.734 43.192 303.188 42.312 303.775 41.08L305.315 37.648L297.263 20.268L294.315 18.904V18.2H304.831V18.904L301.223 20.268V20.488L307.075 33.248H307.207L312.135 20.752V20.488L308.835 18.904V18.2H317.459V18.904L314.159 20.4L305.491 41.476C305.227 42.1507 304.992 42.708 304.787 43.148C304.611 43.6173 304.406 44.0573 304.171 44.468C303.936 44.908 303.599 45.436 303.159 46.052C302.572 46.9027 301.912 47.5333 301.179 47.944C300.446 48.384 299.712 48.604 298.979 48.604ZM326.148 38.44C324.212 38.44 322.51 37.9853 321.044 37.076C319.606 36.1667 318.477 34.9347 317.656 33.38C316.864 31.8253 316.468 30.0653 316.468 28.1C316.468 26.1347 316.864 24.3747 317.656 22.82C318.477 21.2653 319.606 20.0333 321.044 19.124C322.51 18.2147 324.212 17.76 326.148 17.76C328.084 17.76 329.77 18.2147 331.208 19.124C332.674 20.0333 333.804 21.2653 334.596 22.82C335.417 24.3747 335.828 26.1347 335.828 28.1C335.828 30.0653 335.417 31.8253 334.596 33.38C333.804 34.9347 332.674 36.1667 331.208 37.076C329.77 37.9853 328.084 38.44 326.148 38.44ZM326.764 36.548C327.937 36.548 328.905 36.1813 329.668 35.448C330.43 34.7147 330.988 33.776 331.34 32.632C331.692 31.4587 331.868 30.2413 331.868 28.98C331.868 27.4253 331.648 25.9293 331.208 24.492C330.797 23.0547 330.122 21.8813 329.184 20.972C328.274 20.0627 327.086 19.608 325.62 19.608C324.417 19.608 323.434 19.9747 322.672 20.708C321.909 21.4413 321.337 22.38 320.956 23.524C320.604 24.668 320.428 25.8853 320.428 27.176C320.428 28.7307 320.648 30.2267 321.088 31.664C321.528 33.1013 322.217 34.2747 323.156 35.184C324.094 36.0933 325.297 36.548 326.764 36.548ZM345.729 38.44C343.999 38.44 342.576 38.0147 341.461 37.164C340.376 36.284 339.833 34.9933 339.833 33.292V20.268L337.061 18.904V18.2H343.353V31.224C343.353 32.5147 343.749 33.4973 344.541 34.172C345.363 34.8467 346.419 35.184 347.709 35.184C348.501 35.184 349.367 35.052 350.305 34.788C351.273 34.524 352.036 34.1427 352.593 33.644V20.268L349.469 18.904V18.2H356.113V36.02L359.237 37.296V38H352.593V35.228H352.373C351.259 36.3427 350.173 37.164 349.117 37.692C348.091 38.1907 346.961 38.44 345.729 38.44ZM360.581 38V37.296L363.353 35.888V22.776L360.713 20.488V20.18L366.169 17.76H366.433L366.829 21.5H367.005C367.68 20.4147 368.296 19.608 368.853 19.08C369.44 18.5227 369.983 18.1707 370.481 18.024C370.98 17.848 371.479 17.76 371.977 17.76C372.212 17.76 372.476 17.804 372.769 17.892C373.092 17.98 373.356 18.068 373.561 18.156C373.884 18.3027 374.177 18.4787 374.441 18.684C374.735 18.8893 374.881 19.124 374.881 19.388C374.881 19.652 374.823 19.916 374.705 20.18L373.825 22.336H373.517L371.845 21.676C371.523 21.5293 371.2 21.4413 370.877 21.412C370.584 21.3827 370.291 21.368 369.997 21.368C368.765 21.368 367.724 21.9987 366.873 23.26V35.888L369.997 37.296V38H360.581ZM391.754 38.44C390.375 38.44 389.187 38.3227 388.19 38.088C387.192 37.8533 386.18 37.472 385.154 36.944V32.016H385.77L387.178 34.436C388.087 36.0493 389.568 36.856 391.622 36.856C392.795 36.856 393.704 36.5773 394.35 36.02C395.024 35.4627 395.362 34.7 395.362 33.732C395.362 32.8813 395.156 32.2213 394.746 31.752C394.335 31.2827 393.748 30.872 392.986 30.52C392.252 30.1387 391.372 29.7133 390.346 29.244C388.85 28.5693 387.691 27.836 386.87 27.044C386.078 26.2227 385.682 25.0787 385.682 23.612C385.682 22.5267 385.99 21.544 386.606 20.664C387.222 19.784 387.999 19.08 388.938 18.552C389.906 18.024 390.903 17.76 391.93 17.76C393.015 17.76 394.012 17.892 394.922 18.156C395.831 18.42 396.755 18.7867 397.694 19.256V24.052H397.078L395.626 21.72C395.127 20.928 394.584 20.356 393.998 20.004C393.411 19.652 392.78 19.476 392.106 19.476C391.108 19.476 390.302 19.7253 389.686 20.224C389.099 20.7227 388.806 21.412 388.806 22.292C388.806 23.2893 389.158 24.052 389.862 24.58C390.595 25.0787 391.651 25.6507 393.03 26.296C393.851 26.7067 394.672 27.1173 395.494 27.528C396.344 27.9387 397.034 28.5253 397.562 29.288C398.119 30.0213 398.398 31.0773 398.398 32.456C398.398 33.7467 398.046 34.8467 397.342 35.756C396.638 36.636 395.772 37.3107 394.746 37.78C393.719 38.22 392.722 38.44 391.754 38.44ZM407.896 38.44C406.605 38.44 405.491 38.0587 404.552 37.296C403.613 36.5333 403.144 35.4627 403.144 34.084V20.268H399.536V20.004L403.276 18.2L406.4 13.36H406.664V18.2H412.472V20.268H406.664V33.336C406.664 34.0987 407.001 34.656 407.676 35.008C408.351 35.36 409.143 35.536 410.052 35.536C410.609 35.536 411.123 35.5067 411.592 35.448C412.091 35.3893 412.516 35.316 412.868 35.228H413V35.668C412.707 36.3427 412.12 36.9733 411.24 37.56C410.389 38.1467 409.275 38.44 407.896 38.44ZM423.979 38.44C422.043 38.44 420.341 37.9853 418.875 37.076C417.437 36.1667 416.308 34.9347 415.487 33.38C414.695 31.8253 414.299 30.0653 414.299 28.1C414.299 26.1347 414.695 24.3747 415.487 22.82C416.308 21.2653 417.437 20.0333 418.875 19.124C420.341 18.2147 422.043 17.76 423.979 17.76C425.915 17.76 427.601 18.2147 429.039 19.124C430.505 20.0333 431.635 21.2653 432.427 22.82C433.248 24.3747 433.659 26.1347 433.659 28.1C433.659 30.0653 433.248 31.8253 432.427 33.38C431.635 34.9347 430.505 36.1667 429.039 37.076C427.601 37.9853 425.915 38.44 423.979 38.44ZM424.595 36.548C425.768 36.548 426.736 36.1813 427.499 35.448C428.261 34.7147 428.819 33.776 429.171 32.632C429.523 31.4587 429.699 30.2413 429.699 28.98C429.699 27.4253 429.479 25.9293 429.039 24.492C428.628 23.0547 427.953 21.8813 427.015 20.972C426.105 20.0627 424.917 19.608 423.451 19.608C422.248 19.608 421.265 19.9747 420.503 20.708C419.74 21.4413 419.168 22.38 418.787 23.524C418.435 24.668 418.259 25.8853 418.259 27.176C418.259 28.7307 418.479 30.2267 418.919 31.664C419.359 33.1013 420.048 34.2747 420.987 35.184C421.925 36.0933 423.128 36.548 424.595 36.548ZM435.949 38V37.296L438.721 35.888V22.776L436.081 20.488V20.18L441.537 17.76H441.801L442.197 21.5H442.373C443.047 20.4147 443.663 19.608 444.221 19.08C444.807 18.5227 445.35 18.1707 445.849 18.024C446.347 17.848 446.846 17.76 447.345 17.76C447.579 17.76 447.843 17.804 448.137 17.892C448.459 17.98 448.723 18.068 448.929 18.156C449.251 18.3027 449.545 18.4787 449.809 18.684C450.102 18.8893 450.249 19.124 450.249 19.388C450.249 19.652 450.19 19.916 450.073 20.18L449.193 22.336H448.885L447.213 21.676C446.89 21.5293 446.567 21.4413 446.245 21.412C445.951 21.3827 445.658 21.368 445.365 21.368C444.133 21.368 443.091 21.9987 442.241 23.26V35.888L445.365 37.296V38H435.949ZM452.601 48.604C451.926 48.604 451.501 48.5013 451.325 48.296C451.178 48.12 451.105 47.7973 451.105 47.328V45.128L451.281 44.952H453.305C454.038 44.952 454.596 44.8787 454.977 44.732C455.358 44.6147 455.71 44.2773 456.033 43.72C456.356 43.192 456.81 42.312 457.397 41.08L458.937 37.648L450.885 20.268L447.937 18.904V18.2H458.453V18.904L454.845 20.268V20.488L460.697 33.248H460.829L465.757 20.752V20.488L462.457 18.904V18.2H471.081V18.904L467.781 20.4L459.113 41.476C458.849 42.1507 458.614 42.708 458.409 43.148C458.233 43.6173 458.028 44.0573 457.793 44.468C457.558 44.908 457.221 45.436 456.781 46.052C456.194 46.9027 455.534 47.5333 454.801 47.944C454.068 48.384 453.334 48.604 452.601 48.604ZM476.689 29.2L475.545 22.82C477.716 22.0573 479.403 21.1627 480.605 20.136C481.837 19.08 482.453 17.8333 482.453 16.396C482.453 14.3133 481.955 12.8173 480.957 11.908C479.989 10.9693 478.801 10.5 477.393 10.5C476.161 10.5 475.208 10.896 474.533 11.688C473.859 12.48 473.521 13.6533 473.521 15.208V16.968L473.169 17.408H471.365C470.808 17.408 470.383 17.3053 470.089 17.1C469.825 16.8947 469.693 16.4107 469.693 15.648C469.693 14.856 469.899 14.064 470.309 13.272C470.749 12.4507 471.424 11.732 472.333 11.116C473.36 10.3827 474.313 9.76666 475.193 9.268C476.073 8.76933 477.247 8.52 478.713 8.52C480.209 8.52 481.544 8.872 482.717 9.576C483.891 10.28 484.815 11.2187 485.489 12.392C486.164 13.5653 486.501 14.8707 486.501 16.308C486.501 18.1853 485.841 19.9013 484.521 21.456C483.231 22.9813 481.031 24.4333 477.921 25.812L477.569 29.2H476.689ZM477.129 38.22C476.396 38.22 475.765 37.956 475.237 37.428C474.709 36.8707 474.445 36.24 474.445 35.536C474.445 34.8027 474.709 34.172 475.237 33.644C475.765 33.116 476.396 32.852 477.129 32.852C477.833 32.852 478.449 33.116 478.977 33.644C479.535 34.172 479.813 34.8027 479.813 35.536C479.813 36.24 479.535 36.8707 478.977 37.428C478.449 37.956 477.833 38.22 477.129 38.22ZM31.984 98.604C31.3094 98.604 30.884 98.5013 30.708 98.296C30.5614 98.12 30.488 97.7973 30.488 97.328V95.128L30.664 94.952H32.688C33.4214 94.952 33.9787 94.8787 34.36 94.732C34.7414 94.6147 35.0934 94.2773 35.416 93.72C35.7387 93.192 36.1934 92.312 36.78 91.08L38.32 87.648L30.268 70.268L27.32 68.904V68.2H37.836V68.904L34.228 70.268V70.488L40.08 83.248H40.212L45.14 70.752V70.488L41.84 68.904V68.2H50.464V68.904L47.164 70.4L38.496 91.476C38.232 92.1507 37.9974 92.708 37.792 93.148C37.616 93.6173 37.4107 94.0573 37.176 94.468C36.9414 94.908 36.604 95.436 36.164 96.052C35.5774 96.9027 34.9174 97.5333 34.184 97.944C33.4507 98.384 32.7174 98.604 31.984 98.604ZM59.1527 88.44C57.2167 88.44 55.5153 87.9853 54.0487 87.076C52.6113 86.1667 51.482 84.9347 50.6607 83.38C49.8687 81.8253 49.4727 80.0653 49.4727 78.1C49.4727 76.1347 49.8687 74.3747 50.6607 72.82C51.482 71.2653 52.6113 70.0333 54.0487 69.124C55.5153 68.2147 57.2167 67.76 59.1527 67.76C61.0887 67.76 62.7753 68.2147 64.2127 69.124C65.6793 70.0333 66.8087 71.2653 67.6007 72.82C68.422 74.3747 68.8327 76.1347 68.8327 78.1C68.8327 80.0653 68.422 81.8253 67.6007 83.38C66.8087 84.9347 65.6793 86.1667 64.2127 87.076C62.7753 87.9853 61.0887 88.44 59.1527 88.44ZM59.7687 86.548C60.942 86.548 61.91 86.1813 62.6727 85.448C63.4353 84.7147 63.9927 83.776 64.3447 82.632C64.6967 81.4587 64.8727 80.2413 64.8727 78.98C64.8727 77.4253 64.6527 75.9293 64.2127 74.492C63.802 73.0547 63.1273 71.8813 62.1887 70.972C61.2793 70.0627 60.0913 69.608 58.6247 69.608C57.422 69.608 56.4393 69.9747 55.6767 70.708C54.914 71.4413 54.342 72.38 53.9607 73.524C53.6087 74.668 53.4327 75.8853 53.4327 77.176C53.4327 78.7307 53.6527 80.2267 54.0927 81.664C54.5327 83.1013 55.222 84.2747 56.1607 85.184C57.0993 86.0933 58.302 86.548 59.7687 86.548ZM78.7344 88.44C77.0037 88.44 75.581 88.0147 74.4664 87.164C73.381 86.284 72.8384 84.9933 72.8384 83.292V70.268L70.0664 68.904V68.2H76.3584V81.224C76.3584 82.5147 76.7544 83.4973 77.5464 84.172C78.3677 84.8467 79.4237 85.184 80.7144 85.184C81.5064 85.184 82.3717 85.052 83.3104 84.788C84.2784 84.524 85.041 84.1427 85.5984 83.644V70.268L82.4744 68.904V68.2H89.1184V86.02L92.2424 87.296V88H85.5984V85.228H85.3784C84.2637 86.3427 83.1784 87.164 82.1224 87.692C81.0957 88.1907 79.9664 88.44 78.7344 88.44ZM92.7271 66.792V65.868C93.6951 65.6627 94.5751 65.252 95.3671 64.636C96.1884 64.02 96.5991 63.2573 96.5991 62.348C96.5991 61.8493 96.4671 61.3653 96.2031 60.896C95.9391 60.3973 95.3231 59.8987 94.3551 59.4L92.7271 58.564V58.036L93.5631 55.968C93.7977 55.3227 94.1644 55 94.6631 55C94.8097 55 94.9857 55.0147 95.1911 55.044C95.3964 55.0733 95.6311 55.1613 95.8951 55.308C96.9804 55.9533 97.7871 56.672 98.3151 57.464C98.8724 58.256 99.1511 59.224 99.1511 60.368C99.1511 61.072 98.9164 61.8787 98.4471 62.788C98.0071 63.668 97.3031 64.4893 96.3351 65.252C95.3964 65.9853 94.1937 66.4987 92.7271 66.792ZM109.227 88L101.175 70.268L98.2271 68.904V68.2H108.743V68.904L105.135 70.224V70.488L110.767 82.764H110.943L115.915 70.752V70.488L112.747 68.904V68.2H121.371V68.904L118.115 70.444L110.151 88H109.227ZM129.576 88.44C126.73 88.44 124.486 87.5747 122.844 85.844C121.201 84.1133 120.38 81.8253 120.38 78.98C120.38 76.78 120.805 74.844 121.656 73.172C122.536 71.4707 123.68 70.1507 125.088 69.212C126.525 68.244 128.08 67.76 129.752 67.76C132.069 67.76 133.888 68.5667 135.208 70.18C136.557 71.7933 137.232 74.1107 137.232 77.132L137.012 77.352H123.856C123.885 78.7013 124.149 79.9773 124.648 81.18C125.146 82.3533 125.938 83.3067 127.024 84.04C128.138 84.7733 129.62 85.14 131.468 85.14C133.081 85.14 134.973 84.5533 137.144 83.38H137.276V83.82C136.601 85.0813 135.589 86.1667 134.24 87.076C132.92 87.9853 131.365 88.44 129.576 88.44ZM129.048 69.696C127.64 69.696 126.481 70.1947 125.572 71.192C124.692 72.16 124.149 73.5387 123.944 75.328H133.888C133.565 73.3333 132.993 71.896 132.172 71.016C131.38 70.136 130.338 69.696 129.048 69.696ZM157.488 88.44C154.643 88.44 152.399 87.5747 150.756 85.844C149.114 84.1133 148.292 81.8253 148.292 78.98C148.292 76.78 148.732 74.844 149.612 73.172C150.522 71.4707 151.739 70.1507 153.264 69.212C154.79 68.244 156.506 67.76 158.412 67.76C159.586 67.76 160.73 67.9653 161.844 68.376C162.959 68.7573 163.81 69.2707 164.396 69.916C164.866 70.4733 165.1 70.9133 165.1 71.236C165.1 71.6467 164.91 71.9987 164.528 72.292L162.856 73.7H162.548L161.052 71.676C160.612 71.0893 160.055 70.62 159.38 70.268C158.735 69.8867 157.928 69.696 156.96 69.696C155.347 69.696 154.071 70.3413 153.132 71.632C152.223 72.8933 151.768 74.668 151.768 76.956C151.768 78.364 152.003 79.6987 152.472 80.96C152.942 82.192 153.719 83.204 154.804 83.996C155.919 84.7587 157.444 85.14 159.38 85.14C160.994 85.14 162.886 84.5533 165.056 83.38H165.188V83.82C164.514 85.0813 163.502 86.1667 162.152 87.076C160.832 87.9853 159.278 88.44 157.488 88.44ZM176.827 88.44C174.891 88.44 173.19 87.9853 171.723 87.076C170.286 86.1667 169.156 84.9347 168.335 83.38C167.543 81.8253 167.147 80.0653 167.147 78.1C167.147 76.1347 167.543 74.3747 168.335 72.82C169.156 71.2653 170.286 70.0333 171.723 69.124C173.19 68.2147 174.891 67.76 176.827 67.76C178.763 67.76 180.45 68.2147 181.887 69.124C183.354 70.0333 184.483 71.2653 185.275 72.82C186.096 74.3747 186.507 76.1347 186.507 78.1C186.507 80.0653 186.096 81.8253 185.275 83.38C184.483 84.9347 183.354 86.1667 181.887 87.076C180.45 87.9853 178.763 88.44 176.827 88.44ZM177.443 86.548C178.616 86.548 179.584 86.1813 180.347 85.448C181.11 84.7147 181.667 83.776 182.019 82.632C182.371 81.4587 182.547 80.2413 182.547 78.98C182.547 77.4253 182.327 75.9293 181.887 74.492C181.476 73.0547 180.802 71.8813 179.863 70.972C178.954 70.0627 177.766 69.608 176.299 69.608C175.096 69.608 174.114 69.9747 173.351 70.708C172.588 71.4413 172.016 72.38 171.635 73.524C171.283 74.668 171.107 75.8853 171.107 77.176C171.107 78.7307 171.327 80.2267 171.767 81.664C172.207 83.1013 172.896 84.2747 173.835 85.184C174.774 86.0933 175.976 86.548 177.443 86.548ZM188.621 88V87.296L191.393 85.888V72.776L188.753 70.488V70.18L194.209 67.76H194.473L194.869 71.016H195.089C196.174 69.9013 197.215 69.08 198.213 68.552C199.239 68.024 200.354 67.76 201.557 67.76C202.965 67.76 204.167 68.0827 205.165 68.728C206.162 69.344 206.807 70.2827 207.101 71.544H207.233C208.465 70.2533 209.609 69.3 210.665 68.684C211.75 68.068 212.938 67.76 214.229 67.76C215.871 67.76 217.221 68.2 218.277 69.08C219.362 69.9307 219.905 71.2067 219.905 72.908V85.888L222.677 87.296V88H213.261V87.296L216.385 85.888V74.976C216.385 73.6853 215.989 72.7027 215.197 72.028C214.434 71.3533 213.451 71.016 212.249 71.016C211.251 71.016 210.313 71.1773 209.433 71.5C208.553 71.8227 207.819 72.3067 207.233 72.952V85.888L210.269 87.296V88H200.765V87.296L203.713 85.888V74.976C203.713 73.6853 203.317 72.7027 202.525 72.028C201.762 71.3533 200.779 71.016 199.577 71.016C198.843 71.016 198.022 71.148 197.113 71.412C196.203 71.676 195.47 72.0573 194.913 72.556V85.888L197.773 87.296V88H188.621ZM233.56 88.44C230.715 88.44 228.471 87.5747 226.828 85.844C225.185 84.1133 224.364 81.8253 224.364 78.98C224.364 76.78 224.789 74.844 225.64 73.172C226.52 71.4707 227.664 70.1507 229.072 69.212C230.509 68.244 232.064 67.76 233.736 67.76C236.053 67.76 237.872 68.5667 239.192 70.18C240.541 71.7933 241.216 74.1107 241.216 77.132L240.996 77.352H227.84C227.869 78.7013 228.133 79.9773 228.632 81.18C229.131 82.3533 229.923 83.3067 231.008 84.04C232.123 84.7733 233.604 85.14 235.452 85.14C237.065 85.14 238.957 84.5533 241.128 83.38H241.26V83.82C240.585 85.0813 239.573 86.1667 238.224 87.076C236.904 87.9853 235.349 88.44 233.56 88.44ZM233.032 69.696C231.624 69.696 230.465 70.1947 229.556 71.192C228.676 72.16 228.133 73.5387 227.928 75.328H237.872C237.549 73.3333 236.977 71.896 236.156 71.016C235.364 70.136 234.323 69.696 233.032 69.696ZM259.229 88.44C257.938 88.44 256.823 88.0587 255.885 87.296C254.946 86.5333 254.477 85.4627 254.477 84.084V70.268H250.869V70.004L254.609 68.2L257.733 63.36H257.997V68.2H263.805V70.268H257.997V83.336C257.997 84.0987 258.334 84.656 259.009 85.008C259.683 85.36 260.475 85.536 261.385 85.536C261.942 85.536 262.455 85.5067 262.925 85.448C263.423 85.3893 263.849 85.316 264.201 85.228H264.333V85.668C264.039 86.3427 263.453 86.9733 262.573 87.56C261.722 88.1467 260.607 88.44 259.229 88.44ZM275.311 88.44C273.375 88.44 271.674 87.9853 270.207 87.076C268.77 86.1667 267.641 84.9347 266.819 83.38C266.027 81.8253 265.631 80.0653 265.631 78.1C265.631 76.1347 266.027 74.3747 266.819 72.82C267.641 71.2653 268.77 70.0333 270.207 69.124C271.674 68.2147 273.375 67.76 275.311 67.76C277.247 67.76 278.934 68.2147 280.371 69.124C281.838 70.0333 282.967 71.2653 283.759 72.82C284.581 74.3747 284.991 76.1347 284.991 78.1C284.991 80.0653 284.581 81.8253 283.759 83.38C282.967 84.9347 281.838 86.1667 280.371 87.076C278.934 87.9853 277.247 88.44 275.311 88.44ZM275.927 86.548C277.101 86.548 278.069 86.1813 278.831 85.448C279.594 84.7147 280.151 83.776 280.503 82.632C280.855 81.4587 281.031 80.2413 281.031 78.98C281.031 77.4253 280.811 75.9293 280.371 74.492C279.961 73.0547 279.286 71.8813 278.347 70.972C277.438 70.0627 276.25 69.608 274.783 69.608C273.581 69.608 272.598 69.9747 271.835 70.708C271.073 71.4413 270.501 72.38 270.119 73.524C269.767 74.668 269.591 75.8853 269.591 77.176C269.591 78.7307 269.811 80.2267 270.251 81.664C270.691 83.1013 271.381 84.2747 272.319 85.184C273.258 86.0933 274.461 86.548 275.927 86.548ZM302.945 88.44C301.654 88.44 300.54 88.0587 299.601 87.296C298.662 86.5333 298.193 85.4627 298.193 84.084V70.268H294.585V70.004L298.325 68.2L301.449 63.36H301.713V68.2H307.521V70.268H301.713V83.336C301.713 84.0987 302.05 84.656 302.725 85.008C303.4 85.36 304.192 85.536 305.101 85.536C305.658 85.536 306.172 85.5067 306.641 85.448C307.14 85.3893 307.565 85.316 307.917 85.228H308.049V85.668C307.756 86.3427 307.169 86.9733 306.289 87.56C305.438 88.1467 304.324 88.44 302.945 88.44ZM309.26 88V87.296L312.032 85.888V60.016L309.392 57.728V57.42L315.288 55H315.552V71.016H315.728C316.842 69.9013 317.913 69.08 318.94 68.552C319.996 68.024 321.154 67.76 322.416 67.76C324.146 67.76 325.554 68.2 326.64 69.08C327.754 69.9307 328.312 71.2067 328.312 72.908V85.888L331.084 87.296V88H321.668V87.296L324.792 86.02V74.976C324.792 73.6853 324.381 72.7027 323.56 72.028C322.768 71.3533 321.726 71.016 320.436 71.016C319.644 71.016 318.764 71.148 317.796 71.412C316.857 71.676 316.109 72.0573 315.552 72.556V86.02L318.676 87.296V88H309.26ZM341.953 88.44C339.108 88.44 336.864 87.5747 335.221 85.844C333.578 84.1133 332.757 81.8253 332.757 78.98C332.757 76.78 333.182 74.844 334.033 73.172C334.913 71.4707 336.057 70.1507 337.465 69.212C338.902 68.244 340.457 67.76 342.129 67.76C344.446 67.76 346.265 68.5667 347.585 70.18C348.934 71.7933 349.609 74.1107 349.609 77.132L349.389 77.352H336.233C336.262 78.7013 336.526 79.9773 337.025 81.18C337.524 82.3533 338.316 83.3067 339.401 84.04C340.516 84.7733 341.997 85.14 343.845 85.14C345.458 85.14 347.35 84.5533 349.521 83.38H349.653V83.82C348.978 85.0813 347.966 86.1667 346.617 87.076C345.297 87.9853 343.742 88.44 341.953 88.44ZM341.425 69.696C340.017 69.696 338.858 70.1947 337.949 71.192C337.069 72.16 336.526 73.5387 336.321 75.328H346.265C345.942 73.3333 345.37 71.896 344.549 71.016C343.757 70.136 342.716 69.696 341.425 69.696ZM360.758 88V87.296L363.53 85.888V72.776L360.89 70.488V70.18L366.346 67.76H366.61L367.006 71.5H367.182C367.856 70.4147 368.472 69.608 369.03 69.08C369.616 68.5227 370.159 68.1707 370.658 68.024C371.156 67.848 371.655 67.76 372.154 67.76C372.388 67.76 372.652 67.804 372.946 67.892C373.268 67.98 373.532 68.068 373.738 68.156C374.06 68.3027 374.354 68.4787 374.618 68.684C374.911 68.8893 375.058 69.124 375.058 69.388C375.058 69.652 374.999 69.916 374.882 70.18L374.002 72.336H373.694L372.022 71.676C371.699 71.5293 371.376 71.4413 371.054 71.412C370.76 71.3827 370.467 71.368 370.174 71.368C368.942 71.368 367.9 71.9987 367.05 73.26V85.888L370.174 87.296V88H360.758ZM380.534 62.436C379.771 62.436 379.14 62.1867 378.642 61.688C378.143 61.16 377.894 60.5293 377.894 59.796C377.894 59.0333 378.143 58.4027 378.642 57.904C379.14 57.4053 379.771 57.156 380.534 57.156C381.296 57.156 381.927 57.4053 382.426 57.904C382.924 58.4027 383.174 59.0333 383.174 59.796C383.174 60.5293 382.924 61.16 382.426 61.688C381.927 62.1867 381.296 62.436 380.534 62.436ZM376.134 88V87.296L378.906 85.888V72.776L376.266 70.488V70.18L382.162 67.76H382.426V85.888L385.198 87.296V88H376.134ZM396.703 81.752C395.412 81.752 394.224 81.5173 393.139 81.048C392.552 81.2827 392.127 81.5907 391.863 81.972C391.628 82.3533 391.511 82.764 391.511 83.204C391.511 84.6707 392.552 85.404 394.635 85.404H399.915C402.056 85.404 403.625 85.8733 404.623 86.812C405.649 87.7507 406.163 89.144 406.163 90.992C406.163 92.2533 405.737 93.456 404.887 94.6C404.065 95.7733 402.877 96.7267 401.323 97.46C399.797 98.1933 397.979 98.56 395.867 98.56C393.08 98.56 391.071 98.0467 389.839 97.02C388.636 96.0227 388.035 94.7907 388.035 93.324C388.035 92.2387 388.299 91.3 388.827 90.508L391.863 88.484V88.308C390.748 88.0733 389.897 87.648 389.311 87.032C388.724 86.3867 388.431 85.6093 388.431 84.7C388.431 83.5853 388.812 82.6467 389.575 81.884L391.951 80.652V80.388C391.012 79.772 390.264 78.98 389.707 78.012C389.149 77.044 388.871 75.9587 388.871 74.756C388.871 73.436 389.208 72.248 389.883 71.192C390.557 70.136 391.481 69.3 392.655 68.684C393.857 68.068 395.207 67.76 396.703 67.76C397.319 67.76 397.979 67.8333 398.683 67.98C399.416 68.1267 400.047 68.3173 400.575 68.552L407.175 68.2V70.576L403.083 70.312L402.907 70.488C403.376 71.016 403.757 71.6613 404.051 72.424C404.373 73.1867 404.535 73.964 404.535 74.756C404.535 76.076 404.197 77.264 403.523 78.32C402.848 79.376 401.909 80.212 400.707 80.828C399.533 81.444 398.199 81.752 396.703 81.752ZM397.143 79.948C398.316 79.948 399.24 79.4493 399.915 78.452C400.589 77.4253 400.927 76.2373 400.927 74.888C400.927 73.2747 400.487 71.984 399.607 71.016C398.727 70.0187 397.656 69.52 396.395 69.52C395.133 69.52 394.165 70.0333 393.491 71.06C392.816 72.0573 392.479 73.2453 392.479 74.624C392.479 76.1493 392.919 77.4253 393.799 78.452C394.679 79.4493 395.793 79.948 397.143 79.948ZM391.159 92.84C391.159 94.1307 391.657 95.2013 392.655 96.052C393.681 96.9027 394.928 97.328 396.395 97.328C397.715 97.328 398.859 97.064 399.827 96.536C400.824 96.0373 401.587 95.3627 402.115 94.512C402.672 93.6907 402.951 92.8107 402.951 91.872C402.951 90.5813 402.599 89.6867 401.895 89.188C401.22 88.6893 399.988 88.44 398.199 88.44H393.491C393.403 88.44 393.329 88.44 393.271 88.44C392.479 88.9093 391.921 89.496 391.599 90.2C391.305 90.9333 391.159 91.8133 391.159 92.84ZM408.853 88V87.296L411.625 85.888V60.016L408.985 57.728V57.42L414.881 55H415.145V71.016H415.321C416.435 69.9013 417.506 69.08 418.533 68.552C419.589 68.024 420.747 67.76 422.009 67.76C423.739 67.76 425.147 68.2 426.233 69.08C427.347 69.9307 427.905 71.2067 427.905 72.908V85.888L430.677 87.296V88H421.261V87.296L424.385 86.02V74.976C424.385 73.6853 423.974 72.7027 423.153 72.028C422.361 71.3533 421.319 71.016 420.029 71.016C419.237 71.016 418.357 71.148 417.389 71.412C416.45 71.676 415.702 72.0573 415.145 72.556V86.02L418.269 87.296V88H408.853ZM439.302 88.44C438.011 88.44 436.897 88.0587 435.958 87.296C435.019 86.5333 434.55 85.4627 434.55 84.084V70.268H430.942V70.004L434.682 68.2L437.806 63.36H438.07V68.2H443.878V70.268H438.07V83.336C438.07 84.0987 438.407 84.656 439.082 85.008C439.757 85.36 440.549 85.536 441.458 85.536C442.015 85.536 442.529 85.5067 442.998 85.448C443.497 85.3893 443.922 85.316 444.274 85.228H444.406V85.668C444.113 86.3427 443.526 86.9733 442.646 87.56C441.795 88.1467 440.681 88.44 439.302 88.44ZM454.417 98.12V97.416L457.189 96.008V72.776L454.549 70.488V70.18L460.005 67.76H460.269L460.621 70.444H460.929C462.043 69.5053 463.114 68.8307 464.141 68.42C465.167 67.98 466.282 67.76 467.485 67.76C468.981 67.76 470.301 68.1413 471.445 68.904C472.589 69.6667 473.483 70.752 474.129 72.16C474.803 73.5387 475.141 75.196 475.141 77.132C475.141 79.5373 474.686 81.5907 473.777 83.292C472.897 84.964 471.694 86.24 470.169 87.12C468.643 88 466.971 88.44 465.153 88.44C463.51 88.44 462.029 88.2933 460.709 88V96.008L463.833 97.416V98.12H454.417ZM465.065 70.796C464.361 70.796 463.627 70.9133 462.865 71.148C462.131 71.3533 461.413 71.676 460.709 72.116V84.48C461.589 85.184 462.483 85.668 463.393 85.932C464.302 86.196 465.314 86.328 466.429 86.328C467.837 86.328 469.054 85.7413 470.081 84.568C471.107 83.3653 471.621 81.3707 471.621 78.584C471.621 76.7653 471.327 75.284 470.741 74.14C470.154 72.996 469.362 72.16 468.365 71.632C467.367 71.0747 466.267 70.796 465.065 70.796ZM477.006 88V87.296L479.778 85.888V60.016L477.138 57.728V57.42L483.034 55H483.298V85.888L486.07 87.296V88H477.006ZM492.667 88.44C491.288 88.44 490.144 88.044 489.235 87.252C488.326 86.4307 487.871 85.3013 487.871 83.864C487.871 82.4267 488.399 81.18 489.455 80.124C490.54 79.068 492.344 78.2467 494.867 77.66L499.047 76.692V73.48C499.047 72.4827 498.636 71.632 497.815 70.928C497.023 70.1947 496.114 69.828 495.087 69.828C493.972 69.828 493.195 70.136 492.755 70.752C492.315 71.3387 492.095 72.1307 492.095 73.128V74.36L491.875 74.58H489.587C489.147 74.58 488.839 74.5067 488.663 74.36C488.516 74.2133 488.443 73.876 488.443 73.348C488.443 72.7027 488.634 72.0427 489.015 71.368C489.396 70.6933 489.983 70.1067 490.775 69.608C491.596 69.08 492.447 68.64 493.327 68.288C494.236 67.936 495.204 67.76 496.231 67.76C497.258 67.76 498.255 67.9067 499.223 68.2C500.22 68.4933 501.027 68.992 501.643 69.696C502.259 70.3707 502.567 71.324 502.567 72.556V85.052C502.772 85.2573 503.066 85.4333 503.447 85.58C503.828 85.7267 504.356 85.8 505.031 85.8H506.703L506.835 85.888V86.02C506.483 86.6653 505.955 87.2373 505.251 87.736C504.576 88.2053 503.74 88.44 502.743 88.44C501.834 88.44 501.086 88.2053 500.499 87.736C499.942 87.2373 499.546 86.592 499.311 85.8H499.047C498.284 86.5627 497.331 87.1933 496.187 87.692C495.072 88.1907 493.899 88.44 492.667 88.44ZM491.303 82.984C491.303 84.8027 492.403 85.712 494.603 85.712C495.307 85.712 495.996 85.6387 496.671 85.492C497.375 85.3453 498.167 85.0813 499.047 84.7V78.188C496.7 78.628 494.984 79.0973 493.899 79.596C492.814 80.0653 492.11 80.5787 491.787 81.136C491.464 81.6933 491.303 82.3093 491.303 82.984ZM516.526 88.44C513.681 88.44 511.437 87.5747 509.794 85.844C508.152 84.1133 507.33 81.8253 507.33 78.98C507.33 76.78 507.77 74.844 508.65 73.172C509.56 71.4707 510.777 70.1507 512.302 69.212C513.828 68.244 515.544 67.76 517.45 67.76C518.624 67.76 519.768 67.9653 520.882 68.376C521.997 68.7573 522.848 69.2707 523.434 69.916C523.904 70.4733 524.138 70.9133 524.138 71.236C524.138 71.6467 523.948 71.9987 523.566 72.292L521.894 73.7H521.586L520.09 71.676C519.65 71.0893 519.093 70.62 518.418 70.268C517.773 69.8867 516.966 69.696 515.998 69.696C514.385 69.696 513.109 70.3413 512.17 71.632C511.261 72.8933 510.806 74.668 510.806 76.956C510.806 78.364 511.041 79.6987 511.51 80.96C511.98 82.192 512.757 83.204 513.842 83.996C514.957 84.7587 516.482 85.14 518.418 85.14C520.032 85.14 521.924 84.5533 524.094 83.38H524.226V83.82C523.552 85.0813 522.54 86.1667 521.19 87.076C519.87 87.9853 518.316 88.44 516.526 88.44ZM535.381 88.44C532.536 88.44 530.292 87.5747 528.649 85.844C527.007 84.1133 526.185 81.8253 526.185 78.98C526.185 76.78 526.611 74.844 527.461 73.172C528.341 71.4707 529.485 70.1507 530.893 69.212C532.331 68.244 533.885 67.76 535.557 67.76C537.875 67.76 539.693 68.5667 541.013 70.18C542.363 71.7933 543.037 74.1107 543.037 77.132L542.817 77.352H529.661C529.691 78.7013 529.955 79.9773 530.453 81.18C530.952 82.3533 531.744 83.3067 532.829 84.04C533.944 84.7733 535.425 85.14 537.273 85.14C538.887 85.14 540.779 84.5533 542.949 83.38H543.081V83.82C542.407 85.0813 541.395 86.1667 540.045 87.076C538.725 87.9853 537.171 88.44 535.381 88.44ZM534.853 69.696C533.445 69.696 532.287 70.1947 531.377 71.192C530.497 72.16 529.955 73.5387 529.749 75.328H539.693C539.371 73.3333 538.799 71.896 537.977 71.016C537.185 70.136 536.144 69.696 534.853 69.696ZM548.168 88.22C547.435 88.22 546.804 87.956 546.276 87.428C545.748 86.9 545.484 86.2693 545.484 85.536C545.484 84.8027 545.748 84.172 546.276 83.644C546.804 83.116 547.435 82.852 548.168 82.852C548.901 82.852 549.532 83.116 550.06 83.644C550.588 84.172 550.852 84.8027 550.852 85.536C550.852 86.2693 550.588 86.9 550.06 87.428C549.532 87.956 548.901 88.22 548.168 88.22Z" fill="black"/>
<defs>
<clipPath id="clip0">
<rect width="336" height="452" fill="white" transform="translate(108 121)"/>
</clipPath>
<clipPath id="clip1">
<rect width="332" height="469" fill="white" transform="translate(277 104)"/>
</clipPath>
</defs>
</svg>
