<svg width="610" height="570" viewBox="0 0 610 570" fill="none" xmlns="http://www.w3.org/2000/svg">
<g clip-path="url(#clip0)">
<path fill-rule="evenodd" clip-rule="evenodd" d="M117.586 136.424C112.654 133.999 106.08 136.811 108.822 143.222C111.76 150.086 122.622 150.171 128.757 150.035C128.143 150.003 126.166 143.708 125.489 142.757C123.493 139.951 120.618 137.917 117.586 136.424ZM174.411 259.493C175.655 260.548 174.512 259.592 174.411 259.493V259.493ZM112.835 167.471C109.949 169.659 109.811 173.521 112.169 176.135C114.976 179.247 120.103 179.134 123.929 178.831C125.66 178.693 134.902 177.96 132.711 176.46C132.88 176.523 133.232 176.676 133.608 176.884C133.811 177.619 134.024 178.35 134.246 179.079C134.191 179.11 134.145 179.144 134.087 179.176C134.15 179.148 134.194 179.119 134.249 179.091C136.472 186.372 139.636 193.304 143.778 199.79C142.228 199.185 140.623 198.727 138.995 198.523C134.173 197.918 124.03 201.633 129.424 207.999C134.595 214.101 142.646 207.554 148.515 206.651C154.208 214.529 160.484 222.079 167.062 229.376C166.659 229.501 166.305 229.762 166.103 230.168C163.464 228.84 160.714 226.941 158.272 226.427C154.748 225.687 147.521 225.237 144.858 228.365C141.582 232.211 145.093 235.335 148.964 236.072C154.576 237.142 161.923 234.423 167.323 232.586C167.941 232.694 168.616 232.515 169.018 232.025C169.138 231.987 169.257 231.948 169.373 231.911C176.034 239.173 182.95 246.195 189.824 253.063C189.751 253.059 189.678 253.055 189.602 253.051C187.809 251.885 185.885 250.928 183.801 250.427C178.978 249.262 173.304 249.256 169.39 252.716C165.491 256.161 164.111 262.186 168.144 266.054C176.216 273.798 188.111 256.142 192.183 255.405C199.168 262.311 206.555 268.764 214.057 275.086C213.205 274.829 212.331 274.64 211.428 274.555C204.071 273.857 186.803 282.8 195.832 291.598C203.7 299.265 212.806 284.508 219.147 279.347C226.217 285.24 233.325 291.092 240.234 297.173C236.466 296.181 232.824 296.035 228.785 297.245C224.605 298.499 217.861 301.628 220.503 307.223C223.19 312.913 231.289 310.324 235.508 308.518C237.808 307.532 242.421 304.207 246.471 302.806C257.496 313.126 267.045 324.493 274.274 337.883C278.787 346.243 282.212 355.175 284.623 364.355C286.161 370.215 289.193 380.056 288.586 387.683C291.479 372.417 286.248 354.083 280.613 340.438C275.432 327.89 267.677 316.876 258.595 306.961C260.874 300.164 280.059 290.36 268.59 284.045C262.5 280.706 256.262 286.247 254.931 292.114C254.016 296.147 255.409 301.213 256.888 305.127C254.031 302.104 251.06 299.179 248 296.351C243.77 292.442 239.439 288.647 235.066 284.9C242.272 278.188 249.091 259.001 239.43 255.863C225.164 251.243 232.033 277.414 233.028 282.32C233.311 282.336 233.531 282.251 233.693 282.07C233.613 282.519 233.519 283 233.407 283.484C225.038 276.349 216.545 269.354 208.331 262.049C209.071 261.507 210.248 259.434 211.172 258.332C213.259 255.845 215.255 253.248 216.714 250.339C219.019 245.743 221.242 238.412 215.132 235.708C208.488 232.762 205.331 241.055 205.285 246.001C205.253 249.422 206.193 252.672 206.682 256.026C206.835 257.071 206.246 261.786 207.683 259.758C207.615 260.505 207.605 261.047 207.639 261.431C206.164 260.113 204.701 258.78 203.247 257.438C203.315 257.269 203.365 257.084 203.376 256.87C203.454 255.395 201.957 254.827 200.908 255.259C198.989 253.451 197.089 251.621 195.224 249.754C191.269 245.799 187.257 241.732 183.273 237.577C184.137 236.841 183.794 235.821 184.602 235.04C185.409 234.26 186.999 233.828 187.948 233.104C190.335 231.281 192.314 228.625 193.746 226.011C196.109 221.692 199.163 212.631 192.259 210.572C185.143 208.447 181.53 217.169 181.073 222.622C180.984 223.678 181.782 233.197 182.392 236.653C175.02 228.933 167.769 220.922 161.2 212.772C163.192 212.754 168.839 208.708 169.981 207.604C172.766 204.911 177.194 198.96 172.311 195.811C167.968 193.019 162.616 197.064 160.76 200.995C160.454 201.643 159.378 207.668 159.294 210.371C156.575 206.915 153.982 203.439 151.569 199.951C149.959 197.633 148.456 195.253 147.049 192.822C147.387 192.632 147.706 192.3 148.007 191.887C155.249 190.668 164.482 179.465 155.976 175.567C151.926 173.714 147.533 177.54 145.55 180.672C145.143 181.313 144.485 184.535 143.949 187.076C139.901 179.024 136.808 170.5 134.454 161.76C135.084 161.604 135.618 161.127 135.688 160.306C139.204 158.318 141.981 156.663 144.435 152.842C145.96 150.468 148.706 145.045 144.226 143.727C138.395 142.013 134.733 150.842 134.256 155.192C134.2 155.696 134.202 157.165 134.221 158.51C134.019 158.483 133.814 158.486 133.614 158.521C132.275 153.109 131.206 147.627 130.356 142.136C133.538 141.121 134.088 124.55 131.969 122.191C127.233 116.907 123.892 124.539 124.145 128.573C124.444 133.329 126.617 137.655 129.205 141.495C129.483 141.901 129.404 141.882 129.476 141.315C129.516 141.595 129.61 141.802 129.75 141.951C129.617 144.455 129.356 147.018 129.481 149.233C129.84 155.577 130.585 161.958 131.667 168.221C131.93 169.744 132.232 171.254 132.57 172.752C130.012 170.591 126.563 168.672 125.214 168.071C121.712 166.515 116.314 164.834 112.835 167.471ZM288.997 387.704C288.835 389.916 288.432 391.942 287.68 393.612C288.244 391.71 288.676 389.734 288.997 387.704Z" fill="#F2F2F2"/>
<g opacity="0.7">
<path opacity="0.7" fill-rule="evenodd" clip-rule="evenodd" d="M213.522 286.263C227.219 285.559 244.159 293.486 245.62 308.248C246.682 318.975 246.353 329.67 247.996 340.38C249.31 348.94 252.088 357.157 255.877 364.954C259.521 372.451 267.079 378.833 269.045 386.843C270.297 391.947 269.596 399.126 267.868 404.118C265.767 410.188 266.884 409.708 271.071 414.801C279.275 424.782 286.663 435.017 291.887 446.937C299.412 464.107 304.345 484.177 301.553 502.971C301.197 505.358 300.776 513.922 297.461 514.521C293.759 515.19 295.49 510.292 295.688 508.71C296.948 498.614 298.067 489.789 296.547 479.535C290.685 439.973 262.06 413.907 243.421 380.329C242.397 378.597 240.234 374.474 238.73 371.754C236.355 367.459 233.968 359.288 230.754 356.103C224.7 350.104 230.266 362.165 231.445 364.467C232.937 367.379 234.577 370.475 236.106 373.027C243.099 384.856 250.904 397.769 258.126 409.963C226.891 417.019 204.893 379.786 196.51 355.308C189.604 335.141 181.341 287.989 213.522 286.263Z" fill="#69A1AC"/>
<path opacity="0.7" fill-rule="evenodd" clip-rule="evenodd" d="M397.107 248.812C374.21 250.613 359.51 265.594 352.667 286.547C348.979 297.839 348.556 309.44 346.507 321.044C343.424 338.503 336.79 351.733 323.826 364.172C319.81 368.024 316.851 371.979 314.748 376.211C310.572 380.436 306.937 385.217 304.267 391.062C300.855 398.527 299.89 407.483 303.829 414.926C304.888 416.926 307.529 420.943 310.267 422.767C300.017 444.413 294.38 468.12 295.016 491.797C295.4 506.09 296.103 520.388 296.924 534.663C297.145 538.496 298.404 544.825 300.295 538.397C302.026 532.518 299.855 523.287 299.655 517.145C298.678 487.221 297.842 460.014 310.266 432.057C311.568 429.127 312.95 426.22 314.388 423.337C314.473 423.288 314.551 423.23 314.63 423.173C314.685 423.214 314.735 423.26 314.79 423.301C314.882 423.138 315.008 422.945 315.154 422.729C315.567 422.307 315.927 421.773 316.27 421.178C317.372 419.664 318.619 417.885 318.626 416.911C318.626 416.904 318.621 416.892 318.621 416.884C326.312 404.437 335.121 392.675 344.119 381.143C344.051 381.227 353.878 367.96 352.359 375.297C351.626 378.833 344.398 385.566 341.479 389.311C335.021 397.643 327.437 408.199 321.135 418.408C320.287 418.891 319.089 421.263 318.222 423.03C317.744 423.925 317.298 424.828 316.859 425.615C339.189 432.93 356.559 418.195 368.404 401.057C368.418 401.037 368.431 401.016 368.444 400.996C372.049 396.26 375.741 391.558 380.354 387.814C388.05 381.568 396.291 380.466 405.365 377.392C430.11 369.009 440.631 337.212 443.972 313.619C447.742 287.002 429.302 246.187 397.107 248.812Z" fill="#89C5CC"/>
<path opacity="0.7" fill-rule="evenodd" clip-rule="evenodd" d="M351.876 174.273C328.375 198.524 317.022 232.161 308.032 263.783C297.991 299.102 291.358 334.965 291.104 371.686C290.937 395.812 290.275 420.088 291.695 444.185C292.199 452.743 293.06 461.317 294.428 469.783C294.54 470.479 297.601 489.382 300.53 484.977C302.196 482.472 297.392 465.367 297.029 462.519C294.988 446.472 294.513 430.308 294.613 414.146C294.777 387.535 293.985 361.061 296.706 334.549C297.111 330.59 297.432 326.433 298.38 322.56C299.387 318.443 298.105 320.24 301.385 318.61C304.571 317.026 308.509 317.252 311.816 315.265C324.931 307.379 331.641 287.124 336.863 273.834C342.835 258.636 346.465 242.43 349.364 226.437C351.493 214.686 353.015 203.006 353.877 191.104C354.148 187.353 354.164 183.43 354.908 179.742C355.108 178.747 356.113 176.987 356.077 176.106C355.999 174.241 354.864 173.145 354.771 171.578C353.787 172.455 352.822 173.355 351.876 174.273Z" fill="#89C5CC"/>
<path opacity="0.7" fill-rule="evenodd" clip-rule="evenodd" d="M223.734 497.382C223.734 537.488 256.524 570 296.974 570C337.423 570 370.214 537.488 370.214 497.382" fill="#89C5CC"/>
<path opacity="0.7" fill-rule="evenodd" clip-rule="evenodd" d="M302.85 497.613H298.98C299.249 492.799 299.603 487.993 300.415 483.233C303.52 465.026 313.227 438.284 334.517 435.329C335.302 435.219 338.192 435.201 341.691 435.404C343.35 434.485 345.208 433.929 347.166 433.802C365.292 432.477 385.535 446.976 394.279 462.065C401.327 474.23 400.14 490.205 395.786 503.13C392.871 511.783 386.508 524.12 375.897 524.24C362.622 524.39 361.982 508.122 361.725 498.612C361.384 485.968 359.772 474.953 349.724 466.335C347.382 464.327 344.822 462.561 342.457 460.581C338.752 457.482 334.659 454.309 334.182 449.182C333.523 442.109 337.55 440.836 343.698 442.15C344.746 442.374 355.304 447.071 353.741 443.358C353.263 442.224 351.52 441.325 349.32 440.652C343.627 440.038 336.838 439.326 334.885 439.752C313.821 444.334 305.619 473.264 303.441 491.645C303.206 493.629 303.016 495.62 302.85 497.613V497.613Z" fill="#69A1AC"/>
</g>
</g>
<g clip-path="url(#clip1)">
<path fill-rule="evenodd" clip-rule="evenodd" d="M478.976 284.253C482.994 278.873 485.713 272.279 485.259 264.891C483.95 243.602 457.974 248.285 452.921 259.03C447.868 269.774 448.468 297.029 454.999 298.949C457.603 299.715 463.151 297.839 468.797 293.956L465.253 322.562H486.18L478.976 284.253Z" fill="#B28B67"/>
<path fill-rule="evenodd" clip-rule="evenodd" d="M457.637 251.945C458.116 251.618 459.119 250.93 459.627 250.68C459.747 250.62 460.589 249.935 460.612 249.944C461.249 250.189 463.095 251.095 463.253 251.878C463.278 251.937 463.302 251.992 463.325 252.041C463.587 252.583 463.827 253.139 464.056 253.702C464.558 254.937 464.991 256.228 465.406 257.508C466.212 260.002 466.913 262.555 467.557 265.113C468.213 267.717 468.77 270.351 469.393 272.966C470.29 276.728 471.438 280.398 472.328 284.159C472.897 286.561 473.213 288.991 473.064 291.462C473.063 291.492 473.062 291.521 473.059 291.551C473.059 291.564 473.057 291.576 473.056 291.588C473.031 291.968 472.995 292.349 472.946 292.731C472.904 293.058 472.862 293.386 472.817 293.713C472.003 291.863 471.382 289.824 470.723 287.888C470.658 287.699 470.597 287.508 470.537 287.316C470.324 286.924 470.108 286.534 469.888 286.146C468.507 283.698 467.119 281.259 465.794 278.766C463.411 274.283 461.05 269.706 458.224 265.589C457.39 264.374 456.536 263.177 455.712 261.951C455.243 261.254 454.787 260.545 454.345 259.823C454.029 259.307 452.656 257.508 453.153 256.428C453.407 255.875 456.393 252.792 457.637 251.945Z" fill="#2C2C2C"/>
<path fill-rule="evenodd" clip-rule="evenodd" d="M459.476 250.771C459.009 250.949 459.236 249.843 459.688 249.453C461.779 247.649 469.776 246.994 476.736 248.643C481.398 249.747 486.82 252.495 490.543 256.027C493.9 259.212 496.209 264.317 497.397 269.25C498.645 274.429 498.834 279.829 498.139 285.14C497.986 286.307 497.658 287.418 497.475 288.56C497.269 289.846 497.163 291.084 496.796 292.335C496.571 293.101 496.189 293.852 495.998 294.622C495.779 295.501 495.912 296.314 496.072 297.208C496.332 298.666 496.655 300.12 497.113 301.511C497.802 303.601 498.637 305.558 499.161 307.727C499.858 310.612 502.774 320.002 500.643 322.562H460.08C461.102 319.383 464.168 315.642 464.788 312.24C465.154 310.235 465.328 305.858 465.366 305.699C466.28 298.511 468.065 295.078 469.183 293.832C470.301 292.586 471.79 292.203 471.866 291.122C472.183 286.653 470.626 282.371 469.483 278.199C468.122 273.228 467.124 268.133 465.72 263.178C465.099 260.984 461.896 249.843 459.476 250.771Z" fill="#8991DC"/>
<path fill-rule="evenodd" clip-rule="evenodd" d="M473.697 255.912C475.227 261.449 475.556 264.405 475.227 271.97H475.977C477.379 264.831 476.131 258.11 474.64 255.912H473.697ZM494.218 270.202C491.368 278.092 490.068 282.752 482.108 289.137L482.723 289.628C490.625 284.519 492.926 278.425 494.818 270.53L494.218 270.202ZM482.506 262.172C481.212 273.372 480.834 279.769 474.089 292.02L474.807 292.27C481.748 281.603 482.848 272.897 483.176 262.233L482.506 262.172ZM489.957 295.441L489.343 294.589C480.965 297.583 481.898 303.763 471.347 310.022L472.229 310.631C481.468 306.281 483.628 296.952 489.957 295.441Z" fill="black" fill-opacity="0.2"/>
<path fill-rule="evenodd" clip-rule="evenodd" d="M524.004 446.907H456.641L447.814 570.258H548.09L524.004 446.907Z" fill="#C5CFD6"/>
<path fill-rule="evenodd" clip-rule="evenodd" d="M524.004 446.907H503.286L490.886 570.258H548.09L524.004 446.907Z" fill="black" fill-opacity="0.1"/>
<path fill-rule="evenodd" clip-rule="evenodd" d="M379.841 425.775C372.659 420.854 360.609 427.176 360.617 434.212C360.642 455.266 377.484 554.492 378.363 560.765C379.242 567.037 388.662 568.694 389.211 560.785C390.084 548.201 391.705 504.636 390.083 484.472C389.413 476.149 388.692 468.222 387.982 461.15C396.819 479.357 410.487 505.425 428.985 539.354L439.027 534.12C431.142 504.48 424.675 483.555 419.629 471.345C410.988 450.438 402.885 432.534 399.475 426.228C394.111 416.308 384.774 419.769 379.841 425.775Z" fill="#B28B67"/>
<path fill-rule="evenodd" clip-rule="evenodd" d="M438.309 517.66L403.843 424.512C395.586 409.36 372.435 427.596 375.251 436.384C381.644 456.337 414.156 520.932 416.061 526.876L438.309 517.66Z" fill="#020624"/>
<path fill-rule="evenodd" clip-rule="evenodd" d="M440.548 528.057C442.635 529.955 443.985 531.518 444.597 532.744C445.341 534.235 446.198 536.564 447.167 539.73C445.57 540.797 431.218 550.38 404.11 568.481C400.991 565.222 400.557 562.627 402.808 560.698C405.059 558.769 406.918 557.144 408.384 555.821L423.572 532.796C423.865 532.353 424.409 532.239 424.789 532.541C424.796 532.546 424.802 532.552 424.809 532.557L427.782 535.078C430.577 534.715 432.672 534.068 434.067 533.137C435.201 532.38 436.519 530.838 438.021 528.513L438.021 528.513C438.598 527.621 439.686 527.38 440.452 527.975C440.485 528.001 440.517 528.028 440.548 528.057Z" fill="#E4E4E4"/>
<path fill-rule="evenodd" clip-rule="evenodd" d="M391.416 555.736C392.392 558.707 392.88 560.93 392.88 562.405C392.88 564.199 392.618 566.816 392.094 570.258C390.27 570.258 373.876 570.258 342.913 570.258C341.635 565.438 342.373 562.836 345.127 562.451C347.88 562.067 350.167 561.72 351.989 561.41L374.847 549.785C375.287 549.561 375.803 549.786 375.999 550.288C376.002 550.297 376.006 550.305 376.009 550.314L377.478 554.38C380.027 555.737 382.098 556.415 383.692 556.415C384.987 556.415 386.775 555.819 389.057 554.626L389.057 554.626C389.932 554.168 390.967 554.606 391.369 555.605C391.386 555.648 391.402 555.692 391.416 555.736Z" fill="#E4E4E4"/>
<path fill-rule="evenodd" clip-rule="evenodd" d="M358.201 441.369C358.201 467.797 369.203 529.443 369.21 535.262L392.88 535.283C389.415 480.277 388.187 452.478 389.194 451.885C390.706 450.996 451.148 458.77 469.276 458.77C495.416 458.77 506.23 439.964 507.108 405.127H455.325C444.781 406.414 389.785 419.069 369.361 423.419C360.617 425.282 358.201 434.089 358.201 441.369Z" fill="#0E1759"/>
<path fill-rule="evenodd" clip-rule="evenodd" d="M411.633 392.653L386.932 420.143C379.745 423.641 373.856 427.503 369.266 431.729C368.233 433.15 367.109 435.871 371.966 434.653C376.824 433.435 381.981 432.403 382.893 434.205C383.806 436.007 381.116 438.769 382.804 441.127C383.928 442.699 387.711 437.698 394.151 426.124L419.837 408.848L411.633 392.653ZM532.421 367.773L513.327 367.855C527.87 421.606 535.589 449.749 536.486 452.284C538.504 457.989 534.234 466.677 532.408 471.346C538.355 474.381 537.721 463.139 545.223 467.12C552.071 470.755 557.279 477.339 565.19 471.771C566.163 471.086 567.229 468.508 564.654 466.494C558.238 461.475 548.992 452.691 547.743 449.8C546.04 445.858 540.932 418.515 532.421 367.773Z" fill="#B28B67"/>
<path fill-rule="evenodd" clip-rule="evenodd" d="M474.239 305.981L466.699 304.506C454.821 352.405 393.793 385.056 390.047 402.962C388.673 409.528 392.815 412.848 390.675 414.848L400.476 423.033C402.136 420.824 405.677 424.865 413.073 422.038C420.47 419.211 474.239 362.698 474.239 305.981Z" fill="#DB2721"/>
<path fill-rule="evenodd" clip-rule="evenodd" d="M461.555 312.349C462.425 375.765 430.291 391.941 437.448 417.381C443.359 438.389 499.934 460.972 509.724 440.379C513.686 432.044 515.484 421.962 515.688 411.002C518.19 419.422 520.169 426.672 521.625 432.749C524.136 443.234 533.872 444.901 533.872 448.94L546.698 444.901C545.828 439.413 551.875 436.741 550.253 424.482C542.989 369.554 523.472 329.738 491.7 305.035L491.372 299.672C491.237 297.48 489.571 295.827 487.649 295.981L464.163 297.854C462.242 298.007 460.793 299.909 460.927 302.101L461.555 312.349Z" fill="#FF4133"/>
</g>
<g clip-path="url(#clip2)">
<path fill-rule="evenodd" clip-rule="evenodd" d="M180.673 190.289C184.132 202.924 188.638 231.326 184.039 235.782H154.944C154.941 235.73 154.938 235.679 154.935 235.628C144.151 234.445 135.764 225.38 135.764 214.372V193.482C135.764 181.67 145.421 172.094 157.335 172.094H159.341C170.16 172.094 179.119 179.991 180.673 190.289Z" fill="#191847"/>
<path fill-rule="evenodd" clip-rule="evenodd" d="M147.063 210.383C142.44 205.002 139.311 198.409 139.834 191.02C141.341 169.732 171.229 174.415 177.043 185.159C182.856 195.904 182.166 223.158 174.652 225.079C171.655 225.845 165.272 223.969 158.775 220.086L162.853 248.691H138.774L147.063 210.383Z" fill="#D4A181"/>
<path fill-rule="evenodd" clip-rule="evenodd" d="M153.572 206.786C154.682 218.602 154.237 232.096 150.931 235.299H121.836C120.214 207.372 135.882 218.186 135.882 191.893C136.858 190.947 137.781 190.01 138.695 189.202L138.662 188.429C143.7 178.202 150.092 173.089 157.838 173.089C169.456 173.089 173.123 178.449 176.245 183C173.911 190.943 164.85 192.121 156.799 197.072C155.85 196.308 154.64 195.85 153.321 195.85C150.274 195.85 147.803 198.299 147.803 201.321C147.803 204.342 150.274 206.792 153.321 206.792C153.406 206.792 153.489 206.79 153.572 206.786Z" fill="#191847"/>
<path fill-rule="evenodd" clip-rule="evenodd" d="M100.055 428.831C124.123 435.506 144.888 438.843 162.351 438.843C179.813 438.843 196.033 433.704 211.011 423.425C187.458 416.574 168.061 413.148 152.82 413.148C137.579 413.148 119.991 418.376 100.055 428.831Z" fill="#333333"/>
<path fill-rule="evenodd" clip-rule="evenodd" d="M183.186 448.464C182.954 448.118 182.758 447.742 182.603 447.334C179.386 438.898 127.855 347.894 122.721 331.257H180.737C184.641 343.907 202.209 423.292 204.681 439.13C212.482 464.114 228.543 545.027 230.594 550.632C232.751 556.529 220.614 562.672 217.38 555.422C212.234 543.887 199.973 511.97 194.514 492.482C189.395 474.212 185.228 457.775 183.186 448.464Z" fill="#BA8B72"/>
<path fill-rule="evenodd" clip-rule="evenodd" d="M162.025 470.398C142.276 484.435 66.0065 525.613 61.1199 529.316C56.0931 533.124 46.5433 523.487 52.5486 518.254C62.1039 509.927 89.1363 488.759 106.25 477.751C120.015 468.897 132.692 461.11 141.286 456.093C130.392 430.863 102.562 370.973 99.6446 356.832L147.423 338.22C150.22 351.78 168.05 451.725 168.216 462.359C168.415 466.102 165.675 468.857 162.025 470.398Z" fill="#D4A181"/>
<path fill-rule="evenodd" clip-rule="evenodd" d="M51.8065 514.966C48.6702 515.561 46.469 516.242 45.2031 517.009C43.6634 517.942 41.5742 519.558 38.9353 521.858C40.0319 523.635 49.8875 539.601 68.5018 569.756C73.4073 568.494 75.1972 566.422 73.8717 563.54C72.5462 560.659 71.4689 558.251 70.6398 556.316L66.8759 528.007C66.8034 527.462 66.3 527.078 65.7514 527.148C65.7421 527.149 65.7327 527.15 65.7233 527.152L61.35 527.835C58.653 526.058 56.8255 524.394 55.8674 522.842C55.0889 521.581 54.526 519.529 54.1784 516.686L54.1785 516.686C54.0451 515.595 53.0464 514.815 51.9478 514.944C51.9004 514.95 51.8533 514.957 51.8065 514.966Z" fill="#E4E4E4"/>
<path fill-rule="evenodd" clip-rule="evenodd" d="M213.698 554.484C212.575 557.454 212.014 559.677 212.014 561.152C212.014 562.946 212.315 565.564 212.918 569.005C215.017 569.005 233.879 569.005 269.505 569.005C270.976 564.185 270.127 561.583 266.959 561.199C263.791 560.814 261.159 560.467 259.063 560.157L232.762 548.532C232.256 548.308 231.663 548.534 231.437 549.035C231.433 549.044 231.429 549.053 231.426 549.061L229.735 553.127C226.802 554.484 224.419 555.163 222.585 555.163C221.095 555.163 219.038 554.566 216.413 553.373L216.413 553.373C215.405 552.915 214.214 553.354 213.753 554.352C213.733 554.395 213.714 554.439 213.698 554.484Z" fill="#E4E4E4"/>
<path fill-rule="evenodd" clip-rule="evenodd" d="M119.711 331.257C142.332 324.84 163.736 324.84 183.922 331.257C190.945 363.027 208.01 375.636 211.011 424.346C176.899 441.151 134.761 412.36 99.6455 428.749C89.6126 405.825 103.659 350.619 119.711 331.257Z" fill="black"/>
<path fill-rule="evenodd" clip-rule="evenodd" d="M217.03 291.775L256.643 286.418C264.567 282.048 271.857 279.089 278.513 277.542C280.386 277.488 283.365 278.163 278.926 281.832C274.488 285.501 269.984 289.559 270.775 291.517C271.566 293.475 275.694 292.747 276.378 295.758C276.833 297.766 270.134 298.092 256.28 296.737L224.138 309.372L217.03 291.775ZM92.5922 300.866L114.562 300.948C90.4715 354.699 77.9106 382.842 76.8788 385.377C74.5572 391.082 79.4699 399.77 81.5708 404.438C74.7283 407.474 75.4574 396.231 66.8258 400.213C58.9473 403.847 52.9541 410.432 43.8516 404.863C42.7325 404.179 41.5061 401.601 44.4691 399.587C51.8511 394.568 62.489 385.784 63.9263 382.893C65.8864 378.95 75.4417 351.608 92.5922 300.866Z" fill="#D4A181"/>
<path fill-rule="evenodd" clip-rule="evenodd" d="M152.769 231.78L169.97 232.916C174.207 270.917 197.282 294.921 248.946 286.795L255.81 335.732C207.522 341.919 165.173 322.751 156.494 270.853C154.248 257.418 152.474 243.437 152.769 231.78Z" fill="#F3AAAA"/>
<path fill-rule="evenodd" clip-rule="evenodd" d="M144.283 226.822L170.345 232.74C170.345 277.186 184.624 305.542 191.948 338.22H121.561C120.569 349.511 119.961 361.117 119.643 373.037H66.9399C78.8828 310.032 104.09 261.289 142.562 226.806H144.269L144.283 226.822Z" fill="#F4CBCB"/>
<path fill-rule="evenodd" clip-rule="evenodd" d="M132.666 274.813C130.852 302.508 131.919 323.644 135.867 338.22H121.561C123.525 315.852 126.991 294.716 132.666 274.813V274.813Z" fill="black" fill-opacity="0.1"/>
</g>
<path d="M159.954 38.44C158.576 38.44 157.388 38.3227 156.39 38.088C155.393 37.8533 154.381 37.472 153.354 36.944V32.016H153.97L155.378 34.436C156.288 36.0493 157.769 36.856 159.822 36.856C160.996 36.856 161.905 36.5773 162.55 36.02C163.225 35.4627 163.562 34.7 163.562 33.732C163.562 32.8813 163.357 32.2213 162.946 31.752C162.536 31.2827 161.949 30.872 161.186 30.52C160.453 30.1387 159.573 29.7133 158.546 29.244C157.05 28.5693 155.892 27.836 155.07 27.044C154.278 26.2227 153.882 25.0787 153.882 23.612C153.882 22.5267 154.19 21.544 154.806 20.664C155.422 19.784 156.2 19.08 157.138 18.552C158.106 18.024 159.104 17.76 160.13 17.76C161.216 17.76 162.213 17.892 163.122 18.156C164.032 18.42 164.956 18.7867 165.894 19.256V24.052H165.278L163.826 21.72C163.328 20.928 162.785 20.356 162.198 20.004C161.612 19.652 160.981 19.476 160.306 19.476C159.309 19.476 158.502 19.7253 157.886 20.224C157.3 20.7227 157.006 21.412 157.006 22.292C157.006 23.2893 157.358 24.052 158.062 24.58C158.796 25.0787 159.852 25.6507 161.23 26.296C162.052 26.7067 162.873 27.1173 163.694 27.528C164.545 27.9387 165.234 28.5253 165.762 29.288C166.32 30.0213 166.598 31.0773 166.598 32.456C166.598 33.7467 166.246 34.8467 165.542 35.756C164.838 36.636 163.973 37.3107 162.946 37.78C161.92 38.22 160.922 38.44 159.954 38.44ZM169.487 48.12V47.416L172.259 46.008V22.776L169.619 20.488V20.18L175.075 17.76H175.339L175.691 20.444H175.999C177.113 19.5053 178.184 18.8307 179.211 18.42C180.237 17.98 181.352 17.76 182.555 17.76C184.051 17.76 185.371 18.1413 186.515 18.904C187.659 19.6667 188.553 20.752 189.199 22.16C189.873 23.5387 190.211 25.196 190.211 27.132C190.211 29.5373 189.756 31.5907 188.847 33.292C187.967 34.964 186.764 36.24 185.239 37.12C183.713 38 182.041 38.44 180.223 38.44C178.58 38.44 177.099 38.2933 175.779 38V46.008L178.903 47.416V48.12H169.487ZM180.135 20.796C179.431 20.796 178.697 20.9133 177.935 21.148C177.201 21.3533 176.483 21.676 175.779 22.116V34.48C176.659 35.184 177.553 35.668 178.463 35.932C179.372 36.196 180.384 36.328 181.499 36.328C182.907 36.328 184.124 35.7413 185.151 34.568C186.177 33.3653 186.691 31.3707 186.691 28.584C186.691 26.7653 186.397 25.284 185.811 24.14C185.224 22.996 184.432 22.16 183.435 21.632C182.437 21.0747 181.337 20.796 180.135 20.796ZM201.75 38.44C198.905 38.44 196.661 37.5747 195.018 35.844C193.376 34.1133 192.554 31.8253 192.554 28.98C192.554 26.78 192.98 24.844 193.83 23.172C194.71 21.4707 195.854 20.1507 197.262 19.212C198.7 18.244 200.254 17.76 201.926 17.76C204.244 17.76 206.062 18.5667 207.382 20.18C208.732 21.7933 209.406 24.1107 209.406 27.132L209.186 27.352H196.03C196.06 28.7013 196.324 29.9773 196.822 31.18C197.321 32.3533 198.113 33.3067 199.198 34.04C200.313 34.7733 201.794 35.14 203.642 35.14C205.256 35.14 207.148 34.5533 209.318 33.38H209.45V33.82C208.776 35.0813 207.764 36.1667 206.414 37.076C205.094 37.9853 203.54 38.44 201.75 38.44ZM201.222 19.696C199.814 19.696 198.656 20.1947 197.746 21.192C196.866 22.16 196.324 23.5387 196.118 25.328H206.062C205.74 23.3333 205.168 21.896 204.346 21.016C203.554 20.136 202.513 19.696 201.222 19.696ZM216.546 38.44C215.167 38.44 214.023 38.044 213.114 37.252C212.204 36.4307 211.75 35.3013 211.75 33.864C211.75 32.4267 212.278 31.18 213.334 30.124C214.419 29.068 216.223 28.2467 218.746 27.66L222.926 26.692V23.48C222.926 22.4827 222.515 21.632 221.694 20.928C220.902 20.1947 219.992 19.828 218.966 19.828C217.851 19.828 217.074 20.136 216.634 20.752C216.194 21.3387 215.974 22.1307 215.974 23.128V24.36L215.754 24.58H213.466C213.026 24.58 212.718 24.5067 212.542 24.36C212.395 24.2133 212.322 23.876 212.322 23.348C212.322 22.7027 212.512 22.0427 212.894 21.368C213.275 20.6933 213.862 20.1067 214.654 19.608C215.475 19.08 216.326 18.64 217.206 18.288C218.115 17.936 219.083 17.76 220.11 17.76C221.136 17.76 222.134 17.9067 223.102 18.2C224.099 18.4933 224.906 18.992 225.522 19.696C226.138 20.3707 226.446 21.324 226.446 22.556V35.052C226.651 35.2573 226.944 35.4333 227.326 35.58C227.707 35.7267 228.235 35.8 228.91 35.8H230.582L230.714 35.888V36.02C230.362 36.6653 229.834 37.2373 229.13 37.736C228.455 38.2053 227.619 38.44 226.622 38.44C225.712 38.44 224.964 38.2053 224.378 37.736C223.82 37.2373 223.424 36.592 223.19 35.8H222.926C222.163 36.5627 221.21 37.1933 220.066 37.692C218.951 38.1907 217.778 38.44 216.546 38.44ZM215.182 32.984C215.182 34.8027 216.282 35.712 218.482 35.712C219.186 35.712 219.875 35.6387 220.55 35.492C221.254 35.3453 222.046 35.0813 222.926 34.7V28.188C220.579 28.628 218.863 29.0973 217.778 29.596C216.692 30.0653 215.988 30.5787 215.666 31.136C215.343 31.6933 215.182 32.3093 215.182 32.984ZM230.906 38V37.296L233.678 35.888V10.016L231.038 7.728V7.42L236.934 5H237.198V26.78L244.282 20.752V20.488L242.126 18.904V18.2H250.486V18.904L247.67 20.444L240.41 26.032L249.298 35.8L252.114 37.296V38H246.306L244.634 35.712L237.198 27.44V36.02L240.322 37.296V38H230.906ZM263.581 48.604C262.907 48.604 262.481 48.5013 262.305 48.296C262.159 48.12 262.085 47.7973 262.085 47.328V45.128L262.261 44.952H264.285C265.019 44.952 265.576 44.8787 265.957 44.732C266.339 44.6147 266.691 44.2773 267.013 43.72C267.336 43.192 267.791 42.312 268.377 41.08L269.917 37.648L261.865 20.268L258.917 18.904V18.2H269.433V18.904L265.825 20.268V20.488L271.677 33.248H271.809L276.737 20.752V20.488L273.437 18.904V18.2H282.061V18.904L278.761 20.4L270.093 41.476C269.829 42.1507 269.595 42.708 269.389 43.148C269.213 43.6173 269.008 44.0573 268.773 44.468C268.539 44.908 268.201 45.436 267.761 46.052C267.175 46.9027 266.515 47.5333 265.781 47.944C265.048 48.384 264.315 48.604 263.581 48.604ZM290.75 38.44C288.814 38.44 287.113 37.9853 285.646 37.076C284.209 36.1667 283.079 34.9347 282.258 33.38C281.466 31.8253 281.07 30.0653 281.07 28.1C281.07 26.1347 281.466 24.3747 282.258 22.82C283.079 21.2653 284.209 20.0333 285.646 19.124C287.113 18.2147 288.814 17.76 290.75 17.76C292.686 17.76 294.373 18.2147 295.81 19.124C297.277 20.0333 298.406 21.2653 299.198 22.82C300.019 24.3747 300.43 26.1347 300.43 28.1C300.43 30.0653 300.019 31.8253 299.198 33.38C298.406 34.9347 297.277 36.1667 295.81 37.076C294.373 37.9853 292.686 38.44 290.75 38.44ZM291.366 36.548C292.539 36.548 293.507 36.1813 294.27 35.448C295.033 34.7147 295.59 33.776 295.942 32.632C296.294 31.4587 296.47 30.2413 296.47 28.98C296.47 27.4253 296.25 25.9293 295.81 24.492C295.399 23.0547 294.725 21.8813 293.786 20.972C292.877 20.0627 291.689 19.608 290.222 19.608C289.019 19.608 288.037 19.9747 287.274 20.708C286.511 21.4413 285.939 22.38 285.558 23.524C285.206 24.668 285.03 25.8853 285.03 27.176C285.03 28.7307 285.25 30.2267 285.69 31.664C286.13 33.1013 286.819 34.2747 287.758 35.184C288.697 36.0933 289.899 36.548 291.366 36.548ZM310.332 38.44C308.601 38.44 307.178 38.0147 306.064 37.164C304.978 36.284 304.436 34.9933 304.436 33.292V20.268L301.664 18.904V18.2H307.956V31.224C307.956 32.5147 308.352 33.4973 309.144 34.172C309.965 34.8467 311.021 35.184 312.312 35.184C313.104 35.184 313.969 35.052 314.908 34.788C315.876 34.524 316.638 34.1427 317.196 33.644V20.268L314.072 18.904V18.2H320.716V36.02L323.84 37.296V38H317.196V35.228H316.976C315.861 36.3427 314.776 37.164 313.72 37.692C312.693 38.1907 311.564 38.44 310.332 38.44ZM325.184 38V37.296L327.956 35.888V22.776L325.316 20.488V20.18L330.772 17.76H331.036L331.432 21.5H331.608C332.282 20.4147 332.898 19.608 333.456 19.08C334.042 18.5227 334.585 18.1707 335.084 18.024C335.582 17.848 336.081 17.76 336.58 17.76C336.814 17.76 337.078 17.804 337.372 17.892C337.694 17.98 337.958 18.068 338.164 18.156C338.486 18.3027 338.78 18.4787 339.044 18.684C339.337 18.8893 339.484 19.124 339.484 19.388C339.484 19.652 339.425 19.916 339.308 20.18L338.428 22.336H338.12L336.448 21.676C336.125 21.5293 335.802 21.4413 335.48 21.412C335.186 21.3827 334.893 21.368 334.6 21.368C333.368 21.368 332.326 21.9987 331.476 23.26V35.888L334.6 37.296V38H325.184ZM349.096 38V37.296L351.868 35.888V22.776L349.228 20.488V20.18L354.684 17.76H354.948L355.344 21.016H355.564C356.649 19.9013 357.691 19.08 358.688 18.552C359.715 18.024 360.829 17.76 362.032 17.76C363.44 17.76 364.643 18.0827 365.64 18.728C366.637 19.344 367.283 20.2827 367.576 21.544H367.708C368.94 20.2533 370.084 19.3 371.14 18.684C372.225 18.068 373.413 17.76 374.704 17.76C376.347 17.76 377.696 18.2 378.752 19.08C379.837 19.9307 380.38 21.2067 380.38 22.908V35.888L383.152 37.296V38H373.736V37.296L376.86 35.888V24.976C376.86 23.6853 376.464 22.7027 375.672 22.028C374.909 21.3533 373.927 21.016 372.724 21.016C371.727 21.016 370.788 21.1773 369.908 21.5C369.028 21.8227 368.295 22.3067 367.708 22.952V35.888L370.744 37.296V38H361.24V37.296L364.188 35.888V24.976C364.188 23.6853 363.792 22.7027 363 22.028C362.237 21.3533 361.255 21.016 360.052 21.016C359.319 21.016 358.497 21.148 357.588 21.412C356.679 21.676 355.945 22.0573 355.388 22.556V35.888L358.248 37.296V38H349.096ZM389.201 12.436C388.438 12.436 387.807 12.1867 387.309 11.688C386.81 11.16 386.561 10.5293 386.561 9.796C386.561 9.03333 386.81 8.40266 387.309 7.904C387.807 7.40533 388.438 7.156 389.201 7.156C389.963 7.156 390.594 7.40533 391.093 7.904C391.591 8.40266 391.841 9.03333 391.841 9.796C391.841 10.5293 391.591 11.16 391.093 11.688C390.594 12.1867 389.963 12.436 389.201 12.436ZM384.801 38V37.296L387.573 35.888V22.776L384.933 20.488V20.18L390.829 17.76H391.093V35.888L393.865 37.296V38H384.801ZM396.13 38V37.296L398.902 35.888V22.776L396.262 20.488V20.18L401.718 17.76H401.982L402.378 21.016H402.598C403.712 19.9013 404.783 19.08 405.81 18.552C406.866 18.024 408.024 17.76 409.286 17.76C411.016 17.76 412.424 18.2 413.51 19.08C414.624 19.9307 415.182 21.2067 415.182 22.908V35.888L417.954 37.296V38H408.538V37.296L411.662 35.888V24.976C411.662 23.6853 411.251 22.7027 410.43 22.028C409.638 21.3533 408.596 21.016 407.306 21.016C406.514 21.016 405.634 21.148 404.666 21.412C403.727 21.676 402.979 22.0573 402.422 22.556V35.888L405.546 37.296V38H396.13ZM427.019 38.44C425.552 38.44 424.232 38.0733 423.059 37.34C421.915 36.6067 421.006 35.58 420.331 34.26C419.686 32.9107 419.363 31.312 419.363 29.464C419.363 26.9707 419.847 24.8587 420.815 23.128C421.783 21.368 423.074 20.0333 424.687 19.124C426.3 18.2147 428.06 17.76 429.967 17.76C430.788 17.76 431.507 17.804 432.123 17.892C432.739 17.9507 433.296 18.0387 433.795 18.156V10.016L430.935 7.728V7.42L437.051 5H437.315V36.02L440.439 37.296V38H434.235L433.883 35.756H433.575C432.46 36.6947 431.375 37.384 430.319 37.824C429.292 38.2347 428.192 38.44 427.019 38.44ZM422.883 28.452C422.883 30.8867 423.528 32.6613 424.819 33.776C426.11 34.8613 427.65 35.404 429.439 35.404C430.143 35.404 430.862 35.3013 431.595 35.096C432.358 34.8613 433.091 34.524 433.795 34.084V21.764C433.091 21.148 432.387 20.6933 431.683 20.4C431.008 20.0773 430.246 19.916 429.395 19.916C428.222 19.916 427.136 20.2093 426.139 20.796C425.171 21.3533 424.379 22.2627 423.763 23.524C423.176 24.756 422.883 26.3987 422.883 28.452ZM442.489 47.02V46.096C443.721 45.4507 444.616 44.7173 445.173 43.896C445.73 43.0747 446.009 42.2093 446.009 41.3C446.009 40.4787 445.818 39.7893 445.437 39.232C445.085 38.704 444.542 38.2493 443.809 37.868L442.313 37.076L442.181 36.636L443.457 34.436C443.662 34.1133 443.838 33.8787 443.985 33.732C444.132 33.556 444.322 33.468 444.557 33.468C444.792 33.468 445.158 33.6 445.657 33.864C446.566 34.392 447.27 35.1253 447.769 36.064C448.297 37.0027 448.561 38.0147 448.561 39.1C448.561 40.6547 448.092 42.1067 447.153 43.456C446.214 44.8053 444.66 45.9933 442.489 47.02ZM133.555 88L126.647 70.268L123.699 68.904V68.2H134.215V68.904L130.607 70.224V70.488L135.183 82.676H135.359L141.607 68.2H142.531L148.779 82.544H148.955L153.399 70.752V70.488L150.231 68.904V68.2H158.855V68.904L155.599 70.444L148.251 88H147.327L140.991 73.656L134.479 88H133.555ZM162.416 62.436C161.653 62.436 161.023 62.1867 160.524 61.688C160.025 61.16 159.776 60.5293 159.776 59.796C159.776 59.0333 160.025 58.4027 160.524 57.904C161.023 57.4053 161.653 57.156 162.416 57.156C163.179 57.156 163.809 57.4053 164.308 57.904C164.807 58.4027 165.056 59.0333 165.056 59.796C165.056 60.5293 164.807 61.16 164.308 61.688C163.809 62.1867 163.179 62.436 162.416 62.436ZM158.016 88V87.296L160.788 85.888V72.776L158.148 70.488V70.18L164.044 67.76H164.308V85.888L167.08 87.296V88H158.016ZM176.385 88.44C175.094 88.44 173.979 88.0587 173.041 87.296C172.102 86.5333 171.633 85.4627 171.633 84.084V70.268H168.025V70.004L171.765 68.2L174.889 63.36H175.153V68.2H180.961V70.268H175.153V83.336C175.153 84.0987 175.49 84.656 176.165 85.008C176.839 85.36 177.631 85.536 178.541 85.536C179.098 85.536 179.611 85.5067 180.081 85.448C180.579 85.3893 181.005 85.316 181.357 85.228H181.489V85.668C181.195 86.3427 180.609 86.9733 179.729 87.56C178.878 88.1467 177.763 88.44 176.385 88.44ZM182.7 88V87.296L185.472 85.888V60.016L182.832 57.728V57.42L188.728 55H188.992V71.016H189.168C190.282 69.9013 191.353 69.08 192.38 68.552C193.436 68.024 194.594 67.76 195.856 67.76C197.586 67.76 198.994 68.2 200.08 69.08C201.194 69.9307 201.752 71.2067 201.752 72.908V85.888L204.524 87.296V88H195.108V87.296L198.232 86.02V74.976C198.232 73.6853 197.821 72.7027 197 72.028C196.208 71.3533 195.166 71.016 193.876 71.016C193.084 71.016 192.204 71.148 191.236 71.412C190.297 71.676 189.549 72.0573 188.992 72.556V86.02L192.116 87.296V88H182.7ZM215.877 88.44C213.941 88.44 212.24 87.9853 210.773 87.076C209.336 86.1667 208.206 84.9347 207.385 83.38C206.593 81.8253 206.197 80.0653 206.197 78.1C206.197 76.1347 206.593 74.3747 207.385 72.82C208.206 71.2653 209.336 70.0333 210.773 69.124C212.24 68.2147 213.941 67.76 215.877 67.76C217.813 67.76 219.5 68.2147 220.937 69.124C222.404 70.0333 223.533 71.2653 224.325 72.82C225.146 74.3747 225.557 76.1347 225.557 78.1C225.557 80.0653 225.146 81.8253 224.325 83.38C223.533 84.9347 222.404 86.1667 220.937 87.076C219.5 87.9853 217.813 88.44 215.877 88.44ZM216.493 86.548C217.666 86.548 218.634 86.1813 219.397 85.448C220.16 84.7147 220.717 83.776 221.069 82.632C221.421 81.4587 221.597 80.2413 221.597 78.98C221.597 77.4253 221.377 75.9293 220.937 74.492C220.526 73.0547 219.852 71.8813 218.913 70.972C218.004 70.0627 216.816 69.608 215.349 69.608C214.146 69.608 213.164 69.9747 212.401 70.708C211.638 71.4413 211.066 72.38 210.685 73.524C210.333 74.668 210.157 75.8853 210.157 77.176C210.157 78.7307 210.377 80.2267 210.817 81.664C211.257 83.1013 211.946 84.2747 212.885 85.184C213.824 86.0933 215.026 86.548 216.493 86.548ZM235.459 88.44C233.728 88.44 232.305 88.0147 231.191 87.164C230.105 86.284 229.563 84.9933 229.563 83.292V70.268L226.791 68.904V68.2H233.083V81.224C233.083 82.5147 233.479 83.4973 234.271 84.172C235.092 84.8467 236.148 85.184 237.439 85.184C238.231 85.184 239.096 85.052 240.035 84.788C241.003 84.524 241.765 84.1427 242.323 83.644V70.268L239.199 68.904V68.2H245.843V86.02L248.967 87.296V88H242.323V85.228H242.103C240.988 86.3427 239.903 87.164 238.847 87.692C237.82 88.1907 236.691 88.44 235.459 88.44ZM257.175 88.44C255.884 88.44 254.769 88.0587 253.831 87.296C252.892 86.5333 252.423 85.4627 252.423 84.084V70.268H248.815V70.004L252.555 68.2L255.679 63.36H255.943V68.2H261.751V70.268H255.943V83.336C255.943 84.0987 256.28 84.656 256.955 85.008C257.629 85.36 258.421 85.536 259.331 85.536C259.888 85.536 260.401 85.5067 260.871 85.448C261.369 85.3893 261.795 85.316 262.147 85.228H262.279V85.668C261.985 86.3427 261.399 86.9733 260.519 87.56C259.668 88.1467 258.553 88.44 257.175 88.44ZM279.769 88.44C278.303 88.44 276.983 88.0733 275.809 87.34C274.665 86.6067 273.756 85.58 273.081 84.26C272.436 82.9107 272.113 81.312 272.113 79.464C272.113 76.9707 272.597 74.8587 273.565 73.128C274.533 71.368 275.824 70.0333 277.437 69.124C279.051 68.2147 280.811 67.76 282.717 67.76C283.539 67.76 284.257 67.804 284.873 67.892C285.489 67.9507 286.047 68.0387 286.545 68.156V60.016L283.685 57.728V57.42L289.801 55H290.065V86.02L293.189 87.296V88H286.985L286.633 85.756H286.325C285.211 86.6947 284.125 87.384 283.069 87.824C282.043 88.2347 280.943 88.44 279.769 88.44ZM275.633 78.452C275.633 80.8867 276.279 82.6613 277.569 83.776C278.86 84.8613 280.4 85.404 282.189 85.404C282.893 85.404 283.612 85.3013 284.345 85.096C285.108 84.8613 285.841 84.524 286.545 84.084V71.764C285.841 71.148 285.137 70.6933 284.433 70.4C283.759 70.0773 282.996 69.916 282.145 69.916C280.972 69.916 279.887 70.2093 278.889 70.796C277.921 71.3533 277.129 72.2627 276.513 73.524C275.927 74.756 275.633 76.3987 275.633 78.452ZM299.331 62.436C298.569 62.436 297.938 62.1867 297.439 61.688C296.941 61.16 296.691 60.5293 296.691 59.796C296.691 59.0333 296.941 58.4027 297.439 57.904C297.938 57.4053 298.569 57.156 299.331 57.156C300.094 57.156 300.725 57.4053 301.223 57.904C301.722 58.4027 301.971 59.0333 301.971 59.796C301.971 60.5293 301.722 61.16 301.223 61.688C300.725 62.1867 300.094 62.436 299.331 62.436ZM294.931 88V87.296L297.703 85.888V72.776L295.063 70.488V70.18L300.959 67.76H301.223V85.888L303.995 87.296V88H294.931ZM313.52 88.44C312.142 88.44 310.954 88.3227 309.956 88.088C308.959 87.8533 307.947 87.472 306.92 86.944V82.016H307.536L308.944 84.436C309.854 86.0493 311.335 86.856 313.388 86.856C314.562 86.856 315.471 86.5773 316.116 86.02C316.791 85.4627 317.128 84.7 317.128 83.732C317.128 82.8813 316.923 82.2213 316.512 81.752C316.102 81.2827 315.515 80.872 314.752 80.52C314.019 80.1387 313.139 79.7133 312.112 79.244C310.616 78.5693 309.458 77.836 308.636 77.044C307.844 76.2227 307.448 75.0787 307.448 73.612C307.448 72.5267 307.756 71.544 308.372 70.664C308.988 69.784 309.766 69.08 310.704 68.552C311.672 68.024 312.67 67.76 313.696 67.76C314.782 67.76 315.779 67.892 316.688 68.156C317.598 68.42 318.522 68.7867 319.46 69.256V74.052H318.844L317.392 71.72C316.894 70.928 316.351 70.356 315.764 70.004C315.178 69.652 314.547 69.476 313.872 69.476C312.875 69.476 312.068 69.7253 311.452 70.224C310.866 70.7227 310.572 71.412 310.572 72.292C310.572 73.2893 310.924 74.052 311.628 74.58C312.362 75.0787 313.418 75.6507 314.796 76.296C315.618 76.7067 316.439 77.1173 317.26 77.528C318.111 77.9387 318.8 78.5253 319.328 79.288C319.886 80.0213 320.164 81.0773 320.164 82.456C320.164 83.7467 319.812 84.8467 319.108 85.756C318.404 86.636 317.539 87.3107 316.512 87.78C315.486 88.22 314.488 88.44 313.52 88.44ZM329.663 88.44C328.372 88.44 327.258 88.0587 326.319 87.296C325.38 86.5333 324.911 85.4627 324.911 84.084V70.268H321.303V70.004L325.043 68.2L328.167 63.36H328.431V68.2H334.239V70.268H328.431V83.336C328.431 84.0987 328.768 84.656 329.443 85.008C330.118 85.36 330.91 85.536 331.819 85.536C332.376 85.536 332.89 85.5067 333.359 85.448C333.858 85.3893 334.283 85.316 334.635 85.228H334.767V85.668C334.474 86.3427 333.887 86.9733 333.007 87.56C332.156 88.1467 331.042 88.44 329.663 88.44ZM336.583 88V87.296L339.355 85.888V72.776L336.715 70.488V70.18L342.171 67.76H342.435L342.831 71.5H343.007C343.682 70.4147 344.298 69.608 344.855 69.08C345.442 68.5227 345.985 68.1707 346.483 68.024C346.982 67.848 347.481 67.76 347.979 67.76C348.214 67.76 348.478 67.804 348.771 67.892C349.094 67.98 349.358 68.068 349.563 68.156C349.886 68.3027 350.179 68.4787 350.443 68.684C350.737 68.8893 350.883 69.124 350.883 69.388C350.883 69.652 350.825 69.916 350.707 70.18L349.827 72.336H349.519L347.847 71.676C347.525 71.5293 347.202 71.4413 346.879 71.412C346.586 71.3827 346.293 71.368 345.999 71.368C344.767 71.368 343.726 71.9987 342.875 73.26V85.888L345.999 87.296V88H336.583ZM356.877 88.44C355.499 88.44 354.355 88.044 353.445 87.252C352.536 86.4307 352.081 85.3013 352.081 83.864C352.081 82.4267 352.609 81.18 353.665 80.124C354.751 79.068 356.555 78.2467 359.077 77.66L363.257 76.692V73.48C363.257 72.4827 362.847 71.632 362.025 70.928C361.233 70.1947 360.324 69.828 359.297 69.828C358.183 69.828 357.405 70.136 356.965 70.752C356.525 71.3387 356.305 72.1307 356.305 73.128V74.36L356.085 74.58H353.797C353.357 74.58 353.049 74.5067 352.873 74.36C352.727 74.2133 352.653 73.876 352.653 73.348C352.653 72.7027 352.844 72.0427 353.225 71.368C353.607 70.6933 354.193 70.1067 354.985 69.608C355.807 69.08 356.657 68.64 357.537 68.288C358.447 67.936 359.415 67.76 360.441 67.76C361.468 67.76 362.465 67.9067 363.433 68.2C364.431 68.4933 365.237 68.992 365.853 69.696C366.469 70.3707 366.777 71.324 366.777 72.556V85.052C366.983 85.2573 367.276 85.4333 367.657 85.58C368.039 85.7267 368.567 85.8 369.241 85.8H370.913L371.045 85.888V86.02C370.693 86.6653 370.165 87.2373 369.461 87.736C368.787 88.2053 367.951 88.44 366.953 88.44C366.044 88.44 365.296 88.2053 364.709 87.736C364.152 87.2373 363.756 86.592 363.521 85.8H363.257C362.495 86.5627 361.541 87.1933 360.397 87.692C359.283 88.1907 358.109 88.44 356.877 88.44ZM355.513 82.984C355.513 84.8027 356.613 85.712 358.813 85.712C359.517 85.712 360.207 85.6387 360.881 85.492C361.585 85.3453 362.377 85.0813 363.257 84.7V78.188C360.911 78.628 359.195 79.0973 358.109 79.596C357.024 80.0653 356.32 80.5787 355.997 81.136C355.675 81.6933 355.513 82.3093 355.513 82.984ZM380.737 88.44C377.891 88.44 375.647 87.5747 374.005 85.844C372.362 84.1133 371.541 81.8253 371.541 78.98C371.541 76.78 371.981 74.844 372.861 73.172C373.77 71.4707 374.987 70.1507 376.513 69.212C378.038 68.244 379.754 67.76 381.661 67.76C382.834 67.76 383.978 67.9653 385.093 68.376C386.207 68.7573 387.058 69.2707 387.645 69.916C388.114 70.4733 388.349 70.9133 388.349 71.236C388.349 71.6467 388.158 71.9987 387.777 72.292L386.105 73.7H385.797L384.301 71.676C383.861 71.0893 383.303 70.62 382.629 70.268C381.983 69.8867 381.177 69.696 380.209 69.696C378.595 69.696 377.319 70.3413 376.381 71.632C375.471 72.8933 375.017 74.668 375.017 76.956C375.017 78.364 375.251 79.6987 375.721 80.96C376.19 82.192 376.967 83.204 378.053 83.996C379.167 84.7587 380.693 85.14 382.629 85.14C384.242 85.14 386.134 84.5533 388.305 83.38H388.437V83.82C387.762 85.0813 386.75 86.1667 385.401 87.076C384.081 87.9853 382.526 88.44 380.737 88.44ZM397.347 88.44C396.057 88.44 394.942 88.0587 394.003 87.296C393.065 86.5333 392.595 85.4627 392.595 84.084V70.268H388.987V70.004L392.727 68.2L395.851 63.36H396.115V68.2H401.923V70.268H396.115V83.336C396.115 84.0987 396.453 84.656 397.127 85.008C397.802 85.36 398.594 85.536 399.503 85.536C400.061 85.536 400.574 85.5067 401.043 85.448C401.542 85.3893 401.967 85.316 402.319 85.228H402.451V85.668C402.158 86.3427 401.571 86.9733 400.691 87.56C399.841 88.1467 398.726 88.44 397.347 88.44ZM408.326 62.436C407.563 62.436 406.933 62.1867 406.434 61.688C405.935 61.16 405.686 60.5293 405.686 59.796C405.686 59.0333 405.935 58.4027 406.434 57.904C406.933 57.4053 407.563 57.156 408.326 57.156C409.089 57.156 409.719 57.4053 410.218 57.904C410.717 58.4027 410.966 59.0333 410.966 59.796C410.966 60.5293 410.717 61.16 410.218 61.688C409.719 62.1867 409.089 62.436 408.326 62.436ZM403.926 88V87.296L406.698 85.888V72.776L404.058 70.488V70.18L409.954 67.76H410.218V85.888L412.99 87.296V88H403.926ZM425.023 88.44C423.087 88.44 421.386 87.9853 419.919 87.076C418.482 86.1667 417.352 84.9347 416.531 83.38C415.739 81.8253 415.343 80.0653 415.343 78.1C415.343 76.1347 415.739 74.3747 416.531 72.82C417.352 71.2653 418.482 70.0333 419.919 69.124C421.386 68.2147 423.087 67.76 425.023 67.76C426.959 67.76 428.646 68.2147 430.083 69.124C431.55 70.0333 432.679 71.2653 433.471 72.82C434.292 74.3747 434.703 76.1347 434.703 78.1C434.703 80.0653 434.292 81.8253 433.471 83.38C432.679 84.9347 431.55 86.1667 430.083 87.076C428.646 87.9853 426.959 88.44 425.023 88.44ZM425.639 86.548C426.812 86.548 427.78 86.1813 428.543 85.448C429.306 84.7147 429.863 83.776 430.215 82.632C430.567 81.4587 430.743 80.2413 430.743 78.98C430.743 77.4253 430.523 75.9293 430.083 74.492C429.672 73.0547 428.998 71.8813 428.059 70.972C427.15 70.0627 425.962 69.608 424.495 69.608C423.292 69.608 422.31 69.9747 421.547 70.708C420.784 71.4413 420.212 72.38 419.831 73.524C419.479 74.668 419.303 75.8853 419.303 77.176C419.303 78.7307 419.523 80.2267 419.963 81.664C420.403 83.1013 421.092 84.2747 422.031 85.184C422.97 86.0933 424.172 86.548 425.639 86.548ZM436.817 88V87.296L439.589 85.888V72.776L436.949 70.488V70.18L442.405 67.76H442.669L443.065 71.016H443.285C444.399 69.9013 445.47 69.08 446.497 68.552C447.553 68.024 448.711 67.76 449.973 67.76C451.703 67.76 453.111 68.2 454.197 69.08C455.311 69.9307 455.869 71.2067 455.869 72.908V85.888L458.641 87.296V88H449.225V87.296L452.349 85.888V74.976C452.349 73.6853 451.938 72.7027 451.117 72.028C450.325 71.3533 449.283 71.016 447.993 71.016C447.201 71.016 446.321 71.148 445.353 71.412C444.414 71.676 443.666 72.0573 443.109 72.556V85.888L446.233 87.296V88H436.817ZM467.486 88.44C466.107 88.44 464.919 88.3227 463.922 88.088C462.925 87.8533 461.913 87.472 460.886 86.944V82.016H461.502L462.91 84.436C463.819 86.0493 465.301 86.856 467.354 86.856C468.527 86.856 469.437 86.5773 470.082 86.02C470.757 85.4627 471.094 84.7 471.094 83.732C471.094 82.8813 470.889 82.2213 470.478 81.752C470.067 81.2827 469.481 80.872 468.718 80.52C467.985 80.1387 467.105 79.7133 466.078 79.244C464.582 78.5693 463.423 77.836 462.602 77.044C461.81 76.2227 461.414 75.0787 461.414 73.612C461.414 72.5267 461.722 71.544 462.338 70.664C462.954 69.784 463.731 69.08 464.67 68.552C465.638 68.024 466.635 67.76 467.662 67.76C468.747 67.76 469.745 67.892 470.654 68.156C471.563 68.42 472.487 68.7867 473.426 69.256V74.052H472.81L471.358 71.72C470.859 70.928 470.317 70.356 469.73 70.004C469.143 69.652 468.513 69.476 467.838 69.476C466.841 69.476 466.034 69.7253 465.418 70.224C464.831 70.7227 464.538 71.412 464.538 72.292C464.538 73.2893 464.89 74.052 465.594 74.58C466.327 75.0787 467.383 75.6507 468.762 76.296C469.583 76.7067 470.405 77.1173 471.226 77.528C472.077 77.9387 472.766 78.5253 473.294 79.288C473.851 80.0213 474.13 81.0773 474.13 82.456C474.13 83.7467 473.778 84.8467 473.074 85.756C472.37 86.636 471.505 87.3107 470.478 87.78C469.451 88.22 468.454 88.44 467.486 88.44ZM479.977 88.22C479.243 88.22 478.613 87.956 478.085 87.428C477.557 86.9 477.293 86.2693 477.293 85.536C477.293 84.8027 477.557 84.172 478.085 83.644C478.613 83.116 479.243 82.852 479.977 82.852C480.71 82.852 481.341 83.116 481.869 83.644C482.397 84.172 482.661 84.8027 482.661 85.536C482.661 86.2693 482.397 86.9 481.869 87.428C481.341 87.956 480.71 88.22 479.977 88.22Z" fill="black"/>
<defs>
<clipPath id="clip0">
<rect width="337.105" height="449.634" fill="white" transform="translate(107.352 120.366)"/>
</clipPath>
<clipPath id="clip1">
<rect width="333.092" height="466.544" fill="white" transform="translate(276.908 103.456)"/>
</clipPath>
<clipPath id="clip2">
<rect width="381.25" height="477.487" fill="white" transform="translate(0 92.5131)"/>
</clipPath>
</defs>
</svg>
