<svg width="512" height="691" viewBox="0 0 512 691" fill="none" xmlns="http://www.w3.org/2000/svg">
<path fill-rule="evenodd" clip-rule="evenodd" d="M109.87 607.582C137.468 608.354 163.538 609.207 191.082 607.582C235.159 604.855 364.511 609.77 392.943 607.582C395.089 607.417 402.468 609.77 402.622 607.582C403.871 592.343 404.682 438.17 400.968 427.562C397.255 416.954 378.926 365.959 355.571 342.18C349.059 335.756 339.149 333.267 333.674 325.843C328.954 317.748 329.321 312.997 324.66 308.738C322.637 306.889 317.866 306.14 314.322 303.575C310.758 300.032 314.132 292.234 312.669 287.301C309.654 274.984 298.545 267.082 286.404 265.22C269.529 261.182 251.713 265 243.63 278.257C240.621 283.191 242.223 289.189 238.522 297.097C238.786 303.072 231.811 304.516 227.641 306.884L219.361 315.253C193.851 329.607 163.842 337.359 141.49 356.645C122.486 375.925 103.585 398.209 95.153 424.294C93.4074 431.402 92.8377 438.748 92.1143 446.011C90.0492 467.236 84.2987 487.836 79.3499 508.511C73.7071 534.559 68.4471 562.211 76.0523 588.506C78.245 594.071 104.879 607.322 109.87 607.582Z" fill="#D08B5B"/>
<path fill-rule="evenodd" clip-rule="evenodd" d="M238.407 297.041L240.562 297.272V313.867L268.746 343.188L273.896 349.076C270.826 360.025 273.917 365.5 283.171 365.5C297.052 365.5 286.321 361.466 288.931 356.007L289.041 355.783C290.933 352.045 297.408 344.117 308.467 331.999L321.151 310.795V306.923L321.581 307.099C322.779 307.597 323.812 308.106 324.514 308.748C329.175 313.007 328.809 317.758 333.529 325.854C339.003 333.277 348.913 335.766 355.425 342.19C378.78 365.969 397.11 416.964 400.823 427.572C404.536 438.18 403.726 592.353 402.476 607.592C402.322 609.78 394.943 607.427 392.798 607.592C364.365 609.78 235.014 604.865 190.936 607.592C163.392 609.217 137.322 608.365 109.725 607.592C104.733 607.332 78.0994 594.081 75.9068 588.516C68.3016 562.221 73.5616 534.57 79.2044 508.521L79.6936 506.488C84.4444 486.834 89.787 467.226 91.8643 447.064L91.9688 446.021C92.6922 438.758 93.2619 431.412 95.0074 424.304C103.439 398.219 122.341 375.935 141.344 356.655C163.473 337.562 193.106 329.774 218.449 315.692L219.215 315.263L227.496 306.894L227.749 306.753C231.941 304.466 238.635 302.963 238.376 297.107L238.407 297.041V297.041Z" fill="#FDEA6B"/>
<path fill-rule="evenodd" clip-rule="evenodd" d="M242.168 280.379C242.389 279.657 243.34 279.86 243.412 280.546C244.129 287.343 243.227 294.447 242.362 301.199C241.947 304.458 241.708 307.848 241.077 311.061C240.996 311.404 240.919 311.751 240.847 312.094C241.055 312.463 241.668 312.878 241.961 313.162L243.233 314.399L245.783 316.867C250.772 321.699 255.761 326.535 260.75 331.368L268.074 338.467C270.585 340.901 273.438 343.232 275.642 345.945C276.836 347.419 277.106 349.226 275.93 350.804C275.349 351.584 274.304 352.152 273.244 352.269C273.659 352.846 273.979 353.499 274.181 354.225C274.596 355.704 273.1 357.52 271.509 356.902C269.702 356.208 268.21 354.964 266.371 354.369C264.514 353.765 262.495 353.649 260.57 353.973C259.687 354.121 258.821 354.343 257.979 354.622C266.998 358.774 276.755 361.158 286.706 361.5C288.735 361.568 290.759 361.541 292.773 361.406C296.163 361.185 299.529 360.671 302.837 359.842C305.438 359.188 308.012 358.367 310.509 357.376C311.735 356.889 312.946 356.353 314.119 355.745L314.221 355.684C314.486 355.518 319.383 352.741 319.469 352.323C319.554 351.906 319.554 351.761 319.395 351.397C319.235 351.034 318.793 350.783 318.793 350.783C317.28 350.137 315.713 349.535 314.06 349.524C310.256 349.501 306.105 352.314 302.959 354.23C299.502 356.335 296.324 358.796 292.998 361.077C292.922 361.131 292.836 361.154 292.755 361.154C292.404 361.154 292.079 360.72 292.304 360.382C294.688 356.872 297.906 353.949 301.272 351.397L302.628 350.38C305.71 348.081 309.316 345.535 313.064 344.98C317.656 344.304 322.452 347.167 326.549 348.843L333.805 351.814C335.099 352.341 336.505 352.792 337.807 353.391L334.767 343.876C333.247 339.118 331.732 334.359 330.231 329.596L329.94 328.663C328.445 323.829 327.073 318.8 324.584 314.384C323.989 313.324 323.308 312.328 322.637 311.323C321.938 310.282 321.677 309.132 320.798 308.203C319.058 306.36 316.566 305.278 314.186 304.571C313.604 304.4 313.776 303.633 314.322 303.575C316.764 303.317 319.092 303.887 321.299 304.917L322.216 305.355C324.303 306.342 326.338 307.26 327.887 309.033C331.421 313.081 333.255 318.177 334.941 323.207L335.392 324.557C336.023 324.35 340.309 325.657 340.845 325.968C356.913 332.761 369.289 345.408 378.34 360.229C388.255 376.47 393.654 395.027 398.112 413.391C399.487 419.058 400.803 424.743 402.066 430.441C396.436 432.607 390.451 433.741 385.18 436.793C383.172 437.956 384.986 441.073 387 439.907C391.937 437.049 397.56 435.992 402.845 433.985C405.71 447.175 408.259 460.438 410.393 473.755C416.951 514.629 421.093 556.17 420.832 597.603C420.827 598.519 420.557 599.541 420.056 600.42C420.35 600.276 420.58 600.105 420.71 599.898C422.373 597.288 426.542 599.709 424.87 602.332L424.626 602.712C423.371 604.647 422.2 606.125 419.994 607.218C417.771 608.318 415.364 608.503 412.913 608.566C404.58 608.785 396.24 608.928 387.898 609.031C386.754 600.107 386.289 591.098 384.713 582.226C384.308 579.945 380.832 580.912 381.236 583.185C382.758 591.752 383.245 600.449 384.308 609.074C366.473 609.266 348.629 609.268 330.808 609.318C306.657 609.389 282.509 609.339 258.36 609.326L248.009 609.323C220.111 609.323 192.212 609.232 164.314 609.048L157.679 609.001C155.04 593.44 153.243 577.747 153.21 561.935C153.205 559.615 149.599 559.61 149.604 561.935C149.637 577.729 151.414 593.425 154.029 608.98C147.424 608.952 140.821 608.975 134.215 609.21L130.853 609.33C124.126 609.56 117.385 609.702 110.67 609.165C103.216 608.566 95.6759 607.195 88.992 603.684C85.9817 602.1 83.3311 600.075 81.0659 597.693C83.3685 596.354 85.7041 595.068 87.9346 593.609C89.8686 592.343 88.0644 589.22 86.1147 590.496C83.7111 592.069 81.1844 593.439 78.7096 594.894C76.9176 592.502 75.447 589.847 74.3301 586.984C72.5679 582.462 71.8873 577.599 71.2969 572.812C70.5987 567.173 70.3098 561.489 70.3098 555.81C70.3098 543.865 71.5673 531.956 73.321 520.156C74.998 508.85 77.2148 497.636 79.558 486.458L79.8783 484.934C82.1904 473.944 84.3944 462.923 87.0445 452.011C89.495 441.92 92.3267 431.876 95.7016 422.027C98.7056 423.884 101.849 425.509 104.806 427.444C106.754 428.719 108.562 425.598 106.626 424.331C103.471 422.266 100.106 420.55 96.9226 418.533C100.696 407.986 105.126 397.685 110.436 387.82C121.073 368.064 135.406 350.389 153.763 337.345C162.952 330.818 173.034 325.477 183.622 321.591C194.416 317.625 205.602 315.452 217.041 314.559C217.368 314.534 217.551 314.836 217.538 315.115L217.533 315.168L217.984 315.24C218.15 314.109 218.493 313.013 219.146 312.008C220.634 309.718 223.455 308.249 225.708 306.843L226.242 306.51C228.924 304.848 231.753 303.211 234.871 302.628C234.98 302.61 235.047 302.722 234.975 302.808C232.918 305.166 230.289 306.968 227.879 308.962L227.325 309.424C225.328 311.068 222.542 312.934 222.468 315.681C222.382 318.918 223.044 322.285 223.284 325.513C223.523 328.731 223.689 331.944 223.775 335.172C224.086 346.734 223.712 358.3 222.688 369.817L227.213 366.787C234.255 362.073 241.32 357.372 248.532 352.958C252.895 350.286 257.799 348 263.026 348.104C264.491 348.131 266.145 348.343 267.732 348.794C266.024 347.176 264.388 345.454 262.716 343.827C259.962 341.144 257.208 338.463 254.455 335.785L246.514 328.05L238.571 320.315C236.111 317.913 233.226 315.7 233.487 311.914C233.7 308.894 235.236 305.887 236.286 302.975C236.435 302.556 236.57 302.141 236.696 301.731C238.815 294.69 240.018 287.392 242.168 280.379ZM344.789 582.469C343.147 580.826 340.597 583.375 342.24 585.019L343.109 585.884C344.56 587.332 345.999 588.824 347.003 590.614L347.15 590.885C348.233 592.939 351.346 591.119 350.263 589.065C348.925 586.527 346.797 584.478 344.789 582.469ZM274.42 582.005C269.191 581.007 264.152 581.007 258.923 582.005C256.647 582.44 257.611 585.916 259.882 585.483C264.455 584.609 268.888 584.609 273.461 585.483C275.729 585.916 276.7 582.441 274.42 582.005ZM203.807 545.657C201.557 545.087 200.597 548.564 202.849 549.134L203.957 549.412C207.726 550.343 211.315 551.037 215.23 550.173C217.465 549.679 216.561 546.286 214.36 546.678L214.271 546.695C210.649 547.495 207.312 546.545 203.807 545.657ZM329.213 522.235C327.548 520.616 324.996 523.163 326.664 524.784C328.745 526.808 331.197 528.346 334.169 528.428C336.455 528.492 336.488 524.993 334.271 524.827L334.169 524.822C332.177 524.766 330.59 523.574 329.213 522.235ZM117.011 512.604C119.087 511.566 117.263 508.455 115.191 509.49L102.73 515.721V515.721C100.654 516.759 102.478 519.871 104.55 518.835L117.011 512.604V512.604ZM363.245 513.398C360.924 513.333 360.925 516.939 363.245 517.004C365.426 517.065 367.661 517.891 369.604 518.835C371.682 519.845 373.513 516.736 371.424 515.721C368.883 514.488 366.095 513.478 363.245 513.398ZM246.814 495.988C248.722 494.691 246.92 491.565 244.994 492.874C242.365 494.66 239.984 496.771 237.397 498.611L236.686 499.105C234.778 500.402 236.58 503.527 238.506 502.219C241.373 500.27 243.947 497.935 246.814 495.988ZM380.898 469.78C378.578 469.779 378.574 473.385 380.898 473.386L381.338 473.384C383.253 473.374 385.271 473.321 387.052 474.086L387.257 474.178C389.344 475.162 391.177 472.054 389.077 471.065C386.466 469.835 383.736 469.781 380.898 469.78ZM180.659 467.204L180.962 467.09C183.129 466.312 182.195 462.826 180.003 463.614C176.7 464.8 174.131 467.042 171.266 468.987C169.356 470.284 171.158 473.41 173.085 472.102C175.554 470.425 177.851 468.302 180.659 467.204V467.204ZM315.901 457.823L316.387 457.562C318.451 456.5 316.629 453.387 314.568 454.448C312.931 455.291 311.467 456.411 309.861 457.304L309.375 457.564C307.311 458.626 309.133 461.738 311.195 460.678C312.831 459.835 314.296 458.715 315.901 457.823V457.823ZM261.049 422.895L260.677 422.536C259.018 420.911 256.466 423.459 258.128 425.086C262.277 429.147 267.182 432.231 272.131 435.212L273.031 435.753C275.025 436.95 276.84 433.833 274.851 432.639L273.53 431.845C269.13 429.192 264.782 426.453 261.049 422.895V422.895ZM161.271 419.528C162.669 417.713 159.629 415.936 158.208 417.646L158.158 417.708C156.702 419.598 154.975 421.308 153.17 422.87L152.831 423.16C151.757 424.075 149.801 426.033 148.292 426.162C145.997 426.357 145.976 429.965 148.292 429.768C150.627 429.569 152.637 427.925 154.401 426.517C156.97 424.467 159.267 422.13 161.271 419.528ZM353.097 406.392C354.772 404.818 352.297 402.313 350.607 403.789L350.547 403.843C347.416 406.784 342.913 407.574 338.882 408.571C336.631 409.129 337.584 412.607 339.841 412.049L341.677 411.595C345.796 410.567 349.929 409.37 353.097 406.392ZM281.689 383.647C279.439 383.075 278.479 386.552 280.731 387.124C284.555 388.096 288.177 389.352 291.722 391.096C293.797 392.117 295.626 389.009 293.542 387.983C289.728 386.106 285.806 384.693 281.689 383.647ZM318.522 307.631C318.468 307.469 318.639 307.284 318.806 307.342C322.852 308.851 320.701 314.151 319.444 317.324L319.216 317.904C317.246 322.988 314.493 327.938 311.491 332.49C308.35 337.255 304.861 341.816 301.084 346.098C299.446 347.957 297.746 349.763 295.99 351.515L295.328 352.17C293.553 353.914 291.264 356.979 288.509 356.641C285.544 356.285 283.89 353.117 286.053 350.71C287.581 349.006 289.7 347.649 291.407 346.098C293.102 344.565 294.743 342.984 296.343 341.356C299.615 338.016 302.716 334.487 305.551 330.768C308.293 327.172 310.917 323.477 313.302 319.634L313.776 318.864C315.592 315.876 319.784 311.481 318.522 307.631ZM175.162 345.403C173.241 344.09 171.435 347.214 173.342 348.517C176.848 350.913 179.932 353.816 183.726 355.786C185.758 356.842 187.565 353.817 185.618 352.712L185.546 352.673C181.754 350.703 178.666 347.798 175.162 345.403Z" fill="black"/>
<path fill-rule="evenodd" clip-rule="evenodd" d="M351.194 194.754C349.525 181.402 344.281 167.226 338.765 154.779C326.364 128.461 297.972 124.838 272.52 119.412C247.404 115.747 220.808 112.438 196.071 119.75C182.164 123.164 176.732 139.763 178.927 152.863C180.18 161.025 183.887 168.751 187.048 176.316C193.332 191.851 197.318 208.483 197.325 225.304C196.894 236.296 195.346 248.842 207.95 253.498C219.943 259.475 220.957 275.679 235.974 284.872C242.047 297.2 258.588 298.285 270.494 301.144C278.019 302.587 285.628 303.65 293.259 304.336C315.354 307.173 333.029 300.757 344.595 281.031C352.335 269.026 358.098 255.165 356.674 240.616C355.256 225.295 352.894 210.054 351.194 194.754Z" fill="#D08B5B"/>
<path fill-rule="evenodd" clip-rule="evenodd" d="M272.711 87.4273C273.972 85.9948 275.915 86.4861 277.094 87.6189C277.862 87.8456 278.606 88.1827 279.309 88.629C280.896 88.4248 282.561 88.4248 284.118 88.482C284.496 88.2697 284.9 88.0809 285.341 87.9186C288.489 86.7651 291.277 87.3511 293.577 88.8954C294.685 87.8451 296.082 87.1861 297.869 87.2858C299.463 87.375 300.599 88.1269 301.573 89.1172C302.544 87.714 304.113 86.7128 306.069 86.5736C308.802 86.3788 311.43 87.4773 313.607 89.178C314.876 87.7194 316.606 86.881 318.533 86.8729C319.802 86.6421 321.14 86.7331 322.35 87.0991C324.105 87.6306 325.647 88.6263 326.875 89.9186C328.817 88.0543 331.195 86.7128 333.937 86.9085C337.486 87.1654 340.427 89.7802 341.794 92.9986C344.196 93.9627 346.413 95.338 348.266 97.2987C348.365 97.4019 348.46 97.5101 348.558 97.6187C349.557 97.9879 350.497 98.5112 351.324 99.2004C353.946 101.387 354.531 104.551 353.663 107.652C353.785 108.148 353.888 108.653 353.982 109.158C356.438 109.532 358.669 110.952 359.937 113.264C361.673 116.438 361.331 120.62 359.451 123.65C358.643 124.953 357.617 126.051 356.465 127.011C357.768 129.977 357.143 133.516 355.042 135.915C354.53 136.742 353.902 137.489 353.195 138.164C353.975 141.231 352.587 144.394 349.817 146.033L349.58 146.627C349.54 146.726 349.5 146.824 349.458 146.922C349.427 147.048 349.39 147.17 349.352 147.293C349.286 148.381 348.929 149.449 348.219 150.455C346.766 152.517 344.965 153.862 344.01 156.269L343.914 156.521C343.504 157.66 342.178 158.464 341.048 158.113C347.321 171.023 350.609 185.387 352.867 199.465C353.993 206.489 354.862 213.536 355.566 220.611L356.257 227.655C356.865 233.918 357.406 240.2 357.41 246.483C357.419 260.696 353.362 274.366 344.655 285.676C336.42 296.368 324.766 304.116 311.602 307.168C298.011 310.314 282.067 309.074 269.879 301.871C266.285 299.753 269.433 294.659 273.09 296.364C280.012 299.591 287.046 301.989 294.718 302.525C302.198 303.052 309.695 302.115 316.788 299.663C328.522 295.602 338.506 287.096 344.924 276.503C348.086 271.283 350.375 265.618 351.594 259.631C353.111 252.17 352.883 244.458 352.325 236.902L352.287 236.387C351.185 221.827 349.732 207.178 347.385 192.763C345.309 180.016 342.118 167.528 337.976 155.316C336.353 153.884 334.538 152.7 332.595 151.8C318.371 151.204 304.121 151.378 289.915 152.362C277.8 153.206 265.743 154.635 253.777 156.716L252.496 156.942C249.847 157.415 246.905 157.685 244.409 158.754C242.268 159.674 241.4 161.44 240.86 163.613C239.502 169.107 239.295 175.121 239.066 180.755C238.841 186.263 239.349 191.817 238.909 197.306C238.535 201.899 237.361 206.601 233.966 209.923C232.189 211.663 230.003 212.614 227.953 213.934C226.626 214.787 226.064 215.665 226.235 217.243C226.603 220.696 229.378 225.045 226.261 228.002C225.713 228.521 224.764 228.588 224.224 228.002C222.938 226.601 221.161 225.532 219.637 224.401C218.998 223.932 219.529 223.022 220.253 223.346C221.206 223.775 222.178 224.28 223.172 224.721C220.977 222.909 217.856 222.021 215.256 221.493C213.947 221.232 212.571 221.155 211.208 221.278C210.201 221.759 209.171 222.206 208.141 222.643C206.832 223.193 205.51 223.693 204.179 224.167C199.56 227.939 197.356 234.074 198.318 240.074C198.845 243.386 200.369 246.988 203.243 248.922C206.648 251.212 211.208 250.229 214.887 251.929C218.332 253.519 220.428 256.734 221.998 260.06L222.652 261.445C224.109 264.511 225.607 267.496 227.597 270.287C229.9 273.519 232.72 276.422 235.796 278.915C237.289 280.121 238.879 281.207 240.523 282.195L240.973 282.462C242.637 283.44 243.829 284.373 243.941 286.442C243.977 287.163 243.523 287.821 242.938 288.195C240.42 289.796 237.915 287.794 235.819 286.397C233.556 284.891 231.393 283.197 229.392 281.349C225.587 277.842 222.295 273.677 219.763 269.156C217.833 265.712 216.736 260.867 213.686 258.198C211.824 256.571 209.193 256.558 206.868 256.26C204.705 255.981 202.658 255.53 200.733 254.462C192.903 250.103 190.691 239.551 192.548 231.397C192.863 230.022 193.304 228.683 193.848 227.394C190.933 227.881 187.659 224.861 188.842 221.813C188.932 221.584 189.035 221.368 189.134 221.146C187.214 219.88 185.698 217.96 184.979 215.449C184.61 214.151 184.556 212.839 184.749 211.572C183.818 210.946 183.049 210.085 182.554 209.026C181.007 208.309 179.636 207.237 178.817 205.704C177.684 203.59 177.828 201.642 178.691 199.889C178.57 199.669 178.453 199.443 178.34 199.213C175.17 197.198 172.957 193.727 173.209 189.878C173.29 188.602 173.604 187.453 174.09 186.417C174.05 186.286 174.009 186.15 173.973 186.019C171.32 184.667 169.125 182.445 168.342 179.479C167.56 176.495 168.482 173.52 170.326 171.23C167.627 169.252 166.004 166.489 166.988 162.31C167.389 160.611 168.194 159.065 169.282 157.762C169.278 157.722 169.269 157.681 169.26 157.64L169.007 157.444C165.676 154.809 163.761 151.452 165.806 147.323C166.723 145.466 168.032 144.172 169.57 143.32L169.647 143.076V143.076C168.545 140.71 168.171 138.082 168.931 135.319C169.552 133.043 171.023 131.231 172.903 130.028C172.777 129.009 172.795 127.923 172.997 126.746C173.335 124.758 174.319 123.023 175.759 121.792C175.813 121.531 175.88 121.274 175.957 121.017C176.442 119.444 177.351 117.736 178.403 116.469C179.271 115.418 180.243 115.035 181.43 114.995C181.358 114.026 181.408 113.043 181.605 112.047C182.213 108.973 184.165 106.083 187.056 104.772C188.244 104.235 189.494 104.078 190.699 104.208C191.725 102.045 193.726 100.477 196.186 100.138C197.144 100.003 198.035 100.012 198.854 100.134C199.317 99.9171 199.798 99.7238 200.302 99.5475C200.635 99.4303 200.972 99.3221 201.309 99.2144C202.447 97.799 203.945 96.6672 205.694 95.987C207.714 95.1982 209.769 95.2789 211.591 95.9415L212.171 95.8198V95.8198C213.079 94.2422 214.527 93.0206 216.754 92.4662C219.281 91.8397 221.876 92.7141 223.864 94.3057C223.873 94.3057 223.882 94.3057 223.896 94.3008C224.935 91.9704 226.711 90.3477 229.693 90.4604C231.551 90.5325 233.228 91.457 234.523 92.7732C235.243 92.6826 235.963 92.6014 236.687 92.5208C237.451 91.6233 238.301 90.7854 239.241 90.0326C240.78 88.7971 242.781 88.8967 243.914 90.6362C244.162 91.0148 244.391 91.3979 244.62 91.7811L245.659 91.709V91.709C246.883 90.0547 248.551 88.9369 250.836 88.8472C252.932 88.7611 254.425 89.7892 255.563 91.2267C256.489 91.2041 257.42 91.1865 258.351 91.1726C259.435 89.915 260.713 88.8061 262.17 87.8866C263.285 87.1834 264.931 87.4228 265.835 88.3603C266.446 88.9977 267.015 89.663 267.543 90.3518C268.905 88.821 270.745 87.8127 272.711 87.4273ZM206.517 230.563C208.618 229.364 211.442 230.662 213.475 231.681C215.953 232.92 218.413 234.791 219.929 237.135C221.993 240.326 217.141 242.904 214.968 240.042C213.632 238.28 212.567 236.504 210.947 234.962C209.468 233.547 207.322 232.6 206.472 230.734C206.441 230.671 206.45 230.599 206.517 230.563ZM207.993 153.101L208.033 152.989C208.63 151.351 206.023 150.645 205.431 152.269C204.533 154.731 205.568 157.407 207.994 158.47C208.666 158.764 209.434 158.662 209.84 157.985C210.18 157.414 210.022 156.426 209.356 156.135C207.991 155.537 207.533 154.481 207.993 153.101V153.101ZM185.535 148.522C186.84 147.368 184.926 145.461 183.627 146.61C182.415 147.682 181.517 149.138 181.75 150.812C181.988 152.519 183.272 153.724 184.678 154.575C186.167 155.478 187.525 153.14 186.04 152.24L185.873 152.137C185.249 151.749 184.519 151.216 184.414 150.452C184.302 149.641 184.987 149.007 185.535 148.522ZM192.943 128.161L193.035 128.093C194.437 127.09 193.09 124.744 191.673 125.757C190.373 126.687 189.33 127.895 189.221 129.561C189.114 131.18 189.936 132.584 191.011 133.723C192.207 134.99 194.113 133.075 192.92 131.811C191.756 130.579 191.529 129.234 192.943 128.161V128.161Z" fill="black"/>
<path fill-rule="evenodd" clip-rule="evenodd" d="M285.561 190.591L286.407 190.443L286.841 190.369C289.375 189.95 292.38 189.67 294.131 191.659C295.113 192.776 295.451 194.85 294.131 195.918C291.809 197.798 289.242 197.069 286.459 197.228C284.166 197.36 281.962 197.74 279.753 198.371C274.907 199.756 270.958 202.285 266.82 205.062C266.276 205.426 265.722 204.731 265.981 204.223C268.37 199.543 273.001 195.699 277.638 193.355C280.114 192.104 282.822 191.067 285.561 190.591ZM287.2 210.5C287.999 210.5 288.763 210.772 289.459 211.274C290.144 211.768 290.765 212.489 291.281 213.388C292.259 215.09 292.87 217.44 292.87 220.038C292.87 222.636 292.259 224.986 291.281 226.688C290.765 227.588 290.144 228.309 289.459 228.803C288.763 229.305 287.999 229.576 287.2 229.576C286.4 229.576 285.636 229.305 284.94 228.803C284.255 228.309 283.635 227.588 283.118 226.688C282.14 224.986 281.529 222.636 281.529 220.038C281.529 217.44 282.14 215.09 283.118 213.388C283.635 212.489 284.255 211.768 284.94 211.274C285.636 210.772 286.4 210.5 287.2 210.5ZM337.787 210.5C338.586 210.5 339.35 210.772 340.046 211.274C340.731 211.768 341.352 212.489 341.868 213.388C342.846 215.09 343.457 217.44 343.457 220.038C343.457 222.636 342.846 224.986 341.868 226.688C341.352 227.588 340.731 228.309 340.046 228.803C339.35 229.305 338.586 229.576 337.787 229.576C336.987 229.576 336.223 229.305 335.527 228.803C334.842 228.309 334.222 227.588 333.705 226.688C332.727 224.986 332.116 222.636 332.116 220.038C332.116 217.44 332.727 215.09 333.705 213.388C334.222 212.489 334.842 211.768 335.527 211.274C336.223 210.772 336.987 210.5 337.787 210.5ZM330.904 188.494L331.552 188.627L331.981 188.718C338.967 190.221 347.824 193.183 351.094 199.967C351.221 200.946 351.086 201.155 350.977 201.292L350.941 201.338C350.851 201.455 350.779 201.616 350.355 201.75C350.237 201.722 350.118 201.692 349.998 201.66C348.468 201.259 347.258 200.707 346.086 200.134L344.815 199.508C343.341 198.785 341.854 198.089 340.278 197.574C336.915 196.477 333.456 195.704 329.943 195.292C329.181 195.202 328.448 194.945 327.87 194.505C327.321 194.087 326.901 193.508 326.71 192.739C326.462 191.743 326.533 190.989 327.067 190.091C327.469 189.416 328.044 188.949 328.704 188.68C329.377 188.406 330.143 188.342 330.904 188.494Z" fill="black"/>
<path fill-rule="evenodd" clip-rule="evenodd" d="M276.158 276.397C279.807 267.847 287.771 261.564 296.94 259.266C303.674 257.584 310.741 257.637 317.605 258.305C321.201 258.653 325.059 258.937 328.448 260.273C331.342 261.414 333.701 263.571 335.474 266.103C337.585 269.103 339.021 272.537 340.029 276.057C340.172 276.557 340.307 277.061 340.432 277.568C339.994 280.223 339.063 282.484 336.604 284.153C334.204 285.784 331.34 286.45 328.486 286.687C328.206 286.553 327.935 286.415 327.687 286.273C323.239 283.726 320.108 277.708 314.493 278.522C309.483 279.25 306.184 285.555 303.205 289.252C293.64 290.367 284.082 287.492 276.3 282.023C275.905 280.15 275.882 278.262 276.158 276.397M346.933 269.911C346.168 267.764 345.204 265.684 344.062 263.725C340.286 257.245 334.488 252.083 327.606 249.132C311.326 242.16 290.261 247.075 277.113 258.508C272.622 262.417 268.081 268.161 266.708 274.339C266.298 274.42 265.91 274.634 265.592 274.934C256.093 268.953 246.311 263.198 238.656 254.908C233.097 248.884 229.231 241.755 226.863 233.921C226.67 233.276 225.63 233.37 225.661 234.084C225.67 234.251 225.679 234.417 225.688 234.584C225.589 234.277 225.121 234.435 225.085 234.733C223.812 244.249 222.218 254.339 223.686 263.905C224.563 269.613 227.156 273.792 230.622 278.304C234.335 283.141 238.539 287.64 242.838 291.954C245.565 294.693 248.414 297.851 251.754 299.859C255.639 302.192 260.045 303.966 264.191 305.766C268.408 307.602 272.689 309.299 277.05 310.77C285.769 313.721 294.78 315.761 303.948 316.654C311.29 317.367 319.68 318.144 326.715 315.382C332.107 313.265 336.46 309.439 339.912 304.836C343.67 299.823 346.641 294.113 348.284 288.091C349.991 281.836 347.293 270.92 346.933 269.911" fill="black"/>
<path fill-rule="evenodd" clip-rule="evenodd" d="M355.271 239.509C354.421 228.744 340.848 224.184 334.088 222.831C311.576 217.539 292.424 231.118 265.58 231.396C262.871 231.438 255.124 230.981 251.521 230.029C233.241 225.875 214.979 221.457 197.043 216.008C194.406 216.626 193.626 220.068 195.436 222.029C212.616 228.122 238.897 233.578 252.776 234.199C252.51 252.13 243.045 270.16 229.975 280.077C250.763 303.067 299.244 310.628 327.777 298.56C341.812 294.347 356.623 256.638 355.271 239.509" fill="white"/>
<path fill-rule="evenodd" clip-rule="evenodd" d="M195.593 216.551C194.82 216.521 195.271 214.267 197.012 214.588C219.477 219.843 247.465 229.851 270.556 229.778C287.543 229.222 302.764 219.76 319.844 219.703C331.326 219.923 345.966 221.556 354.001 230.77C364.6 264.386 340.734 310.109 303.182 310.373L296.075 309.859C271.848 308.074 245.307 305.218 229.691 284.662L229.569 284.766V284.766C227.234 283.199 227.364 279.816 229.349 278.075L229.408 278.168V278.168C229.446 278.107 229.488 278.048 229.528 277.988L229.503 277.909V277.909C230.266 277.108 231.134 276.358 231.924 275.687L231.928 275.7V275.7C243.653 265.93 251.309 251.157 251.75 235.859C247.868 236.925 182.649 223.403 194.291 220.103C202.618 222.918 210.994 225.461 219.54 227.485C219.683 227.404 219.889 227.425 219.967 227.585C230.421 230.157 241.086 231.628 251.764 232.818C251.753 232.308 251.733 231.798 251.707 231.287C232.72 227.59 214.106 222.102 195.593 216.551ZM349.339 230.194C310.395 210.518 291.063 239.587 253.398 231.583C257.339 249.165 247.608 268.12 234.392 279.607C253.595 296.229 261.906 298.746 287.096 301.444L290.387 301.836C295.334 302.422 300.329 302.968 305.292 303.054C331.036 301.18 350.489 274.393 353.4 250.122L353.416 249.452C353.546 243.292 353.263 236.773 350.535 231.13C350.032 230.955 349.595 230.64 349.339 230.194ZM295.12 245.639C296.466 245.336 297.839 246.805 297.005 248.091C294.309 252.249 287.716 253.86 283.106 254.514C277.766 255.27 272.59 254.674 267.518 252.852C267.246 252.754 267.266 252.274 267.591 252.313C272.407 252.886 277.372 252.466 282.052 251.192C286.797 250.267 290.628 247.111 295.12 245.639ZM331.713 242.644C331.69 241.854 335.574 244.14 336.189 244.448C340.933 247.297 346.424 247.505 351.656 248.624C352.876 249.092 352.874 250.642 351.656 251.11C345.126 252.847 335.215 248.289 331.713 242.644Z" fill="black"/>
</svg>
