<svg width="100%" height="100%" viewBox="0 0 100 135" fill="none" xmlns="http://www.w3.org/2000/svg">
<path fill-rule="evenodd" clip-rule="evenodd" d="M48.9856 51.6775C50.1686 51.35 51.5286 51.3881 52.7423 51.4719C53.9749 51.557 55.2975 51.703 56.4541 52.1632C57.4596 52.5633 58.3075 53.2362 58.8241 54.2004C59.2488 54.993 59.448 55.8623 59.5729 56.7452C59.6239 57.1065 59.6667 57.4687 59.7073 57.8312L59.7909 58.5855C59.8236 58.8739 59.8522 59.0901 59.9096 59.4118C60.0683 60.3018 60.2893 61.0454 60.7828 61.6929C61.9779 63.2605 63.9293 63.7852 65.7038 64.4543C66.8394 64.8824 67.7386 65.6525 67.9881 66.8901C68.2288 68.0839 77.3805 78.1 78.2789 78.9444L78.3036 78.9672C79.0005 79.5947 78.9185 80.7743 79.016 81.6356C79.1205 82.559 79.22 83.4831 79.3144 84.4075C79.5061 86.2856 79.677 88.1657 79.8269 90.0474C80.413 97.4068 80.679 104.792 80.6224 112.174L80.6189 112.592C80.6102 113.529 80.6171 114.47 80.5752 115.406C80.5347 116.305 80.2626 117.206 79.4291 117.676C78.657 118.111 77.6806 118.073 76.8176 118.116L76.766 118.119C75.84 118.17 74.9137 118.211 73.9869 118.245C70.2206 118.385 66.4508 118.4 62.6822 118.383C55.206 118.348 47.7222 118.184 40.2531 118.602C38.3491 118.709 32.2792 118.061 30.3812 118.245C28.5671 118.422 30.1237 119.312 29.003 119.253C25.3174 119.06 21.8215 118.238 18.2903 117.247C17.8492 117.124 17.5119 116.695 17.5174 116.233C17.583 111.15 17.7265 106.068 17.9507 100.989C18.1504 96.4653 18.4136 91.9443 18.7401 87.4278C18.8821 85.4646 19.036 83.5023 19.2018 81.541L19.2736 80.7005C19.3672 79.6165 19.4211 78.5127 19.6342 77.4439C19.845 76.3867 20.3233 75.47 21.0168 74.6509C21.6391 73.916 28.6844 68.1634 30.3812 67.0742C32.0053 66.0317 33.7108 65.1522 35.3781 64.186C36.0718 63.784 36.738 63.9287 37.3306 63.4352C37.643 63.1752 42.1762 61.4225 43.3992 60.8442L43.4353 60.827C44.3714 60.3779 45.2328 59.8909 45.8796 59.1142C46.0965 58.8539 46.5217 57.2136 46.5225 56.6896C46.524 55.7534 46.4531 54.7672 46.7354 53.8603C47.0731 52.7759 47.887 51.9816 48.9856 51.6775ZM50.9914 75.8166L43.7478 89.9246H48.458L45.0817 97.7632H52.4963L49.8661 108.743L64.9073 89.9246H59.263L64.9073 82.5155H60.9925L64.9073 76.241L50.9914 75.8166Z" fill="#D08B5B"/>
<path fill-rule="evenodd" clip-rule="evenodd" d="M67.7218 74.9891L64.9073 107.044L41.4648 107.625V73.4171L67.7218 74.9891Z" fill="#FDEA6B"/>
<path fill-rule="evenodd" clip-rule="evenodd" d="M75.324 83.7499C75.3073 83.7665 75.2897 83.7834 75.273 83.801C75.2923 83.7737 75.309 83.7454 75.324 83.7173V83.7499ZM61.2468 79.6402C60.5962 80.4714 59.9079 82.1626 59.2758 83.0086C59.1851 83.13 59.0962 83.2516 59.0082 83.3739C58.7459 83.741 59.0962 84.3027 59.5276 84.279C60.3894 84.2331 61.2503 84.169 62.1112 84.1038C60.3427 86.0749 58.8744 88.5233 57.2503 90.6114C57.1402 90.7514 57.032 90.8924 56.9237 91.0331C56.5126 91.5693 56.9246 91.8124 57.4862 91.6679C57.6024 91.638 57.7186 91.6081 57.8348 91.5791C58.6517 91.3695 59.4677 91.16 60.2846 90.9513C60.7362 90.835 61.1904 90.6916 61.6482 90.6027C61.8365 90.5666 62.017 90.5966 62.1948 90.6062C62.1094 90.7364 61.9897 90.9715 61.9659 91.0076C61.6992 91.4231 61.4307 91.8369 61.1605 92.2489C60.6341 93.0502 60.105 93.8503 59.5566 94.6365C57.4175 97.702 55.1103 100.628 52.8233 103.582C52.2476 104.325 51.664 105.06 51.0707 105.788C51.0734 105.784 51.0751 105.779 51.0778 105.775C51.6121 104.734 52.1464 103.695 52.6807 102.654C53.6966 100.677 54.7028 98.6942 55.7292 96.7222C55.782 96.6192 55.8357 96.5171 55.8894 96.4141C56.1024 96.0055 55.7529 95.5812 55.3154 95.6674C53.1811 96.088 51.0675 96.6047 48.98 97.2167C48.8861 97.3168 48.748 97.3461 48.6247 97.3219C48.5408 97.347 48.4565 97.3711 48.3726 97.3966C48.3981 97.3438 48.4244 97.2916 48.45 97.2391C48.3647 97.1649 48.3223 97.0502 48.3778 96.907C49.5789 93.8074 51.2257 90.8151 53.177 88.0746C53.0984 88.0761 53.0201 88.0773 52.9413 88.0796C50.7996 88.1377 48.6984 88.4449 46.6341 89.0285C46.6244 88.8375 46.7397 88.5418 46.8022 88.4009C47.0522 87.8383 47.3392 87.2889 47.6077 86.7352C48.157 85.5977 48.7063 84.4612 49.2556 83.3237C49.7925 82.2127 50.3251 81.0982 50.8304 79.9713C51.0954 79.3805 51.3603 78.7889 51.6244 78.1974C51.8401 77.7157 52.01 77.2307 52.1887 76.7377C52.7133 76.8918 59.4501 76.9252 61.0874 77.0388C61.4888 77.067 61.8911 77.0925 62.2934 77.1145C62.6138 77.133 63.0654 77.2035 63.2864 76.9138L63.37 76.9842C62.6429 77.854 61.9457 78.7476 61.2468 79.6402V79.6402ZM34.9446 63.4802C34.978 63.4652 35.0106 63.4503 35.0432 63.4353C35.0599 63.4591 35.0801 63.4811 35.1013 63.5031C35.1541 63.5568 35.206 63.6148 35.2606 63.6677C35.155 63.606 35.0493 63.5435 34.9446 63.4802V63.4802ZM82.0254 112.956C81.9647 111.674 81.8969 110.391 81.8247 109.108C81.6821 106.601 81.5351 104.094 81.3388 101.59C80.94 96.5162 80.5686 91.4443 79.9709 86.3892C79.72 84.2701 79.3696 82.167 79.0184 80.0628C79.0633 80.0223 79.1091 79.9818 79.154 79.9423C79.1055 80.518 79.8872 80.8825 80.2746 80.3084C80.3036 80.2654 80.3318 80.2223 80.3599 80.1774C80.6953 79.635 81.4682 76.9745 81.4145 76.7491C81.3177 76.3432 81.0483 75.9824 80.8379 75.625C80.654 75.3123 80.4682 74.9998 80.2798 74.69C79.904 74.0692 79.5166 73.4548 79.1108 72.8535C78.2701 71.6087 77.3511 70.4132 76.2684 69.3682C75.1478 68.2853 73.8617 67.3951 72.5334 66.5879C71.8951 66.2005 71.2367 65.8493 70.5659 65.5217C69.904 65.1995 69.1795 64.843 68.4664 64.6598C68.426 64.6493 68.3846 64.7057 68.4216 64.7356C68.6108 64.8853 68.8089 65.0261 69.0105 65.1616C68.4647 64.9725 67.9022 64.8359 67.3353 64.7875C66.2376 64.4019 65.1267 64.0489 64.0342 63.6465C62.9603 63.2504 61.9022 62.805 61.1883 61.8665C60.5782 61.0644 60.1927 60.0829 59.896 59.1268C59.5703 58.073 59.4409 56.9777 59.1399 55.9222C59.1161 55.8368 58.9761 55.8271 58.9576 55.9222C58.7429 57.0297 58.7525 58.2746 58.8749 59.3926C59.0034 60.5652 59.3335 61.716 60.0518 62.6694C60.8863 63.7778 62.0184 64.3948 63.2922 64.887C64.3194 65.285 65.3599 65.6899 66.4119 66.0455C66.2746 66.1354 66.1355 66.2251 65.992 66.3105C65.4216 66.6496 64.8282 66.9507 64.2217 67.2209C63.1143 67.7147 61.948 68.0846 60.7745 68.3848C58.5906 68.9411 56.3511 69.2238 54.0994 69.2607C49.5941 69.3356 45.0386 68.3918 40.918 66.5695C39.7578 66.0562 38.6249 65.4918 37.5034 64.8994C37.1531 64.7144 36.801 64.5278 36.4506 64.3359C36.4796 64.3342 36.5096 64.3315 36.5386 64.3288C37.3212 64.255 38.0941 64.1044 38.8511 63.8914C40.4013 63.4538 41.8872 62.7715 43.3467 62.0997C44.5844 61.5301 45.8591 60.8813 46.6152 59.6946C47.0193 59.0599 47.205 58.3151 47.3555 57.5861C47.5237 56.7744 47.7217 55.9591 47.8441 55.1396C47.8872 54.8526 47.823 54.4643 47.5149 54.3288C47.3916 54.275 47.2904 54.231 47.1522 54.231C46.8467 54.231 46.5333 54.4529 46.4603 54.7575C46.2798 55.5173 46.1707 56.2982 46.0289 57.0658C45.9066 57.7296 45.7948 58.4225 45.4365 59.0061C44.8106 60.0283 43.5835 60.5511 42.5466 61.0486C41.2323 61.679 39.9171 62.2934 38.5518 62.805C37.9506 63.0303 37.3388 63.2346 36.7182 63.4018C36.7429 63.2496 36.7217 63.0893 36.6319 62.9686C36.4823 62.7697 36.3124 62.6376 36.1196 62.4854C35.9101 62.3198 35.6284 62.2336 35.3811 62.3067C35.3811 62.3075 35.3802 62.3067 35.3802 62.3067C35.2798 62.2847 35.1689 62.2934 35.0545 62.3453C34.7006 62.5074 34.3476 62.6711 33.9946 62.8376C28.9163 65.2269 23.9823 68.0334 20.2455 72.3076C19.7068 72.9239 19.2024 73.5719 18.7296 74.24C18.2701 74.889 17.7015 75.5933 17.5747 76.3978C17.5642 76.4648 17.6619 76.4956 17.6786 76.4269C17.7085 76.3027 17.749 76.1813 17.7992 76.0633C17.6944 76.4296 17.7006 76.8187 17.8485 77.2016C18.0237 77.6524 18.345 77.9509 18.7508 78.0697C18.3432 79.856 18.0694 81.6661 17.8494 83.4963C17.5333 86.133 17.3089 88.7759 17.1399 91.4258C16.8018 96.7142 16.6513 102.029 16.7605 107.327C16.7913 108.825 16.8423 110.322 16.9198 111.819C16.9585 112.567 17.0008 113.314 17.0492 114.063C17.0967 114.799 17.058 115.61 17.6997 115.998C17.7076 116.027 17.7164 116.055 17.7244 116.084C17.8802 116.627 18.5747 116.453 18.6399 115.96C18.6407 115.955 18.6416 115.949 18.6425 115.943C19.1671 115.543 19.0879 114.875 19.0492 114.235C19.0078 113.544 18.9638 112.854 18.9268 112.164C18.8564 110.84 18.7965 109.516 18.7428 108.191C18.6381 105.571 18.5791 102.947 18.5598 100.325C18.521 95.0811 18.8238 89.8446 19.183 84.6153C19.3335 82.4275 19.5096 80.2495 19.5633 78.0626C19.8441 77.9165 19.9303 77.501 19.7895 77.2211C23.1152 79.4906 26.2015 82.2039 28.6795 85.3575C29.0932 85.8838 29.4884 86.4261 29.867 86.9782C29.9902 87.1577 30.1073 87.3445 30.2252 87.531C30.1108 88.0513 30.0219 88.5804 29.9057 89.0796C29.6663 90.1106 29.565 91.1801 29.4277 92.2279C29.1487 94.3557 28.9524 96.5029 28.786 98.6422C28.4585 102.867 28.2156 107.091 28.139 111.328C28.0967 113.725 28.0404 116.136 28.146 118.532C28.0677 119 28.4893 119.458 28.9304 119.517C29.3168 119.569 29.6777 119.368 29.8467 119.045C31.051 119.194 32.2869 119.263 33.4832 119.272C35.095 119.283 36.7068 119.282 38.3186 119.247C41.543 119.177 44.7666 119.094 47.9902 118.998C54.4374 118.808 60.8846 118.617 67.3326 118.426C69.1205 118.373 70.9083 118.32 72.6962 118.267C73.5025 118.244 74.5078 118.476 75.1434 117.854C75.2525 117.746 75.3371 117.62 75.3969 117.486C75.5871 117.533 75.8203 117.487 75.9453 117.34C76.1786 117.064 76.3503 116.809 76.3415 116.427C76.3335 116.069 76.2349 115.692 76.1839 115.339C76.087 114.674 75.9937 114.009 75.9048 113.343C75.7297 112.028 75.5659 110.711 75.4154 109.393C75.1073 106.699 74.8274 103.997 74.6091 101.294C74.176 95.9474 74.0536 90.5728 74.0686 85.2096C74.0703 84.7298 74.073 84.2499 74.0756 83.7701C74.0959 83.7957 74.1179 83.8194 74.1416 83.8397C74.161 83.8563 74.1804 83.8731 74.1997 83.8908C74.4251 84.0888 74.8001 84.191 75.0703 84.0034C75.4022 83.7885 75.6311 83.4663 75.8899 83.175C76.1619 82.8695 76.4418 82.5719 76.7244 82.2762C77.2719 81.7039 77.8379 81.1554 78.4154 80.613C78.4621 80.57 78.5087 80.526 78.5554 80.4836C78.5589 82.1907 78.5571 83.8969 78.6029 85.6031C78.6716 88.1377 78.8089 90.6696 78.9348 93.2007C79.1848 98.2126 79.4436 103.223 79.6927 108.234C79.7622 109.633 79.8282 111.033 79.8978 112.431C79.933 113.131 79.9673 113.831 80.0008 114.531C80.0184 114.91 80.036 115.289 80.0536 115.668C80.073 116.074 80.0474 116.509 80.1848 116.896C80.4973 117.78 81.8476 117.905 82.1073 116.896C82.2702 116.263 82.1451 115.53 82.1161 114.881C82.0862 114.24 82.0562 113.598 82.0254 112.956V112.956Z" fill="black"/>
<path fill-rule="evenodd" clip-rule="evenodd" d="M70.6858 39.6214C70.3529 34.1453 68.5799 27.9369 63.3617 25.2482C51.8579 20.6212 36.7329 32.2734 35.9321 44.1771C35.6529 48.2518 37.9103 52.7043 42.0355 53.8371C42.9526 55.0549 44.3397 55.7987 45.7087 56.4442C62.0146 64.9228 72.5476 58.0306 70.6858 39.6214V39.6214Z" fill="#D08B5B"/>
<path fill-rule="evenodd" clip-rule="evenodd" d="M74.4006 36.2149C73.8243 34.6109 73.2156 33.0192 72.5752 31.4398C71.9515 29.9027 71.3882 28.3323 70.6137 26.868C65.9879 18.1224 57.5761 18.1224 53.2279 19.2651C50.973 18.2915 46.7495 18.5661 44.4015 19.4447C40.6004 20.8672 35.9668 26.4626 34.3825 28.9766C30.8847 34.5273 28.7018 41.9151 31.0253 48.3291C31.3289 49.1674 31.7162 49.9438 32.1523 50.692C31.8776 51.0651 31.5615 51.4185 31.2112 51.7657C30.1705 52.7977 29.1297 53.7957 28.2307 54.9596C27.3372 56.1163 26.5965 57.3464 26.0451 58.7026C25.0054 61.2603 24.9554 64.1563 26.3299 66.5968C27.5258 68.7203 29.6443 70.3015 32.0311 70.4523C32.1536 70.4694 32.2763 70.4851 32.3996 70.4975C32.7158 71.0195 33.1014 71.5002 33.5415 71.9193C34.8899 73.2046 38.1041 73.864 39.9373 73.9063C40.0313 73.982 40.1262 74.0577 40.2211 74.1325C41.3428 75.0173 42.5199 75.91 43.8077 76.5395C44.6799 76.9664 45.8237 77.323 46.7337 77.0149C47.1466 77.2913 47.8238 77.2332 48.2332 77.0069C48.906 76.6354 49.4533 75.9663 49.7862 75.2814C50.5935 73.6184 50.3994 71.7987 50.1921 70.0221C49.9637 68.0597 49.7441 66.0965 49.5209 64.1342C49.3461 62.5997 49.1634 61.0396 48.6979 59.5615C48.4572 58.7956 48.1418 58.0596 47.7342 57.3676C47.7448 57.3095 47.743 57.2514 47.7263 57.1968C47.5928 56.7619 47.317 56.5339 46.9902 56.2381C46.948 56.2002 46.9059 56.1615 46.8646 56.1219C46.7012 55.9353 46.5264 55.7618 46.3393 55.6148C46.2673 55.5417 46.1961 55.4678 46.125 55.3938C45.5338 54.7732 44.9751 54.1208 44.4788 53.4218C43.9974 52.7439 43.5626 52.0361 43.1488 51.3151C42.7281 50.5817 42.4496 49.7727 42.0297 49.0446C41.9937 48.9821 41.9024 48.9698 41.8514 49.0217C41.7214 49.1564 41.638 49.3061 41.6538 49.4636L41.5888 49.4733C41.5642 49.2356 41.3454 49.0419 41.0485 49.0939C40.6041 49.1714 40.2386 49.2004 39.8539 49.0525C39.9215 48.6026 39.9839 48.1519 40.0454 47.7003C40.1578 46.8692 40.2623 46.0355 40.3519 45.2018C40.5689 45.2537 40.7841 45.3285 40.995 45.4236C41.2954 45.5583 41.5791 45.7397 41.8215 45.9624C42.0605 46.1825 42.2256 46.4792 42.5173 46.6324C42.8528 46.8076 43.2578 46.5179 43.1594 46.1376C42.96 45.369 41.8312 44.9289 41.1329 44.7836C40.8931 44.7334 40.648 44.7123 40.4029 44.7176C40.4582 44.1823 40.5074 43.647 40.5478 43.1109C40.5672 42.8573 40.5847 42.6038 40.6014 42.3494C41.1443 42.1847 41.7258 42.1354 42.2906 42.2129C42.4769 42.3617 42.6631 42.5087 42.8432 42.6575C43.415 43.1311 43.9842 43.6074 44.5464 44.0925C44.5974 44.1356 44.6474 44.1788 44.6984 44.2228C45.0322 44.5107 45.4486 44.2254 45.3923 43.8178C44.9338 40.4777 46.9753 37.8207 49.3655 35.7624C52.0113 33.4831 56.8215 33.2177 59.968 29.2697C61.4172 29.5653 64.6527 30.4432 65.9879 32.5755C67.8572 35.5635 67.613 38.2407 67.7553 41.6301C67.8976 45.0222 68.2595 48.5604 67.4909 51.9049C66.782 54.9889 64.8626 57.6238 61.8848 58.8352C61.811 58.8651 61.7363 58.8942 61.6616 58.9224C60.1218 59.5043 58.4413 59.6689 56.8215 59.3625C55.0287 59.0227 53.5318 58.2004 52.0403 57.1889C51.9542 57.1317 51.8286 57.2496 51.8936 57.3359C53.8595 59.9471 57.721 60.8196 60.7841 60.1302C60.9273 60.0976 61.0696 60.0624 61.211 60.0237C60.5258 61.9984 60.6638 64.1658 61.5562 66.0886C62.093 67.2454 62.9116 68.2464 63.9087 69.0361C65.0076 69.9059 66.3709 70.6084 67.1334 71.8295C67.8317 72.9484 67.6244 74.2056 66.4289 74.8518C66.1276 75.0155 66.0116 75.5446 66.3103 75.7771C66.4245 75.8651 66.5387 75.9549 66.6555 76.0429C67.3249 76.5492 69.1634 77.4999 69.4612 77.5352C72.1052 77.8495 73.8832 75.9038 75.0225 73.6087C76.3603 70.9148 76.0125 67.6319 74.5385 65.0665C73.3561 63.0082 71.0274 60.9798 71.9533 58.3748C72.2836 57.4442 72.9591 56.651 73.6152 55.9344C74.3637 55.1183 75.1683 54.3541 75.886 53.509C76.5993 52.67 77.2317 51.757 77.5849 50.7041C78.1005 49.1652 77.844 47.5013 77.4566 45.965C76.6265 42.6672 75.5487 39.4133 74.4006 36.2149Z" fill="black"/>
<path fill-rule="evenodd" clip-rule="evenodd" d="M59.6465 53.4321C59.0548 53.1906 58.5268 52.7879 58.1408 52.2735C58.0066 52.0946 57.9718 51.9058 57.9999 51.733C58.0316 51.5388 58.1465 51.3628 58.3032 51.2447C58.4603 51.1263 58.6569 51.0678 58.847 51.0976C59.0122 51.1235 59.1766 51.2139 59.3067 51.4015L59.3339 51.439C59.5634 51.7495 59.8625 52.0043 60.2032 52.1685C60.5316 52.3268 60.8989 52.4006 61.279 52.3577C62.003 52.2759 62.5019 51.8844 63.0323 51.3526C63.098 51.2855 63.1638 51.2163 63.2299 51.1459C63.2716 51.0822 63.3296 51.0412 63.3939 51.0197C63.4653 50.9958 63.5461 50.9971 63.6201 51.023C63.6914 51.0479 63.7552 51.0951 63.798 51.1579C63.8387 51.2176 63.8617 51.2913 63.8542 51.3762C63.8057 51.9272 63.5176 52.419 63.1085 52.8051C62.654 53.234 62.0516 53.5307 61.4845 53.6348C60.8597 53.7494 60.223 53.6673 59.6465 53.4321V53.4321ZM61.7797 44.9313C62.4444 45.3354 63.4572 46.2776 62.7421 47.2794C61.9004 48.1628 60.6885 47.15 60.0913 46.6919C59.5375 46.3369 58.9153 47.2499 59.4291 47.6644C63.7446 50.8598 65.4959 45.0369 62.1159 44.4562C61.7437 44.3922 61.6055 44.8063 61.7797 44.9313ZM54.046 41.2143C54.1194 40.3025 55.5078 40.0955 55.646 40.9977C55.7696 41.8059 55.624 42.5483 55.26 43.2759C54.9122 43.9711 54.0381 43.6467 53.972 43.0138C53.8834 42.1653 54.0003 41.7814 54.046 41.2143ZM64.6155 40.8107C64.809 40.5571 65.0885 40.384 65.4234 40.4818C66.4696 40.7876 66.1612 42.273 65.7938 42.9961C65.5942 43.3887 64.9488 43.4883 64.6572 43.1426C64.1818 42.5788 63.9542 41.4529 64.5585 40.8975C64.5749 40.8688 64.5931 40.8399 64.6155 40.8107ZM55.2454 37.2248L55.4107 37.1959C55.9219 37.1074 56.5576 37.0225 56.9193 37.4335C57.1111 37.6515 57.1771 38.0567 56.9193 38.2653C56.4657 38.6324 55.9643 38.4902 55.4208 38.5212C54.973 38.5469 54.5425 38.6211 54.1111 38.7444C53.1646 39.015 52.3934 39.5088 51.585 40.0511C51.4789 40.1223 51.3707 39.9866 51.4213 39.8874C51.8879 38.9733 52.7922 38.2224 53.698 37.7647C54.1815 37.5204 54.7105 37.3178 55.2454 37.2248ZM63.6616 36.8153L63.7881 36.8412C65.1646 37.129 66.953 37.7038 67.6049 39.056C67.6297 39.2472 67.6035 39.2882 67.5821 39.315L67.575 39.3239C67.5575 39.3467 67.5434 39.3783 67.4606 39.4043C67.4376 39.3988 67.4143 39.393 67.3909 39.3868C67.0921 39.3085 66.8557 39.2006 66.6268 39.0887L66.3786 38.9664C66.0907 38.8253 65.8003 38.6892 65.4925 38.5888C64.8356 38.3745 64.16 38.2236 63.4738 38.143C63.3251 38.1255 63.1819 38.0753 63.0689 37.9893C62.9617 37.9076 62.8798 37.7946 62.8424 37.6443C62.794 37.4498 62.8079 37.3026 62.9123 37.1271C62.9907 36.9954 63.103 36.904 63.2319 36.8516C63.3633 36.7981 63.5129 36.7855 63.6616 36.8153Z" fill="black"/>
</svg>
