<svg width="100%" height="100%" viewBox="0 0 719 604" fill="none" xmlns="http://www.w3.org/2000/svg">
<g clip-path="url(#clip0)">
<path fill-rule="evenodd" clip-rule="evenodd" d="M631.036 310.739C622.265 285.712 601.671 266.125 580.293 248.177C538.677 213.238 516.294 191.635 501.462 140.525C492.74 110.466 483.861 78.6126 456.195 56.8044C436.05 40.9233 401.379 27.5803 374.439 38.9524C332.993 60.113 321.864 103.538 326.043 142.422C331.223 190.617 357.541 220.333 408.101 238.085C436.589 248.082 455.527 261.274 470.991 284.26C483.361 302.64 490.573 325.657 506.118 342.319C529.357 367.227 558.439 378.3 594.286 374.162C560.711 321.32 521.482 267.982 474.166 223.491C469.737 219.018 443.613 201.898 448.882 194.275C454.687 185.882 481.505 217.411 481.315 217.22C495.065 230.722 507.789 245.069 520.284 259.554C520.252 259.568 520.215 259.576 520.18 259.591C533.044 274.454 545.806 289.537 558.325 304.808C563.387 311.268 568.315 317.811 573.032 324.517C579.954 334.358 590.941 362.288 602.269 368.339C604.693 369.633 606.933 370.356 609.028 370.655C616.757 381.48 624.278 392.392 631.43 403.433C650.109 432.269 666.141 462.715 673.499 495.271C675.646 504.773 674.127 540.318 681.709 547.177C695.573 559.724 691.512 535.563 690.683 528.27C683.797 467.878 658.451 416.427 621.65 365.655C632.955 353.025 634.587 320.879 631.036 310.739Z" fill="#F2F2F2"/>
<path fill-rule="evenodd" clip-rule="evenodd" d="M156.207 339.919C170.823 325.188 205.957 322.689 227.445 323.675C254.034 324.895 281.345 330.432 306.642 337.127C348.313 348.154 388.805 368.277 425.505 387.755C429.928 390.102 484.417 418.131 479.593 423.051C474.815 427.924 421.325 394.629 409.403 388.89C383.965 376.641 360.634 362.155 332.593 354.066C303.558 345.689 272.852 342.372 242.32 342.601C238.402 342.631 225.62 340.294 225.344 345.253C225.074 350.103 246.223 347.572 249.953 347.601C265.356 347.722 280.854 348.962 296.039 351.246C324.488 355.523 351.235 364.141 375.601 377.359C368.803 390.881 352.504 397.116 335.406 393.732C320.63 390.806 306.225 383.592 291.755 381.506C281.79 380.069 271.811 380.924 262.148 383.326C236.658 389.662 221.957 402.644 193.931 393.614C171.96 386.535 135.217 361.103 156.207 339.919Z" fill="#F2F2F2"/>
<path fill-rule="evenodd" clip-rule="evenodd" d="M172.738 200.517H179.652C179.168 193.011 178.537 185.517 177.054 178.095C171.496 150.275 154.117 109.414 116 104.898C114.594 104.73 109.421 104.701 103.155 105.012C100.186 103.608 96.8593 102.759 93.3544 102.564C60.9019 100.539 24.6602 122.694 9.00616 145.75C-3.61317 164.339 -1.48726 188.749 6.30722 208.498C11.5267 221.719 22.9183 240.57 41.9154 240.754C65.6829 240.984 66.829 216.126 67.2887 201.594C67.8995 182.274 70.7845 165.444 88.7745 152.275C92.9674 149.207 97.5503 146.508 101.785 143.483C108.417 138.747 115.746 133.899 116.6 126.065C117.78 115.257 110.57 113.313 99.5628 115.32C97.6864 115.662 78.7846 122.84 81.5833 117.166C82.4376 115.433 85.5584 114.06 89.4973 113.031C99.6898 112.093 111.845 111.005 115.341 111.655C153.054 118.657 167.737 162.863 171.636 190.949C172.078 194.13 172.431 197.321 172.738 200.517H172.738Z" fill="#F2F2F2"/>
</g>
<defs>
<clipPath id="clip0">
<rect width="719" height="604" fill="white"/>
</clipPath>
</defs>
</svg>
